G75*
%MOIN*%
%OFA0B0*%
%FSLAX25Y25*%
%IPPOS*%
%LPD*%
%AMOC8*
5,1,8,0,0,1.08239X$1,22.5*
%
%ADD10C,0.00100*%
%ADD11C,0.00236*%
%ADD12C,0.00640*%
%ADD13C,0.02441*%
%ADD14C,0.00984*%
%ADD15C,0.00591*%
%ADD16C,0.01476*%
%ADD17R,0.05709X0.01378*%
%ADD18C,0.00394*%
%ADD19C,0.04000*%
%ADD20C,0.06000*%
%ADD21OC8,0.05300*%
%ADD22C,0.00331*%
%ADD23C,0.00600*%
%ADD24C,0.00800*%
%ADD25OC8,0.02400*%
%ADD26C,0.01000*%
%ADD27C,0.00980*%
%ADD28C,0.01200*%
%ADD29C,0.02400*%
D10*
X0012350Y0030950D02*
X0008050Y0041950D01*
X0008050Y0064150D01*
X0012350Y0075150D01*
X0030950Y0093750D01*
X0043650Y0098450D01*
X0062450Y0098450D01*
X0075150Y0093750D01*
X0093750Y0075150D01*
X0098050Y0064150D01*
X0098050Y0041950D01*
X0093750Y0030950D01*
X0075150Y0012350D01*
X0062450Y0007650D01*
X0043650Y0007650D01*
X0030950Y0012350D01*
X0012350Y0030950D01*
D11*
X0040022Y0051715D02*
X0040022Y0052659D01*
X0040022Y0051715D02*
X0039078Y0051715D01*
X0039078Y0052659D01*
X0040022Y0052659D01*
X0040022Y0051950D02*
X0039078Y0051950D01*
X0039078Y0052185D02*
X0040022Y0052185D01*
X0040022Y0052420D02*
X0039078Y0052420D01*
X0039078Y0052655D02*
X0040022Y0052655D01*
X0039078Y0053841D02*
X0039078Y0054785D01*
X0040022Y0054785D01*
X0040022Y0053841D01*
X0039078Y0053841D01*
X0039078Y0054076D02*
X0040022Y0054076D01*
X0040022Y0054311D02*
X0039078Y0054311D01*
X0039078Y0054546D02*
X0040022Y0054546D01*
X0040022Y0054781D02*
X0039078Y0054781D01*
X0020502Y0068169D02*
X0019835Y0067502D01*
X0020502Y0068169D02*
X0021169Y0067502D01*
X0020502Y0066835D01*
X0019835Y0067502D01*
X0020267Y0067070D02*
X0020737Y0067070D01*
X0020972Y0067305D02*
X0020032Y0067305D01*
X0019873Y0067540D02*
X0021131Y0067540D01*
X0020896Y0067775D02*
X0020108Y0067775D01*
X0020343Y0068010D02*
X0020661Y0068010D01*
X0019665Y0065998D02*
X0018998Y0065331D01*
X0018331Y0065998D01*
X0018998Y0066665D01*
X0019665Y0065998D01*
X0019233Y0065566D02*
X0018763Y0065566D01*
X0018528Y0065801D02*
X0019468Y0065801D01*
X0019627Y0066036D02*
X0018369Y0066036D01*
X0018604Y0066271D02*
X0019392Y0066271D01*
X0019157Y0066506D02*
X0018839Y0066506D01*
X0034898Y0082235D02*
X0034231Y0082902D01*
X0034898Y0083569D01*
X0035565Y0082902D01*
X0034898Y0082235D01*
X0035133Y0082470D02*
X0034663Y0082470D01*
X0034428Y0082705D02*
X0035368Y0082705D01*
X0035527Y0082940D02*
X0034269Y0082940D01*
X0034504Y0083175D02*
X0035292Y0083175D01*
X0035057Y0083410D02*
X0034739Y0083410D01*
X0035831Y0084502D02*
X0036498Y0083835D01*
X0035831Y0084502D02*
X0036498Y0085169D01*
X0037165Y0084502D01*
X0036498Y0083835D01*
X0036733Y0084070D02*
X0036263Y0084070D01*
X0036028Y0084305D02*
X0036968Y0084305D01*
X0037127Y0084540D02*
X0035869Y0084540D01*
X0036104Y0084775D02*
X0036892Y0084775D01*
X0036657Y0085010D02*
X0036339Y0085010D01*
X0037431Y0086102D02*
X0038098Y0085435D01*
X0037431Y0086102D02*
X0038098Y0086769D01*
X0038765Y0086102D01*
X0038098Y0085435D01*
X0038333Y0085670D02*
X0037863Y0085670D01*
X0037628Y0085905D02*
X0038568Y0085905D01*
X0038727Y0086140D02*
X0037469Y0086140D01*
X0037704Y0086375D02*
X0038492Y0086375D01*
X0038257Y0086610D02*
X0037939Y0086610D01*
X0039602Y0085265D02*
X0040269Y0084598D01*
X0039602Y0083931D01*
X0038935Y0084598D01*
X0039602Y0085265D01*
X0039837Y0084166D02*
X0039367Y0084166D01*
X0039132Y0084401D02*
X0040072Y0084401D01*
X0040231Y0084636D02*
X0038973Y0084636D01*
X0039208Y0084871D02*
X0039996Y0084871D01*
X0039761Y0085106D02*
X0039443Y0085106D01*
X0038002Y0083665D02*
X0038669Y0082998D01*
X0038002Y0082331D01*
X0037335Y0082998D01*
X0038002Y0083665D01*
X0038237Y0082566D02*
X0037767Y0082566D01*
X0037532Y0082801D02*
X0038472Y0082801D01*
X0038631Y0083036D02*
X0037373Y0083036D01*
X0037608Y0083271D02*
X0038396Y0083271D01*
X0038161Y0083506D02*
X0037843Y0083506D01*
X0036402Y0082065D02*
X0037069Y0081398D01*
X0036402Y0080731D01*
X0035735Y0081398D01*
X0036402Y0082065D01*
X0036637Y0080966D02*
X0036167Y0080966D01*
X0035932Y0081201D02*
X0036872Y0081201D01*
X0037031Y0081436D02*
X0035773Y0081436D01*
X0036008Y0081671D02*
X0036796Y0081671D01*
X0036561Y0081906D02*
X0036243Y0081906D01*
X0037415Y0094278D02*
X0038359Y0094278D01*
X0037415Y0094278D02*
X0037415Y0095222D01*
X0038359Y0095222D01*
X0038359Y0094278D01*
X0038359Y0094513D02*
X0037415Y0094513D01*
X0037415Y0094748D02*
X0038359Y0094748D01*
X0038359Y0094983D02*
X0037415Y0094983D01*
X0037415Y0095218D02*
X0038359Y0095218D01*
X0039541Y0095222D02*
X0040485Y0095222D01*
X0040485Y0094278D01*
X0039541Y0094278D01*
X0039541Y0095222D01*
X0039541Y0094513D02*
X0040485Y0094513D01*
X0040485Y0094748D02*
X0039541Y0094748D01*
X0039541Y0094983D02*
X0040485Y0094983D01*
X0040485Y0095218D02*
X0039541Y0095218D01*
X0066078Y0054585D02*
X0066078Y0053641D01*
X0066078Y0054585D02*
X0067022Y0054585D01*
X0067022Y0053641D01*
X0066078Y0053641D01*
X0066078Y0053876D02*
X0067022Y0053876D01*
X0067022Y0054111D02*
X0066078Y0054111D01*
X0066078Y0054346D02*
X0067022Y0054346D01*
X0067022Y0054581D02*
X0066078Y0054581D01*
X0067022Y0052459D02*
X0067022Y0051515D01*
X0066078Y0051515D01*
X0066078Y0052459D01*
X0067022Y0052459D01*
X0067022Y0051750D02*
X0066078Y0051750D01*
X0066078Y0051985D02*
X0067022Y0051985D01*
X0067022Y0052220D02*
X0066078Y0052220D01*
X0066078Y0052455D02*
X0067022Y0052455D01*
X0066578Y0048485D02*
X0066578Y0047541D01*
X0066578Y0048485D02*
X0067522Y0048485D01*
X0067522Y0047541D01*
X0066578Y0047541D01*
X0066578Y0047776D02*
X0067522Y0047776D01*
X0067522Y0048011D02*
X0066578Y0048011D01*
X0066578Y0048246D02*
X0067522Y0048246D01*
X0067522Y0048481D02*
X0066578Y0048481D01*
X0067522Y0046359D02*
X0067522Y0045415D01*
X0066578Y0045415D01*
X0066578Y0046359D01*
X0067522Y0046359D01*
X0067522Y0045650D02*
X0066578Y0045650D01*
X0066578Y0045885D02*
X0067522Y0045885D01*
X0067522Y0046120D02*
X0066578Y0046120D01*
X0066578Y0046355D02*
X0067522Y0046355D01*
X0074322Y0046359D02*
X0074322Y0045415D01*
X0073378Y0045415D01*
X0073378Y0046359D01*
X0074322Y0046359D01*
X0074322Y0045650D02*
X0073378Y0045650D01*
X0073378Y0045885D02*
X0074322Y0045885D01*
X0074322Y0046120D02*
X0073378Y0046120D01*
X0073378Y0046355D02*
X0074322Y0046355D01*
X0073378Y0047541D02*
X0073378Y0048485D01*
X0074322Y0048485D01*
X0074322Y0047541D01*
X0073378Y0047541D01*
X0073378Y0047776D02*
X0074322Y0047776D01*
X0074322Y0048011D02*
X0073378Y0048011D01*
X0073378Y0048246D02*
X0074322Y0048246D01*
X0074322Y0048481D02*
X0073378Y0048481D01*
X0081515Y0045578D02*
X0082459Y0045578D01*
X0081515Y0045578D02*
X0081515Y0046522D01*
X0082459Y0046522D01*
X0082459Y0045578D01*
X0082459Y0045813D02*
X0081515Y0045813D01*
X0081515Y0046048D02*
X0082459Y0046048D01*
X0082459Y0046283D02*
X0081515Y0046283D01*
X0081515Y0046518D02*
X0082459Y0046518D01*
X0083641Y0046522D02*
X0084585Y0046522D01*
X0084585Y0045578D01*
X0083641Y0045578D01*
X0083641Y0046522D01*
X0083641Y0045813D02*
X0084585Y0045813D01*
X0084585Y0046048D02*
X0083641Y0046048D01*
X0083641Y0046283D02*
X0084585Y0046283D01*
X0084585Y0046518D02*
X0083641Y0046518D01*
D12*
X0029230Y0040464D02*
X0022870Y0040464D01*
X0022870Y0043024D01*
X0029230Y0043024D01*
X0029230Y0040464D01*
X0029230Y0041103D02*
X0022870Y0041103D01*
X0022870Y0041742D02*
X0029230Y0041742D01*
X0029230Y0042381D02*
X0022870Y0042381D01*
X0022870Y0043020D02*
X0029230Y0043020D01*
X0029230Y0051264D02*
X0022870Y0051264D01*
X0022870Y0053824D01*
X0029230Y0053824D01*
X0029230Y0051264D01*
X0029230Y0051903D02*
X0022870Y0051903D01*
X0022870Y0052542D02*
X0029230Y0052542D01*
X0029230Y0053181D02*
X0022870Y0053181D01*
X0022870Y0053820D02*
X0029230Y0053820D01*
D13*
X0048168Y0048168D02*
X0057932Y0048168D01*
X0048168Y0048168D02*
X0048168Y0057932D01*
X0057932Y0057932D01*
X0057932Y0048168D01*
X0057932Y0050608D02*
X0048168Y0050608D01*
X0048168Y0053048D02*
X0057932Y0053048D01*
X0057932Y0055488D02*
X0048168Y0055488D01*
X0048168Y0057928D02*
X0057932Y0057928D01*
D14*
X0061810Y0057971D02*
X0063976Y0057971D01*
X0063976Y0056003D02*
X0061810Y0056003D01*
X0061810Y0054034D02*
X0063976Y0054034D01*
X0063976Y0052066D02*
X0061810Y0052066D01*
X0061810Y0050097D02*
X0063976Y0050097D01*
X0063976Y0048129D02*
X0061810Y0048129D01*
X0061810Y0046160D02*
X0063976Y0046160D01*
X0059940Y0044290D02*
X0059940Y0042124D01*
X0057971Y0042124D02*
X0057971Y0044290D01*
X0056003Y0044290D02*
X0056003Y0042124D01*
X0054034Y0042124D02*
X0054034Y0044290D01*
X0052066Y0044290D02*
X0052066Y0042124D01*
X0050097Y0042124D02*
X0050097Y0044290D01*
X0048129Y0044290D02*
X0048129Y0042124D01*
X0046160Y0042124D02*
X0046160Y0044290D01*
X0044290Y0046160D02*
X0042124Y0046160D01*
X0042124Y0048129D02*
X0044290Y0048129D01*
X0044290Y0050097D02*
X0042124Y0050097D01*
X0042124Y0052066D02*
X0044290Y0052066D01*
X0044290Y0054034D02*
X0042124Y0054034D01*
X0042124Y0056003D02*
X0044290Y0056003D01*
X0044290Y0057971D02*
X0042124Y0057971D01*
X0042124Y0059940D02*
X0044290Y0059940D01*
X0046160Y0061810D02*
X0046160Y0063976D01*
X0048129Y0063976D02*
X0048129Y0061810D01*
X0050097Y0061810D02*
X0050097Y0063976D01*
X0052066Y0063976D02*
X0052066Y0061810D01*
X0054034Y0061810D02*
X0054034Y0063976D01*
X0056003Y0063976D02*
X0056003Y0061810D01*
X0057971Y0061810D02*
X0057971Y0063976D01*
X0059940Y0063976D02*
X0059940Y0061810D01*
X0061810Y0059940D02*
X0063976Y0059940D01*
D15*
X0051184Y0082758D02*
X0051184Y0084530D01*
X0051184Y0082758D02*
X0050594Y0082758D01*
X0050594Y0084530D01*
X0051184Y0084530D01*
X0051184Y0083348D02*
X0050594Y0083348D01*
X0050594Y0083938D02*
X0051184Y0083938D01*
X0051184Y0084528D02*
X0050594Y0084528D01*
X0048625Y0084530D02*
X0048625Y0082758D01*
X0048035Y0082758D01*
X0048035Y0084530D01*
X0048625Y0084530D01*
X0048625Y0083348D02*
X0048035Y0083348D01*
X0048035Y0083938D02*
X0048625Y0083938D01*
X0048625Y0084528D02*
X0048035Y0084528D01*
X0046065Y0084530D02*
X0046065Y0082758D01*
X0045475Y0082758D01*
X0045475Y0084530D01*
X0046065Y0084530D01*
X0046065Y0083348D02*
X0045475Y0083348D01*
X0045475Y0083938D02*
X0046065Y0083938D01*
X0046065Y0084528D02*
X0045475Y0084528D01*
X0043506Y0084530D02*
X0043506Y0082758D01*
X0042916Y0082758D01*
X0042916Y0084530D01*
X0043506Y0084530D01*
X0043506Y0083348D02*
X0042916Y0083348D01*
X0042916Y0083938D02*
X0043506Y0083938D01*
X0043506Y0084528D02*
X0042916Y0084528D01*
X0042916Y0094570D02*
X0042916Y0096342D01*
X0043506Y0096342D01*
X0043506Y0094570D01*
X0042916Y0094570D01*
X0042916Y0095160D02*
X0043506Y0095160D01*
X0043506Y0095750D02*
X0042916Y0095750D01*
X0042916Y0096340D02*
X0043506Y0096340D01*
X0045475Y0096342D02*
X0045475Y0094570D01*
X0045475Y0096342D02*
X0046065Y0096342D01*
X0046065Y0094570D01*
X0045475Y0094570D01*
X0045475Y0095160D02*
X0046065Y0095160D01*
X0046065Y0095750D02*
X0045475Y0095750D01*
X0045475Y0096340D02*
X0046065Y0096340D01*
X0048035Y0096342D02*
X0048035Y0094570D01*
X0048035Y0096342D02*
X0048625Y0096342D01*
X0048625Y0094570D01*
X0048035Y0094570D01*
X0048035Y0095160D02*
X0048625Y0095160D01*
X0048625Y0095750D02*
X0048035Y0095750D01*
X0048035Y0096340D02*
X0048625Y0096340D01*
X0050594Y0096342D02*
X0050594Y0094570D01*
X0050594Y0096342D02*
X0051184Y0096342D01*
X0051184Y0094570D01*
X0050594Y0094570D01*
X0050594Y0095160D02*
X0051184Y0095160D01*
X0051184Y0095750D02*
X0050594Y0095750D01*
X0050594Y0096340D02*
X0051184Y0096340D01*
D16*
X0050839Y0091765D02*
X0050839Y0087335D01*
X0043261Y0087335D01*
X0043261Y0091765D01*
X0050839Y0091765D01*
X0050839Y0088810D02*
X0043261Y0088810D01*
X0043261Y0090285D02*
X0050839Y0090285D01*
X0050839Y0091760D02*
X0043261Y0091760D01*
D17*
G36*
X0076195Y0041599D02*
X0080230Y0045634D01*
X0081205Y0044659D01*
X0077170Y0040624D01*
X0076195Y0041599D01*
G37*
G36*
X0078005Y0039789D02*
X0082040Y0043824D01*
X0083015Y0042849D01*
X0078980Y0038814D01*
X0078005Y0039789D01*
G37*
G36*
X0079814Y0037980D02*
X0083849Y0042015D01*
X0084824Y0041040D01*
X0080789Y0037005D01*
X0079814Y0037980D01*
G37*
G36*
X0081624Y0036170D02*
X0085659Y0040205D01*
X0086634Y0039230D01*
X0082599Y0035195D01*
X0081624Y0036170D01*
G37*
G36*
X0070905Y0023501D02*
X0066870Y0019466D01*
X0065895Y0020441D01*
X0069930Y0024476D01*
X0070905Y0023501D01*
G37*
G36*
X0069095Y0025311D02*
X0065060Y0021276D01*
X0064085Y0022251D01*
X0068120Y0026286D01*
X0069095Y0025311D01*
G37*
G36*
X0067286Y0027120D02*
X0063251Y0023085D01*
X0062276Y0024060D01*
X0066311Y0028095D01*
X0067286Y0027120D01*
G37*
G36*
X0065476Y0028930D02*
X0061441Y0024895D01*
X0060466Y0025870D01*
X0064501Y0029905D01*
X0065476Y0028930D01*
G37*
D18*
X0028503Y0068337D02*
X0026535Y0068337D01*
X0028503Y0068337D02*
X0028503Y0066763D01*
X0026535Y0066763D01*
X0026535Y0068337D01*
X0026535Y0067156D02*
X0028503Y0067156D01*
X0028503Y0067549D02*
X0026535Y0067549D01*
X0026535Y0067942D02*
X0028503Y0067942D01*
X0028503Y0068335D02*
X0026535Y0068335D01*
X0024565Y0068337D02*
X0022597Y0068337D01*
X0024565Y0068337D02*
X0024565Y0066763D01*
X0022597Y0066763D01*
X0022597Y0068337D01*
X0022597Y0067156D02*
X0024565Y0067156D01*
X0024565Y0067549D02*
X0022597Y0067549D01*
X0022597Y0067942D02*
X0024565Y0067942D01*
X0024565Y0068335D02*
X0022597Y0068335D01*
D19*
X0022282Y0025818D03*
X0025818Y0022282D03*
X0029353Y0018747D03*
X0032889Y0015211D03*
X0018747Y0029353D03*
X0015211Y0032889D03*
X0015211Y0073211D03*
X0018747Y0076747D03*
X0022282Y0080282D03*
X0025818Y0083818D03*
X0029353Y0087353D03*
X0032889Y0090889D03*
X0056550Y0094050D03*
X0061550Y0094050D03*
X0066550Y0094050D03*
X0073211Y0090889D03*
X0076747Y0087353D03*
X0080282Y0083818D03*
X0083818Y0080282D03*
X0087353Y0076747D03*
X0090889Y0073211D03*
X0090889Y0032889D03*
X0087353Y0029353D03*
X0083818Y0025818D03*
X0080282Y0022282D03*
X0076747Y0018747D03*
X0073211Y0015211D03*
D20*
X0074121Y0059979D03*
X0067050Y0067050D03*
X0074121Y0074121D03*
X0059979Y0074121D03*
D21*
X0094050Y0059050D03*
X0094050Y0047050D03*
X0012050Y0047050D03*
X0012050Y0059050D03*
D22*
X0025152Y0058821D02*
X0026948Y0058821D01*
X0026948Y0057497D01*
X0025152Y0057497D01*
X0025152Y0058821D01*
X0025152Y0057827D02*
X0026948Y0057827D01*
X0026948Y0058157D02*
X0025152Y0058157D01*
X0025152Y0058487D02*
X0026948Y0058487D01*
X0026948Y0058817D02*
X0025152Y0058817D01*
X0025152Y0055592D02*
X0026948Y0055592D01*
X0026948Y0054268D01*
X0025152Y0054268D01*
X0025152Y0055592D01*
X0025152Y0054598D02*
X0026948Y0054598D01*
X0026948Y0054928D02*
X0025152Y0054928D01*
X0025152Y0055258D02*
X0026948Y0055258D01*
X0026948Y0055588D02*
X0025152Y0055588D01*
X0025152Y0038697D02*
X0026948Y0038697D01*
X0025152Y0038697D02*
X0025152Y0040021D01*
X0026948Y0040021D01*
X0026948Y0038697D01*
X0026948Y0039027D02*
X0025152Y0039027D01*
X0025152Y0039357D02*
X0026948Y0039357D01*
X0026948Y0039687D02*
X0025152Y0039687D01*
X0025152Y0040017D02*
X0026948Y0040017D01*
X0026948Y0035468D02*
X0025152Y0035468D01*
X0025152Y0036792D01*
X0026948Y0036792D01*
X0026948Y0035468D01*
X0026948Y0035798D02*
X0025152Y0035798D01*
X0025152Y0036128D02*
X0026948Y0036128D01*
X0026948Y0036458D02*
X0025152Y0036458D01*
X0025152Y0036788D02*
X0026948Y0036788D01*
D23*
X0022728Y0031050D02*
X0022640Y0031052D01*
X0022553Y0031057D01*
X0022466Y0031066D01*
X0022379Y0031079D01*
X0022293Y0031095D01*
X0022208Y0031115D01*
X0022123Y0031138D01*
X0022040Y0031165D01*
X0021958Y0031195D01*
X0021877Y0031228D01*
X0021797Y0031265D01*
X0021719Y0031305D01*
X0021643Y0031349D01*
X0021569Y0031395D01*
X0021497Y0031444D01*
X0021426Y0031497D01*
X0021358Y0031552D01*
X0021293Y0031610D01*
X0021230Y0031671D01*
X0021229Y0031671D02*
X0020566Y0032334D01*
X0019226Y0032889D02*
X0015211Y0032889D01*
X0018747Y0029353D02*
X0022507Y0029353D01*
X0022981Y0031050D02*
X0023060Y0031048D01*
X0023139Y0031042D01*
X0023218Y0031033D01*
X0023296Y0031019D01*
X0023374Y0031002D01*
X0023450Y0030980D01*
X0023525Y0030956D01*
X0023599Y0030927D01*
X0023672Y0030895D01*
X0023743Y0030859D01*
X0023812Y0030820D01*
X0023879Y0030778D01*
X0023944Y0030732D01*
X0024006Y0030683D01*
X0024066Y0030631D01*
X0024124Y0030577D01*
X0024123Y0030577D02*
X0025439Y0029261D01*
X0024282Y0028618D02*
X0024983Y0027917D01*
X0026834Y0027150D02*
X0032976Y0027150D01*
X0032765Y0028350D02*
X0027639Y0028350D01*
X0026834Y0027150D02*
X0026736Y0027152D01*
X0026638Y0027157D01*
X0026541Y0027166D01*
X0026444Y0027179D01*
X0026347Y0027196D01*
X0026252Y0027216D01*
X0026157Y0027239D01*
X0026063Y0027266D01*
X0025970Y0027297D01*
X0025878Y0027331D01*
X0025787Y0027368D01*
X0025699Y0027409D01*
X0025611Y0027453D01*
X0025526Y0027501D01*
X0025442Y0027551D01*
X0025360Y0027605D01*
X0025280Y0027661D01*
X0025202Y0027721D01*
X0025127Y0027783D01*
X0025054Y0027849D01*
X0024984Y0027916D01*
X0024282Y0028619D02*
X0024211Y0028687D01*
X0024137Y0028753D01*
X0024061Y0028815D01*
X0023982Y0028875D01*
X0023901Y0028931D01*
X0023818Y0028984D01*
X0023733Y0029034D01*
X0023647Y0029080D01*
X0023558Y0029123D01*
X0023468Y0029163D01*
X0023376Y0029199D01*
X0023283Y0029231D01*
X0023188Y0029260D01*
X0023093Y0029285D01*
X0022997Y0029306D01*
X0022900Y0029323D01*
X0022802Y0029337D01*
X0022704Y0029346D01*
X0022606Y0029352D01*
X0022507Y0029354D01*
X0022728Y0031050D02*
X0022981Y0031050D01*
X0020567Y0032334D02*
X0020507Y0032391D01*
X0020445Y0032445D01*
X0020380Y0032497D01*
X0020313Y0032546D01*
X0020245Y0032592D01*
X0020174Y0032635D01*
X0020101Y0032675D01*
X0020027Y0032711D01*
X0019952Y0032745D01*
X0019874Y0032775D01*
X0019796Y0032801D01*
X0019717Y0032824D01*
X0019636Y0032844D01*
X0019555Y0032860D01*
X0019473Y0032873D01*
X0019391Y0032882D01*
X0019309Y0032887D01*
X0019226Y0032889D01*
X0022414Y0025950D02*
X0022282Y0025818D01*
X0022414Y0025950D02*
X0033497Y0025950D01*
X0034046Y0024750D02*
X0030502Y0024750D01*
X0032439Y0023550D02*
X0034787Y0023550D01*
X0030067Y0022568D02*
X0030001Y0022499D01*
X0029937Y0022427D01*
X0029877Y0022353D01*
X0029819Y0022277D01*
X0029764Y0022198D01*
X0029712Y0022117D01*
X0029664Y0022035D01*
X0029619Y0021950D01*
X0029577Y0021864D01*
X0029539Y0021776D01*
X0029504Y0021687D01*
X0029472Y0021597D01*
X0029445Y0021505D01*
X0029420Y0021412D01*
X0029400Y0021319D01*
X0029383Y0021225D01*
X0029370Y0021130D01*
X0029361Y0021034D01*
X0029355Y0020939D01*
X0029353Y0020843D01*
X0029353Y0018747D01*
X0026718Y0023182D02*
X0026821Y0023284D01*
X0026928Y0023382D01*
X0027037Y0023477D01*
X0027149Y0023569D01*
X0027263Y0023659D01*
X0027380Y0023745D01*
X0027499Y0023828D01*
X0027620Y0023908D01*
X0027743Y0023984D01*
X0027868Y0024057D01*
X0027995Y0024127D01*
X0028124Y0024193D01*
X0028255Y0024255D01*
X0028387Y0024314D01*
X0028521Y0024370D01*
X0028656Y0024422D01*
X0028793Y0024470D01*
X0028931Y0024514D01*
X0029070Y0024555D01*
X0029210Y0024592D01*
X0029351Y0024625D01*
X0029493Y0024654D01*
X0029636Y0024679D01*
X0029779Y0024701D01*
X0029923Y0024719D01*
X0030068Y0024732D01*
X0030212Y0024742D01*
X0030357Y0024748D01*
X0030502Y0024750D01*
X0026718Y0023183D02*
X0025818Y0022282D01*
X0030067Y0022568D02*
X0030150Y0022647D01*
X0030235Y0022724D01*
X0030322Y0022798D01*
X0030412Y0022868D01*
X0030505Y0022936D01*
X0030599Y0023001D01*
X0030696Y0023062D01*
X0030795Y0023120D01*
X0030896Y0023174D01*
X0030999Y0023225D01*
X0031103Y0023272D01*
X0031209Y0023316D01*
X0031316Y0023356D01*
X0031424Y0023393D01*
X0031534Y0023426D01*
X0031645Y0023455D01*
X0031757Y0023480D01*
X0031869Y0023501D01*
X0031982Y0023519D01*
X0032096Y0023532D01*
X0032210Y0023542D01*
X0032324Y0023548D01*
X0032439Y0023550D01*
X0032889Y0018685D02*
X0032889Y0015211D01*
X0032888Y0018685D02*
X0032890Y0018789D01*
X0032895Y0018892D01*
X0032905Y0018996D01*
X0032918Y0019099D01*
X0032934Y0019201D01*
X0032954Y0019303D01*
X0032978Y0019404D01*
X0033006Y0019504D01*
X0033037Y0019603D01*
X0033071Y0019701D01*
X0033109Y0019797D01*
X0033151Y0019893D01*
X0033195Y0019986D01*
X0033244Y0020078D01*
X0033295Y0020168D01*
X0033349Y0020257D01*
X0033407Y0020343D01*
X0033468Y0020427D01*
X0033531Y0020509D01*
X0033598Y0020589D01*
X0033667Y0020666D01*
X0033739Y0020741D01*
X0033740Y0020740D02*
X0033833Y0020831D01*
X0033929Y0020919D01*
X0034027Y0021004D01*
X0034128Y0021086D01*
X0034232Y0021165D01*
X0034337Y0021241D01*
X0034445Y0021314D01*
X0034554Y0021384D01*
X0034666Y0021451D01*
X0034780Y0021514D01*
X0034895Y0021574D01*
X0035012Y0021631D01*
X0035131Y0021684D01*
X0035251Y0021734D01*
X0035372Y0021780D01*
X0035495Y0021823D01*
X0035619Y0021862D01*
X0035745Y0021898D01*
X0035871Y0021929D01*
X0035998Y0021958D01*
X0036125Y0021982D01*
X0036254Y0022003D01*
X0036383Y0022020D01*
X0036512Y0022033D01*
X0036642Y0022042D01*
X0036772Y0022048D01*
X0036902Y0022050D01*
X0043471Y0024771D02*
X0053390Y0034690D01*
X0051897Y0035797D02*
X0043089Y0026989D01*
X0041369Y0027763D02*
X0050366Y0036675D01*
X0048532Y0037232D02*
X0039904Y0028604D01*
X0038223Y0029323D02*
X0046733Y0037833D01*
X0044835Y0038335D02*
X0036324Y0029824D01*
X0036902Y0022050D02*
X0037123Y0022053D01*
X0037344Y0022061D01*
X0037565Y0022074D01*
X0037785Y0022092D01*
X0038005Y0022116D01*
X0038224Y0022145D01*
X0038442Y0022179D01*
X0038660Y0022218D01*
X0038877Y0022262D01*
X0039092Y0022312D01*
X0039306Y0022367D01*
X0039519Y0022426D01*
X0039730Y0022491D01*
X0039940Y0022561D01*
X0040148Y0022636D01*
X0040354Y0022715D01*
X0040559Y0022800D01*
X0040761Y0022889D01*
X0040961Y0022984D01*
X0041158Y0023083D01*
X0041354Y0023186D01*
X0041546Y0023294D01*
X0041737Y0023407D01*
X0041924Y0023525D01*
X0042109Y0023646D01*
X0042290Y0023772D01*
X0042469Y0023903D01*
X0042644Y0024037D01*
X0042816Y0024176D01*
X0042985Y0024319D01*
X0043150Y0024466D01*
X0043312Y0024616D01*
X0043470Y0024771D01*
X0039904Y0028604D02*
X0039745Y0028449D01*
X0039582Y0028297D01*
X0039415Y0028150D01*
X0039245Y0028007D01*
X0039072Y0027868D01*
X0038895Y0027733D01*
X0038714Y0027603D01*
X0038531Y0027477D01*
X0038345Y0027356D01*
X0038155Y0027239D01*
X0037963Y0027127D01*
X0037768Y0027020D01*
X0037571Y0026917D01*
X0037371Y0026820D01*
X0037169Y0026727D01*
X0036964Y0026640D01*
X0036758Y0026557D01*
X0036550Y0026480D01*
X0036339Y0026407D01*
X0036127Y0026340D01*
X0035914Y0026278D01*
X0035699Y0026222D01*
X0035482Y0026170D01*
X0035265Y0026124D01*
X0035046Y0026083D01*
X0034827Y0026048D01*
X0034606Y0026018D01*
X0034385Y0025994D01*
X0034164Y0025975D01*
X0033942Y0025961D01*
X0033719Y0025953D01*
X0033497Y0025950D01*
X0027639Y0028350D02*
X0027528Y0028352D01*
X0027417Y0028358D01*
X0027306Y0028368D01*
X0027196Y0028382D01*
X0027087Y0028399D01*
X0026978Y0028421D01*
X0026870Y0028447D01*
X0026763Y0028476D01*
X0026657Y0028509D01*
X0026552Y0028546D01*
X0026448Y0028587D01*
X0026347Y0028631D01*
X0026246Y0028679D01*
X0026148Y0028731D01*
X0026052Y0028785D01*
X0025957Y0028844D01*
X0025865Y0028906D01*
X0025775Y0028971D01*
X0025687Y0029039D01*
X0025602Y0029110D01*
X0025519Y0029184D01*
X0025439Y0029261D01*
X0032765Y0028350D02*
X0032906Y0028352D01*
X0033047Y0028358D01*
X0033188Y0028368D01*
X0033329Y0028382D01*
X0033469Y0028399D01*
X0033608Y0028421D01*
X0033747Y0028447D01*
X0033885Y0028476D01*
X0034022Y0028510D01*
X0034158Y0028547D01*
X0034293Y0028588D01*
X0034427Y0028632D01*
X0034560Y0028681D01*
X0034691Y0028733D01*
X0034821Y0028789D01*
X0034949Y0028848D01*
X0035075Y0028911D01*
X0035200Y0028978D01*
X0035322Y0029048D01*
X0035443Y0029121D01*
X0035561Y0029198D01*
X0035677Y0029278D01*
X0035791Y0029362D01*
X0035903Y0029448D01*
X0036012Y0029538D01*
X0036119Y0029630D01*
X0036223Y0029726D01*
X0036324Y0029824D01*
X0038223Y0029323D02*
X0038092Y0029196D01*
X0037959Y0029072D01*
X0037823Y0028952D01*
X0037683Y0028834D01*
X0037541Y0028720D01*
X0037396Y0028610D01*
X0037248Y0028504D01*
X0037098Y0028400D01*
X0036946Y0028301D01*
X0036791Y0028206D01*
X0036633Y0028114D01*
X0036474Y0028026D01*
X0036312Y0027942D01*
X0036148Y0027862D01*
X0035983Y0027787D01*
X0035816Y0027715D01*
X0035646Y0027647D01*
X0035476Y0027584D01*
X0035304Y0027525D01*
X0035130Y0027470D01*
X0034955Y0027419D01*
X0034779Y0027372D01*
X0034602Y0027330D01*
X0034424Y0027293D01*
X0034245Y0027259D01*
X0034065Y0027230D01*
X0033884Y0027206D01*
X0033703Y0027186D01*
X0033522Y0027170D01*
X0033340Y0027159D01*
X0033158Y0027152D01*
X0032976Y0027150D01*
X0034046Y0024750D02*
X0034300Y0024753D01*
X0034554Y0024762D01*
X0034807Y0024778D01*
X0035060Y0024800D01*
X0035312Y0024827D01*
X0035564Y0024861D01*
X0035815Y0024901D01*
X0036064Y0024948D01*
X0036313Y0025000D01*
X0036560Y0025058D01*
X0036805Y0025122D01*
X0037049Y0025193D01*
X0037291Y0025269D01*
X0037532Y0025351D01*
X0037770Y0025439D01*
X0038006Y0025533D01*
X0038239Y0025632D01*
X0038470Y0025737D01*
X0038699Y0025848D01*
X0038925Y0025964D01*
X0039147Y0026086D01*
X0039367Y0026213D01*
X0039584Y0026346D01*
X0039797Y0026483D01*
X0040007Y0026626D01*
X0040213Y0026774D01*
X0040416Y0026927D01*
X0040615Y0027085D01*
X0040810Y0027248D01*
X0041001Y0027415D01*
X0041187Y0027587D01*
X0041370Y0027763D01*
X0043089Y0026989D02*
X0042883Y0026788D01*
X0042672Y0026591D01*
X0042456Y0026401D01*
X0042235Y0026215D01*
X0042010Y0026035D01*
X0041781Y0025861D01*
X0041548Y0025692D01*
X0041310Y0025529D01*
X0041068Y0025372D01*
X0040823Y0025220D01*
X0040574Y0025075D01*
X0040322Y0024936D01*
X0040066Y0024804D01*
X0039807Y0024677D01*
X0039545Y0024557D01*
X0039280Y0024444D01*
X0039013Y0024337D01*
X0038742Y0024236D01*
X0038470Y0024143D01*
X0038195Y0024056D01*
X0037918Y0023975D01*
X0037640Y0023902D01*
X0037359Y0023835D01*
X0037078Y0023776D01*
X0036794Y0023723D01*
X0036510Y0023677D01*
X0036224Y0023638D01*
X0035938Y0023607D01*
X0035651Y0023582D01*
X0035363Y0023564D01*
X0035075Y0023554D01*
X0034787Y0023550D01*
X0036612Y0045717D02*
X0036820Y0045782D01*
X0037030Y0045842D01*
X0037241Y0045897D01*
X0037453Y0045947D01*
X0037667Y0045991D01*
X0037881Y0046031D01*
X0038096Y0046065D01*
X0038312Y0046094D01*
X0038529Y0046118D01*
X0038746Y0046136D01*
X0038964Y0046149D01*
X0039182Y0046157D01*
X0039400Y0046160D01*
X0043207Y0046160D01*
X0043207Y0048129D02*
X0039372Y0048129D01*
X0036640Y0048563D02*
X0029084Y0051376D01*
X0026050Y0051376D01*
X0026050Y0052544D01*
X0026050Y0042904D02*
X0026050Y0041744D01*
X0026050Y0042904D02*
X0029056Y0042904D01*
X0036613Y0045717D01*
X0046160Y0041534D02*
X0046158Y0041402D01*
X0046152Y0041271D01*
X0046143Y0041140D01*
X0046129Y0041009D01*
X0046112Y0040878D01*
X0046091Y0040748D01*
X0046067Y0040619D01*
X0046038Y0040491D01*
X0046006Y0040363D01*
X0045970Y0040237D01*
X0045930Y0040111D01*
X0045887Y0039987D01*
X0045840Y0039864D01*
X0045790Y0039742D01*
X0045736Y0039622D01*
X0045679Y0039504D01*
X0045618Y0039387D01*
X0045554Y0039272D01*
X0045486Y0039159D01*
X0045416Y0039048D01*
X0045342Y0038939D01*
X0045265Y0038832D01*
X0045185Y0038728D01*
X0045102Y0038626D01*
X0045016Y0038526D01*
X0044927Y0038429D01*
X0044835Y0038335D01*
X0048532Y0037232D02*
X0048633Y0037336D01*
X0048731Y0037442D01*
X0048826Y0037551D01*
X0048918Y0037663D01*
X0049008Y0037777D01*
X0049094Y0037893D01*
X0049176Y0038012D01*
X0049256Y0038132D01*
X0049332Y0038255D01*
X0049405Y0038380D01*
X0049475Y0038507D01*
X0049541Y0038636D01*
X0049603Y0038767D01*
X0049662Y0038899D01*
X0049718Y0039032D01*
X0049769Y0039167D01*
X0049817Y0039304D01*
X0049862Y0039442D01*
X0049902Y0039581D01*
X0049939Y0039721D01*
X0049972Y0039861D01*
X0050001Y0040003D01*
X0050027Y0040146D01*
X0050048Y0040289D01*
X0050066Y0040432D01*
X0050079Y0040576D01*
X0050089Y0040721D01*
X0050095Y0040865D01*
X0050097Y0041010D01*
X0050097Y0043207D01*
X0048129Y0043207D02*
X0048129Y0041203D01*
X0056002Y0040997D02*
X0055999Y0040785D01*
X0055992Y0040573D01*
X0055979Y0040361D01*
X0055962Y0040149D01*
X0055939Y0039938D01*
X0055911Y0039728D01*
X0055879Y0039518D01*
X0055841Y0039309D01*
X0055798Y0039101D01*
X0055751Y0038894D01*
X0055698Y0038689D01*
X0055641Y0038484D01*
X0055578Y0038281D01*
X0055511Y0038080D01*
X0055440Y0037880D01*
X0055363Y0037682D01*
X0055282Y0037486D01*
X0055196Y0037292D01*
X0055106Y0037100D01*
X0055011Y0036910D01*
X0054911Y0036723D01*
X0054807Y0036537D01*
X0054699Y0036355D01*
X0054586Y0036175D01*
X0054469Y0035998D01*
X0054348Y0035823D01*
X0054223Y0035652D01*
X0054094Y0035484D01*
X0053961Y0035318D01*
X0053824Y0035156D01*
X0053683Y0034998D01*
X0053538Y0034842D01*
X0053390Y0034690D01*
X0058891Y0040009D02*
X0066427Y0032473D01*
X0065038Y0031962D02*
X0056003Y0040997D01*
X0056003Y0043207D01*
X0057971Y0043207D02*
X0057971Y0042230D01*
X0059940Y0042048D02*
X0059940Y0043207D01*
X0057971Y0042230D02*
X0057973Y0042123D01*
X0057978Y0042016D01*
X0057987Y0041909D01*
X0058000Y0041802D01*
X0058017Y0041696D01*
X0058037Y0041591D01*
X0058060Y0041486D01*
X0058087Y0041383D01*
X0058118Y0041280D01*
X0058152Y0041178D01*
X0058190Y0041078D01*
X0058231Y0040979D01*
X0058275Y0040881D01*
X0058323Y0040785D01*
X0058374Y0040691D01*
X0058428Y0040598D01*
X0058486Y0040507D01*
X0058546Y0040419D01*
X0058609Y0040332D01*
X0058675Y0040248D01*
X0058745Y0040166D01*
X0058816Y0040086D01*
X0058891Y0040009D01*
X0060780Y0040020D02*
X0066730Y0034070D01*
X0067092Y0035608D02*
X0064024Y0038676D01*
X0062893Y0041407D02*
X0062893Y0046160D01*
X0062893Y0050097D02*
X0069071Y0050097D01*
X0071290Y0052810D02*
X0068746Y0055354D01*
X0067179Y0056003D02*
X0062893Y0056003D01*
X0062893Y0057971D02*
X0067054Y0057971D01*
X0068548Y0057352D02*
X0071657Y0054243D01*
X0072619Y0055081D02*
X0069178Y0058622D01*
X0068548Y0057353D02*
X0068485Y0057414D01*
X0068420Y0057471D01*
X0068352Y0057526D01*
X0068282Y0057579D01*
X0068210Y0057628D01*
X0068136Y0057674D01*
X0068060Y0057717D01*
X0067982Y0057757D01*
X0067903Y0057794D01*
X0067822Y0057827D01*
X0067740Y0057858D01*
X0067657Y0057884D01*
X0067573Y0057907D01*
X0067488Y0057927D01*
X0067402Y0057943D01*
X0067315Y0057956D01*
X0067228Y0057965D01*
X0067141Y0057970D01*
X0067054Y0057972D01*
X0065263Y0059940D02*
X0062893Y0059940D01*
X0063255Y0064745D02*
X0063170Y0064827D01*
X0063082Y0064907D01*
X0062992Y0064984D01*
X0062900Y0065058D01*
X0062805Y0065129D01*
X0062708Y0065198D01*
X0062609Y0065263D01*
X0062508Y0065325D01*
X0062405Y0065383D01*
X0062300Y0065439D01*
X0062193Y0065491D01*
X0062085Y0065540D01*
X0061976Y0065585D01*
X0061865Y0065627D01*
X0061753Y0065665D01*
X0061640Y0065700D01*
X0061525Y0065731D01*
X0061410Y0065759D01*
X0061294Y0065783D01*
X0061177Y0065804D01*
X0061060Y0065820D01*
X0060942Y0065833D01*
X0060824Y0065843D01*
X0060706Y0065848D01*
X0060587Y0065850D01*
X0059462Y0065850D01*
X0059390Y0065848D01*
X0059317Y0065843D01*
X0059245Y0065834D01*
X0059174Y0065822D01*
X0059103Y0065806D01*
X0059034Y0065786D01*
X0058965Y0065764D01*
X0058897Y0065738D01*
X0058831Y0065708D01*
X0058766Y0065676D01*
X0058703Y0065640D01*
X0058642Y0065601D01*
X0058583Y0065560D01*
X0058526Y0065515D01*
X0058471Y0065468D01*
X0058418Y0065418D01*
X0057971Y0064340D02*
X0057971Y0062893D01*
X0056003Y0062893D02*
X0056003Y0069717D01*
X0054034Y0068760D02*
X0054034Y0062893D01*
X0052050Y0062908D02*
X0052050Y0066160D01*
X0048454Y0066146D02*
X0048389Y0066214D01*
X0048326Y0066285D01*
X0048266Y0066358D01*
X0048209Y0066433D01*
X0048155Y0066510D01*
X0048104Y0066590D01*
X0048057Y0066671D01*
X0048012Y0066755D01*
X0047971Y0066840D01*
X0047933Y0066926D01*
X0047899Y0067014D01*
X0047868Y0067103D01*
X0047840Y0067193D01*
X0047816Y0067285D01*
X0047796Y0067377D01*
X0047780Y0067470D01*
X0047767Y0067563D01*
X0047757Y0067657D01*
X0047752Y0067752D01*
X0047750Y0067846D01*
X0047750Y0074887D01*
X0046550Y0075395D02*
X0046552Y0075473D01*
X0046558Y0075550D01*
X0046567Y0075627D01*
X0046580Y0075703D01*
X0046597Y0075779D01*
X0046618Y0075854D01*
X0046642Y0075928D01*
X0046670Y0076000D01*
X0046702Y0076071D01*
X0046737Y0076140D01*
X0046775Y0076208D01*
X0046816Y0076273D01*
X0046861Y0076337D01*
X0046909Y0076398D01*
X0046960Y0076457D01*
X0047013Y0076513D01*
X0048612Y0078112D01*
X0047947Y0079247D02*
X0048012Y0079309D01*
X0048080Y0079368D01*
X0048150Y0079425D01*
X0048222Y0079478D01*
X0048297Y0079528D01*
X0048374Y0079574D01*
X0048452Y0079617D01*
X0048533Y0079657D01*
X0048615Y0079693D01*
X0048699Y0079726D01*
X0048784Y0079755D01*
X0048870Y0079780D01*
X0048957Y0079801D01*
X0049045Y0079819D01*
X0049134Y0079832D01*
X0049224Y0079842D01*
X0049313Y0079848D01*
X0049403Y0079850D01*
X0059050Y0079850D01*
X0060290Y0081090D01*
X0060452Y0074121D02*
X0060617Y0074123D01*
X0060782Y0074129D01*
X0060946Y0074139D01*
X0061110Y0074152D01*
X0061274Y0074170D01*
X0061438Y0074192D01*
X0061601Y0074217D01*
X0061763Y0074246D01*
X0061924Y0074279D01*
X0062085Y0074316D01*
X0062245Y0074357D01*
X0062404Y0074402D01*
X0062561Y0074450D01*
X0062718Y0074502D01*
X0062873Y0074558D01*
X0063027Y0074617D01*
X0063179Y0074680D01*
X0063330Y0074747D01*
X0063479Y0074817D01*
X0063626Y0074891D01*
X0063772Y0074968D01*
X0063915Y0075049D01*
X0064057Y0075133D01*
X0064197Y0075221D01*
X0064335Y0075311D01*
X0064470Y0075405D01*
X0064603Y0075503D01*
X0064734Y0075603D01*
X0064862Y0075706D01*
X0064988Y0075813D01*
X0065112Y0075922D01*
X0065232Y0076035D01*
X0065350Y0076150D01*
X0065987Y0078650D02*
X0066099Y0078648D01*
X0066210Y0078642D01*
X0066321Y0078632D01*
X0066432Y0078618D01*
X0066542Y0078600D01*
X0066651Y0078579D01*
X0066760Y0078553D01*
X0066867Y0078523D01*
X0066974Y0078490D01*
X0067079Y0078453D01*
X0067183Y0078412D01*
X0067285Y0078368D01*
X0067385Y0078320D01*
X0067484Y0078268D01*
X0067581Y0078213D01*
X0067676Y0078154D01*
X0067769Y0078092D01*
X0067859Y0078027D01*
X0067947Y0077958D01*
X0068033Y0077887D01*
X0068116Y0077812D01*
X0068196Y0077735D01*
X0069016Y0079850D02*
X0069119Y0079848D01*
X0069222Y0079843D01*
X0069325Y0079834D01*
X0069427Y0079821D01*
X0069529Y0079805D01*
X0069630Y0079785D01*
X0069730Y0079761D01*
X0069830Y0079734D01*
X0069929Y0079704D01*
X0070026Y0079670D01*
X0070122Y0079633D01*
X0070217Y0079592D01*
X0070310Y0079548D01*
X0070402Y0079501D01*
X0070492Y0079450D01*
X0070580Y0079397D01*
X0070666Y0079340D01*
X0070750Y0079280D01*
X0070832Y0079218D01*
X0070912Y0079152D01*
X0070911Y0079152D02*
X0074121Y0075943D01*
X0074121Y0074121D01*
X0077188Y0071087D02*
X0077278Y0071181D01*
X0077366Y0071277D01*
X0077452Y0071376D01*
X0077534Y0071477D01*
X0077613Y0071580D01*
X0077690Y0071686D01*
X0077763Y0071794D01*
X0077833Y0071904D01*
X0077900Y0072015D01*
X0077963Y0072129D01*
X0078023Y0072245D01*
X0078080Y0072362D01*
X0078134Y0072481D01*
X0078183Y0072602D01*
X0078230Y0072723D01*
X0078273Y0072847D01*
X0078312Y0072971D01*
X0078347Y0073096D01*
X0078379Y0073223D01*
X0078407Y0073350D01*
X0078432Y0073478D01*
X0078453Y0073607D01*
X0078470Y0073736D01*
X0078483Y0073865D01*
X0078492Y0073995D01*
X0078498Y0074126D01*
X0078500Y0074256D01*
X0079850Y0074497D02*
X0079850Y0074637D01*
X0082250Y0077265D02*
X0082250Y0056950D01*
X0081050Y0056950D02*
X0081050Y0077646D01*
X0080553Y0078848D02*
X0080512Y0078892D01*
X0080473Y0078938D01*
X0080438Y0078987D01*
X0080406Y0079038D01*
X0080378Y0079092D01*
X0080353Y0079147D01*
X0080332Y0079203D01*
X0080314Y0079261D01*
X0080301Y0079319D01*
X0080291Y0079379D01*
X0080285Y0079439D01*
X0080283Y0079499D01*
X0080282Y0079499D02*
X0080282Y0083818D01*
X0076750Y0081306D02*
X0076752Y0081211D01*
X0076758Y0081115D01*
X0076768Y0081020D01*
X0076781Y0080926D01*
X0076799Y0080832D01*
X0076821Y0080739D01*
X0076846Y0080647D01*
X0076875Y0080556D01*
X0076908Y0080467D01*
X0076944Y0080378D01*
X0076985Y0080292D01*
X0077028Y0080207D01*
X0077075Y0080124D01*
X0077126Y0080043D01*
X0077180Y0079964D01*
X0077237Y0079888D01*
X0077297Y0079814D01*
X0077360Y0079742D01*
X0077426Y0079673D01*
X0077426Y0079674D02*
X0078003Y0079097D01*
X0077055Y0077745D02*
X0074054Y0080746D01*
X0073211Y0082780D02*
X0073211Y0090889D01*
X0076747Y0087353D02*
X0076747Y0081747D01*
X0076750Y0081350D01*
X0076750Y0081306D01*
X0074053Y0080746D02*
X0073982Y0080820D01*
X0073913Y0080897D01*
X0073848Y0080975D01*
X0073785Y0081056D01*
X0073725Y0081140D01*
X0073668Y0081225D01*
X0073614Y0081312D01*
X0073563Y0081402D01*
X0073515Y0081493D01*
X0073471Y0081585D01*
X0073430Y0081679D01*
X0073392Y0081775D01*
X0073358Y0081872D01*
X0073327Y0081970D01*
X0073300Y0082069D01*
X0073277Y0082169D01*
X0073257Y0082269D01*
X0073240Y0082371D01*
X0073227Y0082473D01*
X0073218Y0082575D01*
X0073213Y0082677D01*
X0073211Y0082780D01*
X0069016Y0079850D02*
X0059050Y0079850D01*
X0060290Y0081089D02*
X0060357Y0081159D01*
X0060422Y0081232D01*
X0060484Y0081306D01*
X0060543Y0081383D01*
X0060599Y0081463D01*
X0060652Y0081544D01*
X0060702Y0081627D01*
X0060749Y0081712D01*
X0060793Y0081799D01*
X0060833Y0081887D01*
X0060871Y0081977D01*
X0060904Y0082068D01*
X0060935Y0082160D01*
X0060962Y0082253D01*
X0060985Y0082347D01*
X0061005Y0082442D01*
X0061021Y0082538D01*
X0061034Y0082634D01*
X0061043Y0082731D01*
X0061048Y0082828D01*
X0061050Y0082925D01*
X0061050Y0088240D01*
X0060124Y0090476D02*
X0056550Y0094050D01*
X0062612Y0092988D02*
X0062688Y0092910D01*
X0062761Y0092828D01*
X0062832Y0092745D01*
X0062899Y0092659D01*
X0062964Y0092571D01*
X0063025Y0092480D01*
X0063084Y0092388D01*
X0063139Y0092293D01*
X0063191Y0092197D01*
X0063240Y0092099D01*
X0063285Y0092000D01*
X0063327Y0091899D01*
X0063365Y0091796D01*
X0063400Y0091693D01*
X0063431Y0091588D01*
X0063459Y0091482D01*
X0063483Y0091375D01*
X0063503Y0091268D01*
X0063520Y0091160D01*
X0063533Y0091051D01*
X0063543Y0090943D01*
X0063548Y0090833D01*
X0063550Y0090724D01*
X0063550Y0082350D01*
X0065959Y0083341D02*
X0066950Y0082350D01*
X0065959Y0083340D02*
X0065886Y0083417D01*
X0065815Y0083495D01*
X0065746Y0083576D01*
X0065681Y0083660D01*
X0065618Y0083745D01*
X0065559Y0083833D01*
X0065502Y0083923D01*
X0065448Y0084014D01*
X0065398Y0084107D01*
X0065351Y0084202D01*
X0065307Y0084299D01*
X0065266Y0084397D01*
X0065229Y0084496D01*
X0065195Y0084597D01*
X0065165Y0084698D01*
X0065138Y0084801D01*
X0065115Y0084904D01*
X0065095Y0085008D01*
X0065079Y0085113D01*
X0065066Y0085218D01*
X0065057Y0085324D01*
X0065052Y0085430D01*
X0065050Y0085536D01*
X0065050Y0091057D01*
X0062612Y0092988D02*
X0061550Y0094050D01*
X0066106Y0093606D02*
X0066550Y0094050D01*
X0066106Y0093607D02*
X0066024Y0093522D01*
X0065945Y0093435D01*
X0065869Y0093345D01*
X0065795Y0093252D01*
X0065725Y0093157D01*
X0065658Y0093060D01*
X0065594Y0092961D01*
X0065533Y0092860D01*
X0065476Y0092757D01*
X0065422Y0092652D01*
X0065371Y0092545D01*
X0065324Y0092437D01*
X0065281Y0092327D01*
X0065241Y0092216D01*
X0065205Y0092104D01*
X0065173Y0091990D01*
X0065144Y0091876D01*
X0065119Y0091760D01*
X0065098Y0091644D01*
X0065081Y0091528D01*
X0065067Y0091410D01*
X0065058Y0091293D01*
X0065052Y0091175D01*
X0065050Y0091057D01*
X0061050Y0088240D02*
X0061048Y0088348D01*
X0061043Y0088456D01*
X0061033Y0088563D01*
X0061021Y0088671D01*
X0061004Y0088777D01*
X0060984Y0088883D01*
X0060960Y0088989D01*
X0060933Y0089093D01*
X0060902Y0089197D01*
X0060867Y0089299D01*
X0060830Y0089400D01*
X0060788Y0089500D01*
X0060744Y0089598D01*
X0060695Y0089695D01*
X0060644Y0089790D01*
X0060590Y0089883D01*
X0060532Y0089974D01*
X0060471Y0090063D01*
X0060407Y0090151D01*
X0060341Y0090235D01*
X0060271Y0090318D01*
X0060199Y0090398D01*
X0060124Y0090476D01*
X0065987Y0078650D02*
X0049910Y0078650D01*
X0050343Y0077450D02*
X0055241Y0077450D01*
X0056793Y0076807D02*
X0059479Y0074121D01*
X0059979Y0074121D01*
X0060452Y0074121D01*
X0054665Y0072625D02*
X0054612Y0072693D01*
X0054562Y0072762D01*
X0054514Y0072833D01*
X0054470Y0072907D01*
X0054429Y0072982D01*
X0054390Y0073059D01*
X0054356Y0073137D01*
X0054324Y0073217D01*
X0054296Y0073297D01*
X0054271Y0073379D01*
X0054249Y0073462D01*
X0054231Y0073546D01*
X0054217Y0073631D01*
X0054206Y0073716D01*
X0054198Y0073801D01*
X0054195Y0073887D01*
X0054194Y0073972D01*
X0054198Y0074058D01*
X0054250Y0074950D01*
X0050750Y0074545D02*
X0050752Y0074442D01*
X0050757Y0074339D01*
X0050767Y0074237D01*
X0050779Y0074134D01*
X0050796Y0074033D01*
X0050816Y0073932D01*
X0050840Y0073831D01*
X0050867Y0073732D01*
X0050898Y0073634D01*
X0050932Y0073536D01*
X0050970Y0073441D01*
X0051011Y0073346D01*
X0051055Y0073253D01*
X0051103Y0073162D01*
X0051154Y0073072D01*
X0051208Y0072985D01*
X0051265Y0072899D01*
X0051326Y0072815D01*
X0051389Y0072734D01*
X0051455Y0072655D01*
X0051524Y0072578D01*
X0051595Y0072504D01*
X0051595Y0072505D02*
X0053111Y0070989D01*
X0055185Y0071996D02*
X0055258Y0071904D01*
X0055328Y0071809D01*
X0055395Y0071713D01*
X0055459Y0071614D01*
X0055520Y0071513D01*
X0055577Y0071411D01*
X0055631Y0071306D01*
X0055682Y0071200D01*
X0055729Y0071092D01*
X0055772Y0070983D01*
X0055812Y0070872D01*
X0055848Y0070760D01*
X0055880Y0070647D01*
X0055909Y0070533D01*
X0055934Y0070418D01*
X0055955Y0070302D01*
X0055972Y0070186D01*
X0055986Y0070069D01*
X0055995Y0069952D01*
X0056001Y0069835D01*
X0056003Y0069717D01*
X0055185Y0071995D02*
X0054665Y0072626D01*
X0056793Y0076807D02*
X0056728Y0076870D01*
X0056660Y0076930D01*
X0056589Y0076987D01*
X0056516Y0077041D01*
X0056442Y0077093D01*
X0056365Y0077141D01*
X0056286Y0077185D01*
X0056205Y0077227D01*
X0056123Y0077265D01*
X0056039Y0077300D01*
X0055954Y0077331D01*
X0055867Y0077359D01*
X0055780Y0077383D01*
X0055691Y0077403D01*
X0055602Y0077420D01*
X0055513Y0077433D01*
X0055422Y0077443D01*
X0055332Y0077448D01*
X0055241Y0077450D01*
X0050343Y0077450D02*
X0050268Y0077448D01*
X0050193Y0077442D01*
X0050119Y0077432D01*
X0050045Y0077419D01*
X0049972Y0077401D01*
X0049900Y0077380D01*
X0049830Y0077355D01*
X0049761Y0077326D01*
X0049693Y0077294D01*
X0049627Y0077258D01*
X0049563Y0077219D01*
X0049501Y0077177D01*
X0049442Y0077131D01*
X0049385Y0077082D01*
X0049330Y0077031D01*
X0049331Y0077031D02*
X0048148Y0075848D01*
X0045878Y0077178D02*
X0045821Y0077118D01*
X0045766Y0077055D01*
X0045714Y0076990D01*
X0045666Y0076922D01*
X0045620Y0076852D01*
X0045578Y0076780D01*
X0045539Y0076707D01*
X0045504Y0076631D01*
X0045472Y0076554D01*
X0045443Y0076476D01*
X0045419Y0076396D01*
X0045398Y0076316D01*
X0045381Y0076234D01*
X0045367Y0076152D01*
X0045358Y0076069D01*
X0045352Y0075986D01*
X0045350Y0075903D01*
X0045350Y0065654D01*
X0041450Y0064373D02*
X0041452Y0064268D01*
X0041458Y0064162D01*
X0041467Y0064057D01*
X0041480Y0063953D01*
X0041497Y0063849D01*
X0041517Y0063745D01*
X0041542Y0063643D01*
X0041570Y0063541D01*
X0041601Y0063440D01*
X0041636Y0063341D01*
X0041675Y0063243D01*
X0041717Y0063146D01*
X0041762Y0063051D01*
X0041811Y0062958D01*
X0041863Y0062866D01*
X0041919Y0062776D01*
X0041977Y0062689D01*
X0042039Y0062603D01*
X0042104Y0062520D01*
X0042171Y0062439D01*
X0042242Y0062361D01*
X0042315Y0062285D01*
X0041450Y0064373D02*
X0041450Y0068594D01*
X0040250Y0068549D02*
X0040250Y0059627D01*
X0043207Y0060130D02*
X0043205Y0060239D01*
X0043199Y0060347D01*
X0043190Y0060456D01*
X0043176Y0060564D01*
X0043159Y0060671D01*
X0043137Y0060778D01*
X0043112Y0060884D01*
X0043084Y0060988D01*
X0043051Y0061092D01*
X0043015Y0061195D01*
X0042975Y0061296D01*
X0042932Y0061396D01*
X0042885Y0061494D01*
X0042834Y0061590D01*
X0042780Y0061685D01*
X0042723Y0061777D01*
X0042663Y0061868D01*
X0042599Y0061956D01*
X0042533Y0062042D01*
X0042463Y0062125D01*
X0042390Y0062206D01*
X0042315Y0062285D01*
X0043207Y0060130D02*
X0043207Y0059940D01*
X0040658Y0058642D02*
X0040608Y0058695D01*
X0040560Y0058750D01*
X0040516Y0058808D01*
X0040475Y0058868D01*
X0040437Y0058931D01*
X0040402Y0058995D01*
X0040370Y0059060D01*
X0040343Y0059128D01*
X0040318Y0059197D01*
X0040297Y0059266D01*
X0040280Y0059337D01*
X0040267Y0059409D01*
X0040258Y0059481D01*
X0040252Y0059554D01*
X0040250Y0059627D01*
X0039050Y0059119D02*
X0039052Y0059040D01*
X0039058Y0058961D01*
X0039067Y0058882D01*
X0039081Y0058804D01*
X0039098Y0058726D01*
X0039120Y0058650D01*
X0039144Y0058575D01*
X0039173Y0058501D01*
X0039205Y0058428D01*
X0039241Y0058357D01*
X0039280Y0058288D01*
X0039322Y0058221D01*
X0039368Y0058156D01*
X0039417Y0058094D01*
X0039469Y0058034D01*
X0039523Y0057976D01*
X0039523Y0057977D02*
X0041497Y0056003D01*
X0043207Y0056003D01*
X0043207Y0057971D02*
X0041329Y0057971D01*
X0040658Y0058642D01*
X0039050Y0059119D02*
X0039050Y0067939D01*
X0040250Y0068549D02*
X0040248Y0068644D01*
X0040243Y0068739D01*
X0040233Y0068833D01*
X0040220Y0068927D01*
X0040204Y0069021D01*
X0040183Y0069113D01*
X0040159Y0069205D01*
X0040132Y0069296D01*
X0040101Y0069386D01*
X0040066Y0069474D01*
X0040028Y0069561D01*
X0039987Y0069646D01*
X0039942Y0069730D01*
X0039894Y0069812D01*
X0039843Y0069892D01*
X0039788Y0069970D01*
X0039731Y0070045D01*
X0039671Y0070119D01*
X0039608Y0070190D01*
X0039542Y0070258D01*
X0036281Y0073519D01*
X0035567Y0072433D02*
X0038335Y0069665D01*
X0040349Y0071251D02*
X0040431Y0071167D01*
X0040511Y0071079D01*
X0040588Y0070989D01*
X0040661Y0070897D01*
X0040732Y0070803D01*
X0040800Y0070706D01*
X0040865Y0070608D01*
X0040927Y0070507D01*
X0040985Y0070404D01*
X0041040Y0070300D01*
X0041092Y0070194D01*
X0041141Y0070086D01*
X0041186Y0069977D01*
X0041228Y0069867D01*
X0041266Y0069755D01*
X0041301Y0069642D01*
X0041332Y0069529D01*
X0041359Y0069414D01*
X0041383Y0069298D01*
X0041404Y0069182D01*
X0041420Y0069065D01*
X0041433Y0068948D01*
X0041443Y0068830D01*
X0041448Y0068712D01*
X0041450Y0068594D01*
X0040349Y0071251D02*
X0036986Y0074614D01*
X0034484Y0075650D02*
X0030439Y0075650D01*
X0029932Y0074450D02*
X0029839Y0074452D01*
X0029746Y0074457D01*
X0029653Y0074466D01*
X0029561Y0074479D01*
X0029469Y0074496D01*
X0029379Y0074516D01*
X0029288Y0074539D01*
X0029199Y0074566D01*
X0029111Y0074597D01*
X0029025Y0074630D01*
X0028939Y0074668D01*
X0028856Y0074708D01*
X0028773Y0074752D01*
X0028693Y0074799D01*
X0028615Y0074850D01*
X0028538Y0074903D01*
X0028464Y0074959D01*
X0028392Y0075018D01*
X0028323Y0075080D01*
X0028255Y0075144D01*
X0028256Y0075144D02*
X0023118Y0080282D01*
X0022282Y0080282D01*
X0019158Y0076336D02*
X0019260Y0076236D01*
X0019364Y0076140D01*
X0019472Y0076047D01*
X0019582Y0075957D01*
X0019694Y0075869D01*
X0019809Y0075785D01*
X0019926Y0075705D01*
X0020046Y0075627D01*
X0020167Y0075553D01*
X0020291Y0075483D01*
X0020416Y0075416D01*
X0020543Y0075352D01*
X0020672Y0075292D01*
X0020803Y0075236D01*
X0020935Y0075183D01*
X0021069Y0075135D01*
X0021204Y0075090D01*
X0021340Y0075048D01*
X0021477Y0075011D01*
X0021615Y0074977D01*
X0021754Y0074947D01*
X0021894Y0074922D01*
X0022035Y0074900D01*
X0022176Y0074882D01*
X0022318Y0074868D01*
X0022460Y0074858D01*
X0022602Y0074852D01*
X0022744Y0074850D01*
X0025950Y0074850D01*
X0026034Y0074848D01*
X0026118Y0074843D01*
X0026202Y0074833D01*
X0026285Y0074821D01*
X0026368Y0074804D01*
X0026450Y0074784D01*
X0026531Y0074761D01*
X0026610Y0074734D01*
X0026689Y0074703D01*
X0026766Y0074669D01*
X0026842Y0074632D01*
X0026915Y0074591D01*
X0026988Y0074548D01*
X0027058Y0074501D01*
X0027126Y0074451D01*
X0027191Y0074398D01*
X0027255Y0074343D01*
X0027315Y0074284D01*
X0028921Y0076279D02*
X0027477Y0077723D01*
X0027316Y0074284D02*
X0027399Y0074204D01*
X0027485Y0074126D01*
X0027573Y0074052D01*
X0027663Y0073980D01*
X0027756Y0073911D01*
X0027851Y0073845D01*
X0027948Y0073782D01*
X0028047Y0073723D01*
X0028148Y0073667D01*
X0028251Y0073614D01*
X0028356Y0073565D01*
X0028462Y0073519D01*
X0028569Y0073476D01*
X0028678Y0073437D01*
X0028788Y0073402D01*
X0028899Y0073370D01*
X0029011Y0073342D01*
X0029124Y0073318D01*
X0029238Y0073297D01*
X0029352Y0073280D01*
X0029467Y0073267D01*
X0029582Y0073258D01*
X0029697Y0073252D01*
X0029813Y0073250D01*
X0033595Y0073250D01*
X0034034Y0074450D02*
X0029932Y0074450D01*
X0030439Y0075650D02*
X0030350Y0075652D01*
X0030262Y0075657D01*
X0030173Y0075666D01*
X0030086Y0075679D01*
X0029998Y0075696D01*
X0029912Y0075716D01*
X0029826Y0075739D01*
X0029742Y0075766D01*
X0029659Y0075797D01*
X0029577Y0075831D01*
X0029496Y0075868D01*
X0029417Y0075909D01*
X0029340Y0075953D01*
X0029265Y0076000D01*
X0029191Y0076050D01*
X0029120Y0076103D01*
X0029051Y0076159D01*
X0028985Y0076217D01*
X0028921Y0076279D01*
X0034484Y0075650D02*
X0034600Y0075648D01*
X0034715Y0075642D01*
X0034831Y0075633D01*
X0034946Y0075620D01*
X0035060Y0075603D01*
X0035174Y0075582D01*
X0035287Y0075558D01*
X0035400Y0075529D01*
X0035511Y0075498D01*
X0035621Y0075462D01*
X0035730Y0075423D01*
X0035838Y0075381D01*
X0035944Y0075335D01*
X0036049Y0075285D01*
X0036152Y0075232D01*
X0036253Y0075176D01*
X0036352Y0075116D01*
X0036450Y0075054D01*
X0036545Y0074988D01*
X0036638Y0074919D01*
X0036728Y0074847D01*
X0036817Y0074772D01*
X0036903Y0074694D01*
X0036986Y0074614D01*
X0039726Y0077974D02*
X0036262Y0081438D01*
X0036402Y0081398D01*
X0038002Y0082998D02*
X0040838Y0080162D01*
X0041350Y0079950D02*
X0043422Y0079950D01*
X0044742Y0078022D02*
X0044680Y0077963D01*
X0044616Y0077907D01*
X0044550Y0077854D01*
X0044481Y0077803D01*
X0044410Y0077756D01*
X0044337Y0077712D01*
X0044263Y0077671D01*
X0044186Y0077633D01*
X0044108Y0077599D01*
X0044029Y0077568D01*
X0043948Y0077540D01*
X0043866Y0077517D01*
X0043784Y0077496D01*
X0043700Y0077480D01*
X0043616Y0077467D01*
X0043531Y0077457D01*
X0043446Y0077452D01*
X0043361Y0077450D01*
X0040991Y0077450D01*
X0040908Y0077452D01*
X0040826Y0077458D01*
X0040744Y0077467D01*
X0040662Y0077480D01*
X0040581Y0077498D01*
X0040501Y0077518D01*
X0040422Y0077543D01*
X0040345Y0077571D01*
X0040268Y0077602D01*
X0040194Y0077638D01*
X0040120Y0077676D01*
X0040049Y0077718D01*
X0039980Y0077763D01*
X0039913Y0077811D01*
X0039848Y0077863D01*
X0039786Y0077917D01*
X0039726Y0077974D01*
X0040838Y0080162D02*
X0040876Y0080127D01*
X0040916Y0080094D01*
X0040959Y0080065D01*
X0041003Y0080039D01*
X0041049Y0080015D01*
X0041097Y0079996D01*
X0041146Y0079979D01*
X0041196Y0079967D01*
X0041247Y0079957D01*
X0041298Y0079952D01*
X0041350Y0079950D01*
X0043422Y0079950D02*
X0043509Y0079952D01*
X0043596Y0079958D01*
X0043683Y0079967D01*
X0043769Y0079980D01*
X0043855Y0079997D01*
X0043940Y0080018D01*
X0044023Y0080043D01*
X0044106Y0080071D01*
X0044187Y0080102D01*
X0044267Y0080137D01*
X0044345Y0080176D01*
X0044422Y0080218D01*
X0044497Y0080263D01*
X0044569Y0080312D01*
X0044640Y0080363D01*
X0044708Y0080418D01*
X0044773Y0080475D01*
X0044836Y0080536D01*
X0045266Y0080966D01*
X0045770Y0082184D02*
X0045770Y0083644D01*
X0048329Y0082631D02*
X0048327Y0082534D01*
X0048321Y0082438D01*
X0048312Y0082341D01*
X0048299Y0082245D01*
X0048282Y0082150D01*
X0048261Y0082055D01*
X0048236Y0081962D01*
X0048208Y0081869D01*
X0048177Y0081777D01*
X0048141Y0081687D01*
X0048102Y0081599D01*
X0048060Y0081511D01*
X0048015Y0081426D01*
X0047966Y0081343D01*
X0047913Y0081261D01*
X0047858Y0081182D01*
X0047800Y0081104D01*
X0047738Y0081029D01*
X0047674Y0080957D01*
X0047607Y0080887D01*
X0044743Y0078022D01*
X0045878Y0077178D02*
X0047947Y0079247D01*
X0048612Y0078112D02*
X0048673Y0078171D01*
X0048737Y0078226D01*
X0048804Y0078279D01*
X0048872Y0078329D01*
X0048943Y0078375D01*
X0049017Y0078418D01*
X0049092Y0078458D01*
X0049168Y0078494D01*
X0049247Y0078526D01*
X0049327Y0078555D01*
X0049408Y0078580D01*
X0049490Y0078601D01*
X0049573Y0078619D01*
X0049656Y0078632D01*
X0049741Y0078642D01*
X0049825Y0078648D01*
X0049910Y0078650D01*
X0048330Y0082631D02*
X0048330Y0083644D01*
X0045770Y0082184D02*
X0045768Y0082104D01*
X0045763Y0082025D01*
X0045753Y0081946D01*
X0045741Y0081868D01*
X0045724Y0081790D01*
X0045704Y0081713D01*
X0045681Y0081637D01*
X0045654Y0081562D01*
X0045623Y0081488D01*
X0045589Y0081416D01*
X0045552Y0081346D01*
X0045512Y0081277D01*
X0045469Y0081211D01*
X0045422Y0081146D01*
X0045373Y0081084D01*
X0045321Y0081024D01*
X0045266Y0080966D01*
X0042917Y0083350D02*
X0043211Y0083644D01*
X0042917Y0083350D02*
X0041450Y0083350D01*
X0040850Y0083350D01*
X0039602Y0084598D01*
X0027476Y0077723D02*
X0027372Y0077829D01*
X0027272Y0077938D01*
X0027174Y0078050D01*
X0027079Y0078164D01*
X0026987Y0078280D01*
X0026899Y0078399D01*
X0026813Y0078520D01*
X0026731Y0078643D01*
X0026652Y0078769D01*
X0026576Y0078896D01*
X0026503Y0079025D01*
X0026434Y0079157D01*
X0026369Y0079290D01*
X0026307Y0079424D01*
X0026248Y0079560D01*
X0026193Y0079698D01*
X0026142Y0079837D01*
X0026094Y0079978D01*
X0026050Y0080119D01*
X0026010Y0080262D01*
X0025973Y0080406D01*
X0025941Y0080550D01*
X0025912Y0080696D01*
X0025887Y0080842D01*
X0025865Y0080989D01*
X0025848Y0081136D01*
X0025834Y0081284D01*
X0025825Y0081432D01*
X0025819Y0081580D01*
X0025817Y0081728D01*
X0025818Y0081728D02*
X0025818Y0083818D01*
X0018747Y0076747D02*
X0019158Y0076336D01*
X0033595Y0073250D02*
X0033699Y0073248D01*
X0033803Y0073242D01*
X0033907Y0073232D01*
X0034011Y0073219D01*
X0034114Y0073201D01*
X0034216Y0073180D01*
X0034317Y0073155D01*
X0034417Y0073126D01*
X0034516Y0073093D01*
X0034614Y0073057D01*
X0034710Y0073017D01*
X0034805Y0072974D01*
X0034898Y0072927D01*
X0034989Y0072876D01*
X0035079Y0072823D01*
X0035166Y0072765D01*
X0035251Y0072705D01*
X0035334Y0072642D01*
X0035414Y0072575D01*
X0035492Y0072505D01*
X0035567Y0072433D01*
X0036281Y0073519D02*
X0036203Y0073595D01*
X0036123Y0073667D01*
X0036040Y0073737D01*
X0035954Y0073804D01*
X0035867Y0073868D01*
X0035777Y0073929D01*
X0035685Y0073987D01*
X0035592Y0074042D01*
X0035496Y0074094D01*
X0035399Y0074142D01*
X0035300Y0074187D01*
X0035200Y0074228D01*
X0035098Y0074267D01*
X0034995Y0074301D01*
X0034891Y0074332D01*
X0034786Y0074360D01*
X0034681Y0074384D01*
X0034574Y0074404D01*
X0034467Y0074420D01*
X0034359Y0074433D01*
X0034251Y0074443D01*
X0034142Y0074448D01*
X0034034Y0074450D01*
X0038335Y0069665D02*
X0038401Y0069596D01*
X0038465Y0069524D01*
X0038526Y0069450D01*
X0038584Y0069374D01*
X0038639Y0069295D01*
X0038690Y0069214D01*
X0038739Y0069132D01*
X0038784Y0069047D01*
X0038826Y0068961D01*
X0038864Y0068873D01*
X0038899Y0068784D01*
X0038931Y0068693D01*
X0038958Y0068602D01*
X0038983Y0068509D01*
X0039003Y0068415D01*
X0039020Y0068321D01*
X0039033Y0068226D01*
X0039042Y0068131D01*
X0039048Y0068035D01*
X0039050Y0067939D01*
X0045777Y0064622D02*
X0045824Y0064573D01*
X0045869Y0064521D01*
X0045910Y0064466D01*
X0045949Y0064410D01*
X0045985Y0064351D01*
X0046018Y0064291D01*
X0046047Y0064230D01*
X0046073Y0064166D01*
X0046096Y0064102D01*
X0046115Y0064036D01*
X0046131Y0063970D01*
X0046144Y0063902D01*
X0046153Y0063835D01*
X0046158Y0063766D01*
X0046160Y0063698D01*
X0048129Y0063693D02*
X0048127Y0063786D01*
X0048122Y0063878D01*
X0048113Y0063971D01*
X0048100Y0064063D01*
X0048084Y0064154D01*
X0048064Y0064244D01*
X0048040Y0064334D01*
X0048013Y0064423D01*
X0047983Y0064511D01*
X0047949Y0064597D01*
X0047912Y0064682D01*
X0047872Y0064765D01*
X0047828Y0064847D01*
X0047781Y0064927D01*
X0047731Y0065005D01*
X0047678Y0065081D01*
X0047622Y0065155D01*
X0047563Y0065227D01*
X0047501Y0065296D01*
X0047437Y0065363D01*
X0045777Y0064622D02*
X0045728Y0064674D01*
X0045681Y0064728D01*
X0045637Y0064785D01*
X0045596Y0064843D01*
X0045558Y0064904D01*
X0045522Y0064966D01*
X0045490Y0065030D01*
X0045461Y0065096D01*
X0045435Y0065162D01*
X0045413Y0065230D01*
X0045394Y0065299D01*
X0045378Y0065369D01*
X0045366Y0065440D01*
X0045357Y0065511D01*
X0045352Y0065582D01*
X0045350Y0065654D01*
X0046550Y0067504D02*
X0046550Y0075395D01*
X0047750Y0074887D02*
X0047752Y0074958D01*
X0047757Y0075029D01*
X0047767Y0075100D01*
X0047780Y0075170D01*
X0047796Y0075239D01*
X0047817Y0075307D01*
X0047840Y0075374D01*
X0047868Y0075440D01*
X0047898Y0075504D01*
X0047932Y0075567D01*
X0047969Y0075628D01*
X0048010Y0075686D01*
X0048053Y0075743D01*
X0048099Y0075797D01*
X0048148Y0075849D01*
X0050750Y0074950D02*
X0050750Y0074545D01*
X0053111Y0070989D02*
X0053186Y0070911D01*
X0053258Y0070832D01*
X0053327Y0070749D01*
X0053394Y0070665D01*
X0053457Y0070578D01*
X0053518Y0070489D01*
X0053575Y0070398D01*
X0053629Y0070305D01*
X0053681Y0070210D01*
X0053728Y0070114D01*
X0053773Y0070016D01*
X0053814Y0069916D01*
X0053852Y0069816D01*
X0053886Y0069714D01*
X0053917Y0069610D01*
X0053944Y0069506D01*
X0053968Y0069401D01*
X0053988Y0069296D01*
X0054005Y0069189D01*
X0054017Y0069082D01*
X0054027Y0068975D01*
X0054032Y0068868D01*
X0054034Y0068760D01*
X0047437Y0065363D02*
X0047362Y0065441D01*
X0047290Y0065521D01*
X0047220Y0065604D01*
X0047154Y0065689D01*
X0047091Y0065777D01*
X0047031Y0065867D01*
X0046974Y0065959D01*
X0046920Y0066053D01*
X0046870Y0066149D01*
X0046824Y0066246D01*
X0046780Y0066345D01*
X0046741Y0066446D01*
X0046705Y0066548D01*
X0046673Y0066651D01*
X0046644Y0066755D01*
X0046619Y0066860D01*
X0046598Y0066966D01*
X0046581Y0067073D01*
X0046567Y0067180D01*
X0046558Y0067288D01*
X0046552Y0067396D01*
X0046550Y0067504D01*
X0048454Y0066146D02*
X0049436Y0065164D01*
X0052050Y0066160D02*
X0052048Y0066254D01*
X0052043Y0066348D01*
X0052033Y0066441D01*
X0052021Y0066534D01*
X0052004Y0066626D01*
X0051984Y0066718D01*
X0051960Y0066809D01*
X0051933Y0066899D01*
X0051902Y0066987D01*
X0051868Y0067075D01*
X0051830Y0067161D01*
X0051790Y0067245D01*
X0051745Y0067328D01*
X0051698Y0067409D01*
X0051647Y0067488D01*
X0051594Y0067565D01*
X0051537Y0067640D01*
X0051477Y0067712D01*
X0051415Y0067782D01*
X0051350Y0067850D01*
X0048129Y0063693D02*
X0048129Y0062893D01*
X0050097Y0063567D02*
X0050095Y0063660D01*
X0050089Y0063753D01*
X0050080Y0063846D01*
X0050066Y0063939D01*
X0050049Y0064030D01*
X0050028Y0064121D01*
X0050003Y0064211D01*
X0049975Y0064300D01*
X0049943Y0064388D01*
X0049907Y0064474D01*
X0049868Y0064559D01*
X0049825Y0064642D01*
X0049779Y0064723D01*
X0049729Y0064802D01*
X0049677Y0064879D01*
X0049621Y0064954D01*
X0049562Y0065026D01*
X0049500Y0065096D01*
X0049436Y0065164D01*
X0050097Y0063567D02*
X0050097Y0062893D01*
X0057971Y0064340D02*
X0057973Y0064415D01*
X0057978Y0064489D01*
X0057987Y0064564D01*
X0058000Y0064637D01*
X0058017Y0064710D01*
X0058037Y0064782D01*
X0058060Y0064853D01*
X0058087Y0064923D01*
X0058117Y0064992D01*
X0058151Y0065058D01*
X0058188Y0065123D01*
X0058228Y0065187D01*
X0058271Y0065248D01*
X0058317Y0065307D01*
X0058366Y0065363D01*
X0058417Y0065418D01*
X0060147Y0063100D02*
X0059940Y0062893D01*
X0060147Y0063100D02*
X0063100Y0063100D01*
X0064000Y0064000D02*
X0063255Y0064745D01*
X0064000Y0064000D02*
X0064094Y0063910D01*
X0064190Y0063822D01*
X0064289Y0063737D01*
X0064390Y0063655D01*
X0064494Y0063576D01*
X0064600Y0063500D01*
X0064708Y0063428D01*
X0064819Y0063359D01*
X0064931Y0063293D01*
X0065046Y0063231D01*
X0065162Y0063172D01*
X0065280Y0063117D01*
X0065399Y0063065D01*
X0065521Y0063017D01*
X0065643Y0062973D01*
X0065767Y0062932D01*
X0065892Y0062895D01*
X0066018Y0062862D01*
X0066145Y0062833D01*
X0066273Y0062808D01*
X0066401Y0062786D01*
X0066530Y0062768D01*
X0066660Y0062755D01*
X0066790Y0062745D01*
X0066920Y0062739D01*
X0067050Y0062737D01*
X0067180Y0062739D01*
X0067310Y0062745D01*
X0067440Y0062755D01*
X0067570Y0062768D01*
X0067699Y0062786D01*
X0067827Y0062808D01*
X0067955Y0062833D01*
X0068082Y0062862D01*
X0068208Y0062895D01*
X0068333Y0062932D01*
X0068457Y0062973D01*
X0068579Y0063017D01*
X0068701Y0063065D01*
X0068820Y0063117D01*
X0068938Y0063172D01*
X0069054Y0063231D01*
X0069169Y0063293D01*
X0069281Y0063359D01*
X0069392Y0063428D01*
X0069500Y0063500D01*
X0069606Y0063576D01*
X0069710Y0063655D01*
X0069811Y0063737D01*
X0069910Y0063822D01*
X0070006Y0063910D01*
X0070100Y0064000D01*
X0077187Y0071087D01*
X0078049Y0070149D02*
X0071000Y0063100D01*
X0071016Y0050249D02*
X0070740Y0050209D01*
X0070463Y0050175D01*
X0070186Y0050147D01*
X0069908Y0050125D01*
X0069629Y0050109D01*
X0069350Y0050100D01*
X0069071Y0050097D01*
X0072311Y0050350D02*
X0078050Y0050350D01*
X0078050Y0051550D02*
X0074332Y0051550D01*
X0075262Y0052750D02*
X0078050Y0052750D01*
X0078050Y0053950D02*
X0075849Y0053950D01*
X0074332Y0051550D02*
X0074202Y0051552D01*
X0074072Y0051558D01*
X0073943Y0051568D01*
X0073814Y0051581D01*
X0073685Y0051599D01*
X0073557Y0051620D01*
X0073429Y0051646D01*
X0073303Y0051675D01*
X0073177Y0051708D01*
X0073052Y0051745D01*
X0072929Y0051785D01*
X0072807Y0051829D01*
X0072686Y0051877D01*
X0072567Y0051929D01*
X0072449Y0051984D01*
X0072333Y0052043D01*
X0072219Y0052105D01*
X0072107Y0052170D01*
X0071997Y0052239D01*
X0071889Y0052311D01*
X0071783Y0052387D01*
X0071679Y0052465D01*
X0071578Y0052547D01*
X0071480Y0052632D01*
X0071384Y0052719D01*
X0071291Y0052810D01*
X0068746Y0055354D02*
X0068680Y0055417D01*
X0068611Y0055478D01*
X0068540Y0055536D01*
X0068467Y0055590D01*
X0068391Y0055642D01*
X0068313Y0055691D01*
X0068234Y0055736D01*
X0068152Y0055778D01*
X0068069Y0055816D01*
X0067985Y0055851D01*
X0067899Y0055883D01*
X0067811Y0055911D01*
X0067723Y0055935D01*
X0067634Y0055956D01*
X0067544Y0055973D01*
X0067453Y0055986D01*
X0067362Y0055995D01*
X0067271Y0056001D01*
X0067179Y0056003D01*
X0069178Y0058623D02*
X0069067Y0058717D01*
X0068953Y0058809D01*
X0068837Y0058897D01*
X0068718Y0058983D01*
X0068597Y0059065D01*
X0068474Y0059143D01*
X0068348Y0059219D01*
X0068221Y0059290D01*
X0068092Y0059359D01*
X0067961Y0059424D01*
X0067828Y0059485D01*
X0067694Y0059543D01*
X0067558Y0059597D01*
X0067421Y0059647D01*
X0067282Y0059694D01*
X0067143Y0059737D01*
X0067002Y0059776D01*
X0066860Y0059811D01*
X0066717Y0059842D01*
X0066573Y0059870D01*
X0066429Y0059894D01*
X0066284Y0059913D01*
X0066139Y0059929D01*
X0065993Y0059941D01*
X0065847Y0059949D01*
X0065701Y0059953D01*
X0065555Y0059952D01*
X0065409Y0059948D01*
X0065263Y0059940D01*
X0063100Y0063100D02*
X0063207Y0062997D01*
X0063316Y0062896D01*
X0063428Y0062799D01*
X0063543Y0062704D01*
X0063660Y0062613D01*
X0063780Y0062524D01*
X0063901Y0062439D01*
X0064025Y0062357D01*
X0064152Y0062279D01*
X0064280Y0062204D01*
X0064410Y0062132D01*
X0064542Y0062064D01*
X0064676Y0061999D01*
X0064811Y0061938D01*
X0064948Y0061880D01*
X0065086Y0061826D01*
X0065226Y0061776D01*
X0065367Y0061730D01*
X0065510Y0061687D01*
X0065653Y0061648D01*
X0065798Y0061613D01*
X0065943Y0061581D01*
X0066089Y0061554D01*
X0066236Y0061530D01*
X0066383Y0061511D01*
X0066531Y0061495D01*
X0066679Y0061483D01*
X0066827Y0061475D01*
X0066976Y0061471D01*
X0067124Y0061471D01*
X0067273Y0061475D01*
X0067421Y0061483D01*
X0067569Y0061495D01*
X0067717Y0061511D01*
X0067864Y0061530D01*
X0068011Y0061554D01*
X0068157Y0061581D01*
X0068302Y0061613D01*
X0068447Y0061648D01*
X0068590Y0061687D01*
X0068733Y0061730D01*
X0068874Y0061776D01*
X0069014Y0061826D01*
X0069152Y0061880D01*
X0069289Y0061938D01*
X0069424Y0061999D01*
X0069558Y0062064D01*
X0069690Y0062132D01*
X0069820Y0062204D01*
X0069948Y0062279D01*
X0070075Y0062357D01*
X0070199Y0062439D01*
X0070320Y0062524D01*
X0070440Y0062613D01*
X0070557Y0062704D01*
X0070672Y0062799D01*
X0070784Y0062896D01*
X0070893Y0062997D01*
X0071000Y0063100D01*
X0074121Y0059979D02*
X0077850Y0063708D01*
X0077850Y0065450D01*
X0084650Y0065472D02*
X0084650Y0056950D01*
X0083450Y0056950D02*
X0083450Y0073187D01*
X0084697Y0076196D02*
X0084756Y0076253D01*
X0084817Y0076307D01*
X0084881Y0076358D01*
X0084947Y0076407D01*
X0085015Y0076452D01*
X0085086Y0076495D01*
X0085157Y0076534D01*
X0085231Y0076570D01*
X0085306Y0076603D01*
X0085382Y0076633D01*
X0085460Y0076659D01*
X0085538Y0076682D01*
X0085618Y0076702D01*
X0085698Y0076717D01*
X0085779Y0076730D01*
X0085860Y0076739D01*
X0085942Y0076744D01*
X0086024Y0076746D01*
X0086024Y0076747D02*
X0087353Y0076747D01*
X0083275Y0079739D02*
X0083195Y0079657D01*
X0083118Y0079572D01*
X0083044Y0079485D01*
X0082973Y0079395D01*
X0082905Y0079303D01*
X0082840Y0079209D01*
X0082778Y0079113D01*
X0082719Y0079014D01*
X0082663Y0078914D01*
X0082611Y0078813D01*
X0082562Y0078709D01*
X0082516Y0078604D01*
X0082474Y0078498D01*
X0082436Y0078390D01*
X0082401Y0078281D01*
X0082369Y0078171D01*
X0082341Y0078060D01*
X0082317Y0077948D01*
X0082297Y0077835D01*
X0082280Y0077722D01*
X0082267Y0077608D01*
X0082257Y0077494D01*
X0082252Y0077379D01*
X0082250Y0077265D01*
X0083275Y0079739D02*
X0083818Y0080282D01*
X0080552Y0078848D02*
X0080606Y0078791D01*
X0080658Y0078732D01*
X0080707Y0078670D01*
X0080752Y0078607D01*
X0080795Y0078541D01*
X0080835Y0078473D01*
X0080872Y0078404D01*
X0080905Y0078333D01*
X0080935Y0078260D01*
X0080962Y0078186D01*
X0080985Y0078111D01*
X0081005Y0078035D01*
X0081021Y0077958D01*
X0081034Y0077881D01*
X0081043Y0077803D01*
X0081048Y0077725D01*
X0081050Y0077646D01*
X0084697Y0076197D02*
X0084607Y0076105D01*
X0084521Y0076010D01*
X0084437Y0075912D01*
X0084356Y0075812D01*
X0084278Y0075710D01*
X0084204Y0075605D01*
X0084132Y0075498D01*
X0084064Y0075389D01*
X0083999Y0075278D01*
X0083938Y0075165D01*
X0083880Y0075051D01*
X0083825Y0074934D01*
X0083774Y0074816D01*
X0083727Y0074697D01*
X0083683Y0074576D01*
X0083643Y0074453D01*
X0083606Y0074330D01*
X0083574Y0074206D01*
X0083545Y0074080D01*
X0083520Y0073954D01*
X0083498Y0073828D01*
X0083481Y0073700D01*
X0083467Y0073572D01*
X0083458Y0073444D01*
X0083452Y0073316D01*
X0083450Y0073187D01*
X0086942Y0070150D02*
X0090889Y0073211D01*
X0089550Y0071872D01*
X0086942Y0070150D02*
X0086825Y0070057D01*
X0086710Y0069960D01*
X0086597Y0069861D01*
X0086488Y0069759D01*
X0086380Y0069655D01*
X0086276Y0069547D01*
X0086174Y0069437D01*
X0086075Y0069325D01*
X0085979Y0069210D01*
X0085886Y0069092D01*
X0085796Y0068973D01*
X0085709Y0068851D01*
X0085625Y0068727D01*
X0085544Y0068601D01*
X0085467Y0068472D01*
X0085392Y0068342D01*
X0085321Y0068210D01*
X0085254Y0068077D01*
X0085190Y0067941D01*
X0085129Y0067804D01*
X0085071Y0067666D01*
X0085018Y0067526D01*
X0084968Y0067385D01*
X0084921Y0067242D01*
X0084878Y0067099D01*
X0084839Y0066954D01*
X0084803Y0066809D01*
X0084771Y0066662D01*
X0084743Y0066515D01*
X0084718Y0066368D01*
X0084697Y0066219D01*
X0084680Y0066070D01*
X0084667Y0065921D01*
X0084658Y0065772D01*
X0084652Y0065622D01*
X0084650Y0065472D01*
X0084650Y0056950D02*
X0084648Y0056791D01*
X0084642Y0056631D01*
X0084633Y0056472D01*
X0084619Y0056313D01*
X0084602Y0056154D01*
X0084581Y0055996D01*
X0084556Y0055839D01*
X0084527Y0055682D01*
X0084495Y0055526D01*
X0084458Y0055371D01*
X0084418Y0055216D01*
X0084374Y0055063D01*
X0084327Y0054910D01*
X0084276Y0054759D01*
X0084221Y0054610D01*
X0084163Y0054461D01*
X0084101Y0054314D01*
X0084035Y0054169D01*
X0083966Y0054025D01*
X0083894Y0053883D01*
X0083818Y0053743D01*
X0083739Y0053604D01*
X0083656Y0053468D01*
X0083571Y0053333D01*
X0083482Y0053201D01*
X0083390Y0053071D01*
X0083294Y0052943D01*
X0083196Y0052817D01*
X0083094Y0052694D01*
X0082990Y0052573D01*
X0082883Y0052455D01*
X0082773Y0052340D01*
X0082660Y0052227D01*
X0082545Y0052117D01*
X0082427Y0052010D01*
X0082306Y0051906D01*
X0082183Y0051804D01*
X0082057Y0051706D01*
X0081929Y0051610D01*
X0081799Y0051518D01*
X0081667Y0051429D01*
X0081532Y0051344D01*
X0081396Y0051261D01*
X0081257Y0051182D01*
X0081117Y0051106D01*
X0080975Y0051034D01*
X0080831Y0050965D01*
X0080686Y0050899D01*
X0080539Y0050837D01*
X0080390Y0050779D01*
X0080241Y0050724D01*
X0080090Y0050673D01*
X0079937Y0050626D01*
X0079784Y0050582D01*
X0079629Y0050542D01*
X0079474Y0050505D01*
X0079318Y0050473D01*
X0079161Y0050444D01*
X0079004Y0050419D01*
X0078846Y0050398D01*
X0078687Y0050381D01*
X0078528Y0050367D01*
X0078369Y0050358D01*
X0078209Y0050352D01*
X0078050Y0050350D01*
X0073850Y0045887D02*
X0071487Y0045887D01*
X0071050Y0045450D01*
X0071050Y0037450D01*
X0068681Y0034950D02*
X0068588Y0034952D01*
X0068495Y0034958D01*
X0068403Y0034967D01*
X0068311Y0034981D01*
X0068220Y0034998D01*
X0068129Y0035019D01*
X0068040Y0035043D01*
X0067951Y0035072D01*
X0067864Y0035104D01*
X0067778Y0035139D01*
X0067694Y0035178D01*
X0067612Y0035221D01*
X0067531Y0035267D01*
X0067452Y0035316D01*
X0067375Y0035368D01*
X0067301Y0035424D01*
X0067229Y0035482D01*
X0067159Y0035544D01*
X0067092Y0035608D01*
X0066730Y0034071D02*
X0066799Y0034004D01*
X0066871Y0033939D01*
X0066946Y0033878D01*
X0067023Y0033820D01*
X0067102Y0033765D01*
X0067184Y0033713D01*
X0067267Y0033664D01*
X0067352Y0033618D01*
X0067439Y0033576D01*
X0067528Y0033537D01*
X0067618Y0033502D01*
X0067709Y0033470D01*
X0067801Y0033442D01*
X0067895Y0033418D01*
X0067989Y0033397D01*
X0068084Y0033380D01*
X0068180Y0033367D01*
X0068276Y0033358D01*
X0068372Y0033352D01*
X0068469Y0033350D01*
X0071873Y0033350D01*
X0073141Y0034950D02*
X0068681Y0034950D01*
X0068173Y0031750D02*
X0068076Y0031752D01*
X0067979Y0031758D01*
X0067883Y0031767D01*
X0067787Y0031780D01*
X0067691Y0031797D01*
X0067596Y0031818D01*
X0067503Y0031843D01*
X0067410Y0031871D01*
X0067318Y0031903D01*
X0067228Y0031938D01*
X0067139Y0031977D01*
X0067052Y0032019D01*
X0066966Y0032065D01*
X0066882Y0032114D01*
X0066801Y0032166D01*
X0066721Y0032222D01*
X0066644Y0032280D01*
X0066569Y0032342D01*
X0066496Y0032406D01*
X0066426Y0032473D01*
X0068173Y0031750D02*
X0071026Y0031750D01*
X0073141Y0034950D02*
X0073260Y0034948D01*
X0073379Y0034943D01*
X0073497Y0034933D01*
X0073615Y0034920D01*
X0073733Y0034903D01*
X0073850Y0034883D01*
X0073966Y0034859D01*
X0074082Y0034831D01*
X0074196Y0034800D01*
X0074310Y0034765D01*
X0074422Y0034726D01*
X0074534Y0034684D01*
X0074643Y0034639D01*
X0074752Y0034590D01*
X0074858Y0034538D01*
X0074963Y0034482D01*
X0075067Y0034423D01*
X0075168Y0034361D01*
X0075267Y0034296D01*
X0075365Y0034228D01*
X0075460Y0034156D01*
X0075552Y0034082D01*
X0075643Y0034005D01*
X0075731Y0033925D01*
X0075816Y0033842D01*
X0076329Y0033329D01*
X0076329Y0033519D01*
X0082319Y0039510D01*
X0084129Y0037700D02*
X0080450Y0034021D01*
X0080450Y0032950D01*
X0076329Y0033329D02*
X0083818Y0025818D01*
X0080282Y0025317D02*
X0080282Y0022282D01*
X0080283Y0025317D02*
X0080281Y0025420D01*
X0080276Y0025524D01*
X0080266Y0025627D01*
X0080253Y0025730D01*
X0080237Y0025832D01*
X0080217Y0025933D01*
X0080193Y0026034D01*
X0080166Y0026134D01*
X0080135Y0026233D01*
X0080100Y0026330D01*
X0080062Y0026426D01*
X0080021Y0026521D01*
X0079976Y0026615D01*
X0079928Y0026706D01*
X0079877Y0026796D01*
X0079823Y0026884D01*
X0079765Y0026970D01*
X0079705Y0027054D01*
X0079641Y0027136D01*
X0079575Y0027215D01*
X0079506Y0027292D01*
X0079434Y0027367D01*
X0079433Y0027367D02*
X0074565Y0032235D01*
X0073115Y0030885D02*
X0076747Y0027253D01*
X0076747Y0026250D01*
X0076747Y0018747D01*
X0069259Y0029150D02*
X0069167Y0029148D01*
X0069076Y0029142D01*
X0068985Y0029133D01*
X0068894Y0029120D01*
X0068804Y0029103D01*
X0068715Y0029082D01*
X0068626Y0029058D01*
X0068539Y0029030D01*
X0068453Y0028998D01*
X0068368Y0028963D01*
X0068285Y0028925D01*
X0068204Y0028883D01*
X0068124Y0028838D01*
X0068046Y0028789D01*
X0067971Y0028737D01*
X0067897Y0028683D01*
X0067826Y0028625D01*
X0067757Y0028564D01*
X0067691Y0028501D01*
X0064781Y0025590D01*
X0062971Y0027400D02*
X0065022Y0029450D01*
X0065550Y0030725D02*
X0065548Y0030806D01*
X0065543Y0030886D01*
X0065533Y0030967D01*
X0065520Y0031046D01*
X0065504Y0031125D01*
X0065483Y0031204D01*
X0065459Y0031281D01*
X0065432Y0031357D01*
X0065401Y0031431D01*
X0065367Y0031505D01*
X0065329Y0031576D01*
X0065288Y0031646D01*
X0065244Y0031713D01*
X0065197Y0031779D01*
X0065147Y0031842D01*
X0065094Y0031903D01*
X0065038Y0031962D01*
X0065550Y0030725D02*
X0065548Y0030642D01*
X0065542Y0030559D01*
X0065533Y0030476D01*
X0065519Y0030394D01*
X0065502Y0030312D01*
X0065481Y0030232D01*
X0065457Y0030152D01*
X0065428Y0030074D01*
X0065396Y0029997D01*
X0065361Y0029921D01*
X0065322Y0029848D01*
X0065280Y0029776D01*
X0065234Y0029706D01*
X0065186Y0029638D01*
X0065134Y0029573D01*
X0065079Y0029510D01*
X0065022Y0029450D01*
X0069259Y0029150D02*
X0070250Y0029150D01*
X0071026Y0031750D02*
X0071131Y0031748D01*
X0071237Y0031742D01*
X0071342Y0031733D01*
X0071447Y0031720D01*
X0071551Y0031703D01*
X0071654Y0031682D01*
X0071757Y0031658D01*
X0071859Y0031630D01*
X0071959Y0031599D01*
X0072059Y0031564D01*
X0072157Y0031525D01*
X0072254Y0031483D01*
X0072349Y0031437D01*
X0072442Y0031389D01*
X0072534Y0031336D01*
X0072624Y0031281D01*
X0072711Y0031222D01*
X0072797Y0031161D01*
X0072880Y0031096D01*
X0072961Y0031028D01*
X0073040Y0030958D01*
X0073115Y0030885D01*
X0074566Y0032235D02*
X0074480Y0032318D01*
X0074391Y0032398D01*
X0074300Y0032476D01*
X0074207Y0032551D01*
X0074111Y0032623D01*
X0074013Y0032692D01*
X0073913Y0032757D01*
X0073811Y0032820D01*
X0073708Y0032879D01*
X0073602Y0032935D01*
X0073494Y0032988D01*
X0073385Y0033037D01*
X0073275Y0033083D01*
X0073163Y0033125D01*
X0073050Y0033164D01*
X0072935Y0033199D01*
X0072820Y0033230D01*
X0072704Y0033258D01*
X0072587Y0033283D01*
X0072469Y0033303D01*
X0072350Y0033320D01*
X0072231Y0033333D01*
X0072112Y0033342D01*
X0071993Y0033348D01*
X0071873Y0033350D01*
X0071016Y0050249D02*
X0071200Y0050276D01*
X0071384Y0050298D01*
X0071569Y0050317D01*
X0071754Y0050331D01*
X0071940Y0050342D01*
X0072125Y0050348D01*
X0072311Y0050350D01*
X0078050Y0052750D02*
X0078177Y0052752D01*
X0078304Y0052758D01*
X0078430Y0052767D01*
X0078556Y0052781D01*
X0078682Y0052798D01*
X0078807Y0052819D01*
X0078932Y0052844D01*
X0079055Y0052872D01*
X0079178Y0052904D01*
X0079300Y0052940D01*
X0079420Y0052980D01*
X0079539Y0053023D01*
X0079657Y0053070D01*
X0079774Y0053120D01*
X0079889Y0053174D01*
X0080002Y0053231D01*
X0080113Y0053292D01*
X0080223Y0053356D01*
X0080330Y0053423D01*
X0080436Y0053493D01*
X0080539Y0053567D01*
X0080640Y0053644D01*
X0080739Y0053724D01*
X0080835Y0053806D01*
X0080929Y0053892D01*
X0081020Y0053980D01*
X0081108Y0054071D01*
X0081194Y0054165D01*
X0081276Y0054261D01*
X0081356Y0054360D01*
X0081433Y0054461D01*
X0081507Y0054564D01*
X0081577Y0054670D01*
X0081644Y0054777D01*
X0081708Y0054887D01*
X0081769Y0054998D01*
X0081826Y0055111D01*
X0081880Y0055226D01*
X0081930Y0055343D01*
X0081977Y0055461D01*
X0082020Y0055580D01*
X0082060Y0055700D01*
X0082096Y0055822D01*
X0082128Y0055945D01*
X0082156Y0056068D01*
X0082181Y0056193D01*
X0082202Y0056318D01*
X0082219Y0056444D01*
X0082233Y0056570D01*
X0082242Y0056696D01*
X0082248Y0056823D01*
X0082250Y0056950D01*
X0081050Y0056950D02*
X0081048Y0056843D01*
X0081042Y0056736D01*
X0081033Y0056629D01*
X0081019Y0056523D01*
X0081002Y0056417D01*
X0080981Y0056312D01*
X0080957Y0056208D01*
X0080928Y0056105D01*
X0080896Y0056003D01*
X0080861Y0055902D01*
X0080822Y0055802D01*
X0080779Y0055704D01*
X0080733Y0055607D01*
X0080683Y0055512D01*
X0080630Y0055419D01*
X0080574Y0055328D01*
X0080514Y0055239D01*
X0080452Y0055152D01*
X0080386Y0055068D01*
X0080317Y0054985D01*
X0080246Y0054906D01*
X0080171Y0054829D01*
X0080094Y0054754D01*
X0080015Y0054683D01*
X0079932Y0054614D01*
X0079848Y0054548D01*
X0079761Y0054486D01*
X0079672Y0054426D01*
X0079581Y0054370D01*
X0079488Y0054317D01*
X0079393Y0054267D01*
X0079296Y0054221D01*
X0079198Y0054178D01*
X0079098Y0054139D01*
X0078997Y0054104D01*
X0078895Y0054072D01*
X0078792Y0054043D01*
X0078688Y0054019D01*
X0078583Y0053998D01*
X0078477Y0053981D01*
X0078371Y0053967D01*
X0078264Y0053958D01*
X0078157Y0053952D01*
X0078050Y0053950D01*
X0078050Y0051550D02*
X0078196Y0051552D01*
X0078342Y0051558D01*
X0078488Y0051568D01*
X0078634Y0051582D01*
X0078779Y0051599D01*
X0078924Y0051621D01*
X0079068Y0051647D01*
X0079211Y0051676D01*
X0079353Y0051710D01*
X0079495Y0051747D01*
X0079635Y0051788D01*
X0079774Y0051833D01*
X0079912Y0051881D01*
X0080049Y0051934D01*
X0080184Y0051989D01*
X0080317Y0052049D01*
X0080449Y0052112D01*
X0080579Y0052179D01*
X0080708Y0052249D01*
X0080834Y0052323D01*
X0080958Y0052400D01*
X0081080Y0052480D01*
X0081200Y0052564D01*
X0081318Y0052651D01*
X0081433Y0052741D01*
X0081546Y0052834D01*
X0081656Y0052931D01*
X0081764Y0053030D01*
X0081868Y0053132D01*
X0081970Y0053236D01*
X0082069Y0053344D01*
X0082166Y0053454D01*
X0082259Y0053567D01*
X0082349Y0053682D01*
X0082436Y0053800D01*
X0082520Y0053920D01*
X0082600Y0054042D01*
X0082677Y0054166D01*
X0082751Y0054292D01*
X0082821Y0054421D01*
X0082888Y0054551D01*
X0082951Y0054683D01*
X0083011Y0054816D01*
X0083066Y0054951D01*
X0083119Y0055088D01*
X0083167Y0055226D01*
X0083212Y0055365D01*
X0083253Y0055505D01*
X0083290Y0055647D01*
X0083324Y0055789D01*
X0083353Y0055932D01*
X0083379Y0056076D01*
X0083401Y0056221D01*
X0083418Y0056366D01*
X0083432Y0056512D01*
X0083442Y0056658D01*
X0083448Y0056804D01*
X0083450Y0056950D01*
X0075849Y0053950D02*
X0075719Y0053945D01*
X0075589Y0053943D01*
X0075459Y0053945D01*
X0075329Y0053951D01*
X0075199Y0053961D01*
X0075070Y0053974D01*
X0074941Y0053992D01*
X0074813Y0054013D01*
X0074685Y0054037D01*
X0074558Y0054066D01*
X0074432Y0054098D01*
X0074307Y0054134D01*
X0074183Y0054173D01*
X0074060Y0054216D01*
X0073939Y0054263D01*
X0073819Y0054313D01*
X0073700Y0054366D01*
X0073584Y0054423D01*
X0073468Y0054483D01*
X0073355Y0054547D01*
X0073243Y0054614D01*
X0073134Y0054684D01*
X0073026Y0054757D01*
X0072921Y0054834D01*
X0072818Y0054913D01*
X0072717Y0054995D01*
X0072619Y0055081D01*
X0071656Y0054243D02*
X0071755Y0054147D01*
X0071857Y0054054D01*
X0071961Y0053963D01*
X0072067Y0053875D01*
X0072176Y0053790D01*
X0072287Y0053708D01*
X0072401Y0053629D01*
X0072516Y0053553D01*
X0072633Y0053480D01*
X0072752Y0053410D01*
X0072874Y0053344D01*
X0072996Y0053281D01*
X0073121Y0053221D01*
X0073247Y0053165D01*
X0073375Y0053112D01*
X0073504Y0053063D01*
X0073634Y0053017D01*
X0073765Y0052975D01*
X0073898Y0052936D01*
X0074031Y0052901D01*
X0074166Y0052869D01*
X0074301Y0052841D01*
X0074437Y0052817D01*
X0074574Y0052797D01*
X0074711Y0052780D01*
X0074848Y0052767D01*
X0074986Y0052757D01*
X0075124Y0052752D01*
X0075262Y0052750D01*
X0062892Y0041407D02*
X0062894Y0041286D01*
X0062900Y0041164D01*
X0062909Y0041043D01*
X0062922Y0040923D01*
X0062940Y0040803D01*
X0062960Y0040683D01*
X0062985Y0040564D01*
X0063013Y0040446D01*
X0063045Y0040329D01*
X0063081Y0040213D01*
X0063120Y0040098D01*
X0063163Y0039985D01*
X0063210Y0039873D01*
X0063260Y0039762D01*
X0063313Y0039653D01*
X0063370Y0039546D01*
X0063430Y0039441D01*
X0063493Y0039337D01*
X0063560Y0039236D01*
X0063630Y0039136D01*
X0063703Y0039039D01*
X0063779Y0038945D01*
X0063857Y0038852D01*
X0063939Y0038763D01*
X0064023Y0038675D01*
X0060779Y0040019D02*
X0060708Y0040093D01*
X0060640Y0040169D01*
X0060574Y0040248D01*
X0060511Y0040329D01*
X0060451Y0040412D01*
X0060394Y0040497D01*
X0060341Y0040584D01*
X0060290Y0040673D01*
X0060242Y0040764D01*
X0060198Y0040856D01*
X0060157Y0040950D01*
X0060120Y0041045D01*
X0060086Y0041142D01*
X0060055Y0041240D01*
X0060028Y0041338D01*
X0060005Y0041438D01*
X0059985Y0041539D01*
X0059968Y0041640D01*
X0059955Y0041741D01*
X0059946Y0041843D01*
X0059941Y0041946D01*
X0059939Y0042048D01*
X0054034Y0040957D02*
X0054034Y0043207D01*
X0052066Y0043207D02*
X0052066Y0040763D01*
X0054035Y0040957D02*
X0054033Y0040778D01*
X0054026Y0040599D01*
X0054015Y0040420D01*
X0054000Y0040242D01*
X0053980Y0040064D01*
X0053956Y0039886D01*
X0053928Y0039709D01*
X0053895Y0039533D01*
X0053858Y0039358D01*
X0053816Y0039184D01*
X0053771Y0039011D01*
X0053721Y0038839D01*
X0053667Y0038668D01*
X0053608Y0038498D01*
X0053546Y0038330D01*
X0053479Y0038164D01*
X0053409Y0038000D01*
X0053334Y0037837D01*
X0053256Y0037676D01*
X0053173Y0037517D01*
X0053087Y0037360D01*
X0052997Y0037205D01*
X0052903Y0037053D01*
X0052805Y0036902D01*
X0052704Y0036755D01*
X0052599Y0036610D01*
X0052490Y0036467D01*
X0052378Y0036327D01*
X0052263Y0036190D01*
X0052144Y0036056D01*
X0052023Y0035925D01*
X0051897Y0035797D01*
X0050366Y0036675D02*
X0050472Y0036783D01*
X0050575Y0036894D01*
X0050676Y0037007D01*
X0050773Y0037124D01*
X0050867Y0037242D01*
X0050958Y0037364D01*
X0051045Y0037487D01*
X0051130Y0037613D01*
X0051211Y0037741D01*
X0051288Y0037871D01*
X0051363Y0038003D01*
X0051433Y0038137D01*
X0051501Y0038273D01*
X0051564Y0038410D01*
X0051624Y0038549D01*
X0051680Y0038690D01*
X0051733Y0038832D01*
X0051782Y0038975D01*
X0051827Y0039120D01*
X0051868Y0039266D01*
X0051906Y0039412D01*
X0051939Y0039560D01*
X0051969Y0039709D01*
X0051995Y0039858D01*
X0052016Y0040008D01*
X0052034Y0040158D01*
X0052048Y0040309D01*
X0052058Y0040460D01*
X0052064Y0040612D01*
X0052066Y0040763D01*
X0046160Y0041534D02*
X0046160Y0043207D01*
X0048129Y0041203D02*
X0048127Y0041069D01*
X0048122Y0040936D01*
X0048112Y0040802D01*
X0048099Y0040669D01*
X0048082Y0040537D01*
X0048062Y0040405D01*
X0048037Y0040273D01*
X0048010Y0040142D01*
X0047978Y0040013D01*
X0047943Y0039884D01*
X0047904Y0039756D01*
X0047862Y0039629D01*
X0047816Y0039503D01*
X0047766Y0039379D01*
X0047713Y0039256D01*
X0047657Y0039135D01*
X0047597Y0039015D01*
X0047534Y0038898D01*
X0047468Y0038782D01*
X0047398Y0038667D01*
X0047326Y0038555D01*
X0047250Y0038445D01*
X0047171Y0038337D01*
X0047089Y0038231D01*
X0047004Y0038128D01*
X0046917Y0038027D01*
X0046826Y0037929D01*
X0046733Y0037833D01*
X0039372Y0048129D02*
X0039158Y0048132D01*
X0038945Y0048139D01*
X0038732Y0048152D01*
X0038519Y0048170D01*
X0038306Y0048194D01*
X0038095Y0048222D01*
X0037884Y0048256D01*
X0037673Y0048294D01*
X0037464Y0048338D01*
X0037256Y0048387D01*
X0037050Y0048441D01*
X0036844Y0048500D01*
X0036640Y0048563D01*
X0068750Y0076398D02*
X0068748Y0076480D01*
X0068743Y0076563D01*
X0068734Y0076645D01*
X0068721Y0076726D01*
X0068705Y0076807D01*
X0068686Y0076887D01*
X0068662Y0076967D01*
X0068636Y0077045D01*
X0068606Y0077122D01*
X0068573Y0077197D01*
X0068536Y0077271D01*
X0068497Y0077344D01*
X0068454Y0077414D01*
X0068408Y0077483D01*
X0068359Y0077549D01*
X0068308Y0077614D01*
X0068253Y0077676D01*
X0068196Y0077735D01*
X0068750Y0076398D02*
X0068750Y0076150D01*
X0078003Y0079097D02*
X0078111Y0078986D01*
X0078216Y0078873D01*
X0078319Y0078757D01*
X0078418Y0078638D01*
X0078515Y0078517D01*
X0078609Y0078394D01*
X0078700Y0078269D01*
X0078787Y0078141D01*
X0078871Y0078011D01*
X0078953Y0077879D01*
X0079031Y0077746D01*
X0079105Y0077610D01*
X0079177Y0077473D01*
X0079244Y0077334D01*
X0079309Y0077193D01*
X0079370Y0077051D01*
X0079427Y0076907D01*
X0079481Y0076762D01*
X0079532Y0076615D01*
X0079578Y0076468D01*
X0079622Y0076319D01*
X0079661Y0076169D01*
X0079697Y0076019D01*
X0079729Y0075867D01*
X0079757Y0075715D01*
X0079782Y0075562D01*
X0079803Y0075409D01*
X0079820Y0075255D01*
X0079833Y0075101D01*
X0079842Y0074946D01*
X0079848Y0074792D01*
X0079850Y0074637D01*
X0079850Y0074497D02*
X0079848Y0074341D01*
X0079842Y0074186D01*
X0079832Y0074030D01*
X0079818Y0073875D01*
X0079801Y0073720D01*
X0079779Y0073566D01*
X0079754Y0073412D01*
X0079724Y0073259D01*
X0079691Y0073107D01*
X0079654Y0072956D01*
X0079613Y0072805D01*
X0079568Y0072656D01*
X0079519Y0072508D01*
X0079467Y0072361D01*
X0079411Y0072216D01*
X0079352Y0072072D01*
X0079288Y0071930D01*
X0079222Y0071789D01*
X0079151Y0071650D01*
X0079077Y0071513D01*
X0079000Y0071378D01*
X0078919Y0071244D01*
X0078835Y0071113D01*
X0078748Y0070984D01*
X0078657Y0070858D01*
X0078563Y0070733D01*
X0078467Y0070611D01*
X0078367Y0070492D01*
X0078264Y0070375D01*
X0078158Y0070261D01*
X0078049Y0070149D01*
X0078500Y0074256D02*
X0078498Y0074394D01*
X0078492Y0074533D01*
X0078483Y0074671D01*
X0078469Y0074808D01*
X0078452Y0074946D01*
X0078430Y0075082D01*
X0078405Y0075219D01*
X0078376Y0075354D01*
X0078344Y0075488D01*
X0078307Y0075622D01*
X0078267Y0075754D01*
X0078223Y0075886D01*
X0078176Y0076016D01*
X0078124Y0076144D01*
X0078070Y0076271D01*
X0078011Y0076397D01*
X0077950Y0076521D01*
X0077884Y0076643D01*
X0077816Y0076763D01*
X0077744Y0076881D01*
X0077668Y0076997D01*
X0077590Y0077111D01*
X0077508Y0077223D01*
X0077424Y0077332D01*
X0077336Y0077439D01*
X0077245Y0077544D01*
X0077151Y0077646D01*
X0077055Y0077745D01*
D24*
X0071249Y0081458D02*
X0069950Y0081936D01*
X0069950Y0083593D01*
X0068193Y0085350D01*
X0067168Y0085350D01*
X0067150Y0085536D01*
X0067150Y0090250D01*
X0067306Y0090250D01*
X0068703Y0090829D01*
X0069411Y0091537D01*
X0069411Y0090133D01*
X0069990Y0088736D01*
X0071059Y0087667D01*
X0071111Y0087646D01*
X0071111Y0081790D01*
X0071249Y0081458D01*
X0071111Y0082103D02*
X0069950Y0082103D01*
X0069950Y0082901D02*
X0071111Y0082901D01*
X0071111Y0083700D02*
X0069843Y0083700D01*
X0069044Y0084498D02*
X0071111Y0084498D01*
X0071111Y0085297D02*
X0068246Y0085297D01*
X0067150Y0086095D02*
X0071111Y0086095D01*
X0071111Y0086894D02*
X0067150Y0086894D01*
X0067150Y0087692D02*
X0071034Y0087692D01*
X0070235Y0088491D02*
X0067150Y0088491D01*
X0067150Y0089289D02*
X0069761Y0089289D01*
X0069430Y0090088D02*
X0067150Y0090088D01*
X0068760Y0090886D02*
X0069411Y0090886D01*
X0058930Y0088447D02*
X0058950Y0088240D01*
X0058950Y0082925D01*
X0058940Y0082829D01*
X0058866Y0082650D01*
X0058805Y0082575D01*
X0058180Y0081950D01*
X0052444Y0081950D01*
X0052577Y0082181D01*
X0052679Y0082562D01*
X0052679Y0083644D01*
X0050889Y0083644D01*
X0050889Y0083645D01*
X0052679Y0083645D01*
X0052679Y0084727D01*
X0052577Y0085107D01*
X0052380Y0085448D01*
X0052102Y0085727D01*
X0052016Y0085777D01*
X0052029Y0085784D01*
X0052390Y0086145D01*
X0052645Y0086587D01*
X0052778Y0087080D01*
X0052778Y0089150D01*
X0047450Y0089150D01*
X0047450Y0089950D01*
X0046650Y0089950D01*
X0046650Y0093180D01*
X0046984Y0093373D01*
X0047050Y0093439D01*
X0047116Y0093373D01*
X0047450Y0093180D01*
X0047450Y0089950D01*
X0052778Y0089950D01*
X0052778Y0092020D01*
X0052645Y0092513D01*
X0052390Y0092955D01*
X0052029Y0093315D01*
X0052016Y0093323D01*
X0052102Y0093373D01*
X0052380Y0093652D01*
X0052577Y0093993D01*
X0052679Y0094373D01*
X0052679Y0095455D01*
X0050889Y0095455D01*
X0050889Y0095456D01*
X0052679Y0095456D01*
X0052679Y0096538D01*
X0052577Y0096918D01*
X0052530Y0097000D01*
X0054126Y0097000D01*
X0053329Y0096203D01*
X0052750Y0094806D01*
X0052750Y0093294D01*
X0053329Y0091897D01*
X0054397Y0090829D01*
X0055794Y0090250D01*
X0057306Y0090250D01*
X0057358Y0090272D01*
X0058024Y0089606D01*
X0058639Y0088991D01*
X0058771Y0088830D01*
X0058930Y0088447D01*
X0058912Y0088491D02*
X0052778Y0088491D01*
X0052778Y0087692D02*
X0058950Y0087692D01*
X0058950Y0086894D02*
X0052728Y0086894D01*
X0052340Y0086095D02*
X0058950Y0086095D01*
X0058950Y0085297D02*
X0052468Y0085297D01*
X0052679Y0084498D02*
X0058950Y0084498D01*
X0058950Y0083700D02*
X0052679Y0083700D01*
X0052679Y0082901D02*
X0058948Y0082901D01*
X0058333Y0082103D02*
X0052532Y0082103D01*
X0047450Y0086626D02*
X0047450Y0089150D01*
X0046650Y0089150D01*
X0043050Y0089150D01*
X0043050Y0089950D01*
X0046650Y0089950D01*
X0046650Y0089150D01*
X0046650Y0086626D01*
X0046934Y0086626D01*
X0047050Y0086509D01*
X0047166Y0086626D01*
X0047450Y0086626D01*
X0047450Y0086894D02*
X0046650Y0086894D01*
X0046650Y0087692D02*
X0047450Y0087692D01*
X0047450Y0088491D02*
X0046650Y0088491D01*
X0046650Y0089289D02*
X0043050Y0089289D01*
X0046650Y0090088D02*
X0047450Y0090088D01*
X0047450Y0090886D02*
X0046650Y0090886D01*
X0046650Y0091685D02*
X0047450Y0091685D01*
X0047450Y0092483D02*
X0046650Y0092483D01*
X0046826Y0093282D02*
X0047274Y0093282D01*
X0047561Y0095456D02*
X0045771Y0095456D01*
X0045771Y0095455D01*
X0048329Y0095455D01*
X0048329Y0095456D01*
X0047561Y0095456D01*
X0048330Y0095456D02*
X0050120Y0095456D01*
X0050888Y0095456D01*
X0050888Y0095455D01*
X0048330Y0095455D01*
X0048330Y0095456D01*
X0052063Y0093282D02*
X0052755Y0093282D01*
X0052750Y0094080D02*
X0052601Y0094080D01*
X0052679Y0094879D02*
X0052780Y0094879D01*
X0052679Y0095677D02*
X0053111Y0095677D01*
X0052679Y0096476D02*
X0053602Y0096476D01*
X0053086Y0092483D02*
X0052653Y0092483D01*
X0052778Y0091685D02*
X0053541Y0091685D01*
X0052778Y0090886D02*
X0054340Y0090886D01*
X0052778Y0090088D02*
X0057542Y0090088D01*
X0058024Y0089606D02*
X0058024Y0089606D01*
X0058341Y0089289D02*
X0047450Y0089289D01*
X0040300Y0094550D02*
X0040300Y0094566D01*
X0040300Y0094567D02*
X0040292Y0094595D01*
X0040281Y0094621D01*
X0040267Y0094647D01*
X0040249Y0094670D01*
X0040229Y0094691D01*
X0040207Y0094710D01*
X0040183Y0094725D01*
X0040156Y0094738D01*
X0040129Y0094747D01*
X0040100Y0094753D01*
X0040071Y0094756D01*
X0040042Y0094755D01*
X0040013Y0094750D01*
X0037887Y0094750D02*
X0037887Y0092387D01*
X0037550Y0092050D01*
X0036672Y0091685D02*
X0038450Y0091685D01*
X0038450Y0092483D02*
X0036341Y0092483D01*
X0036110Y0093041D02*
X0035328Y0093824D01*
X0036096Y0094108D01*
X0036096Y0094104D01*
X0036186Y0093769D01*
X0036360Y0093468D01*
X0036605Y0093223D01*
X0036906Y0093049D01*
X0037241Y0092959D01*
X0037887Y0092959D01*
X0038146Y0092959D01*
X0038450Y0092655D01*
X0038450Y0090116D01*
X0038431Y0089921D01*
X0038282Y0089562D01*
X0038158Y0089410D01*
X0038140Y0089393D01*
X0037484Y0088737D01*
X0037484Y0088737D01*
X0037435Y0088688D01*
X0037304Y0088688D01*
X0035704Y0087088D01*
X0033912Y0085296D01*
X0032312Y0083696D01*
X0032312Y0083565D01*
X0030897Y0082150D01*
X0029550Y0080803D01*
X0029550Y0080593D01*
X0028850Y0079893D01*
X0028850Y0079344D01*
X0028518Y0079748D01*
X0028109Y0080735D01*
X0029039Y0081665D01*
X0029618Y0083062D01*
X0029618Y0083553D01*
X0030109Y0083553D01*
X0031506Y0084132D01*
X0032575Y0085201D01*
X0033153Y0086597D01*
X0033153Y0087089D01*
X0033645Y0087089D01*
X0035041Y0087667D01*
X0036110Y0088736D01*
X0036689Y0090133D01*
X0036689Y0091645D01*
X0036110Y0093041D01*
X0035870Y0093282D02*
X0036546Y0093282D01*
X0036103Y0094080D02*
X0036020Y0094080D01*
X0037887Y0093219D02*
X0037887Y0093218D01*
X0037887Y0092959D01*
X0037887Y0093219D01*
X0038450Y0090886D02*
X0036689Y0090886D01*
X0036670Y0090088D02*
X0038447Y0090088D01*
X0038037Y0089289D02*
X0036339Y0089289D01*
X0035865Y0088491D02*
X0037107Y0088491D01*
X0036308Y0087692D02*
X0035066Y0087692D01*
X0035510Y0086894D02*
X0033153Y0086894D01*
X0032945Y0086095D02*
X0034711Y0086095D01*
X0033913Y0085297D02*
X0032614Y0085297D01*
X0033114Y0084498D02*
X0031872Y0084498D01*
X0032316Y0083700D02*
X0030462Y0083700D01*
X0029551Y0082901D02*
X0031648Y0082901D01*
X0030850Y0082103D02*
X0029220Y0082103D01*
X0028678Y0081304D02*
X0030051Y0081304D01*
X0029463Y0080506D02*
X0028205Y0080506D01*
X0028552Y0079707D02*
X0028850Y0079707D01*
X0034850Y0079569D02*
X0034850Y0077750D01*
X0035606Y0077750D01*
X0037678Y0076892D01*
X0037678Y0076892D01*
X0037856Y0076714D01*
X0038959Y0075611D01*
X0039086Y0075483D01*
X0042449Y0072120D01*
X0042449Y0072120D01*
X0042658Y0071912D01*
X0042658Y0071912D01*
X0043250Y0070483D01*
X0043250Y0075350D01*
X0040121Y0075350D01*
X0040053Y0075418D01*
X0038953Y0075874D01*
X0038856Y0075874D01*
X0038788Y0075942D01*
X0037726Y0077004D01*
X0037626Y0077104D01*
X0035918Y0078812D01*
X0035607Y0078812D01*
X0034850Y0079569D01*
X0034850Y0078909D02*
X0035511Y0078909D01*
X0034850Y0078110D02*
X0036620Y0078110D01*
X0036664Y0077312D02*
X0037419Y0077312D01*
X0038057Y0076513D02*
X0038217Y0076513D01*
X0038855Y0075715D02*
X0039337Y0075715D01*
X0039654Y0074916D02*
X0043250Y0074916D01*
X0043250Y0074118D02*
X0040452Y0074118D01*
X0041251Y0073319D02*
X0043250Y0073319D01*
X0043250Y0072520D02*
X0042049Y0072520D01*
X0042737Y0071722D02*
X0043250Y0071722D01*
X0043250Y0070923D02*
X0043068Y0070923D01*
X0035350Y0066205D02*
X0035350Y0057670D01*
X0036000Y0056100D02*
X0037022Y0055078D01*
X0037550Y0053803D02*
X0037550Y0051793D01*
X0037552Y0051717D01*
X0037557Y0051641D01*
X0037567Y0051565D01*
X0037580Y0051490D01*
X0037597Y0051416D01*
X0037617Y0051342D01*
X0037641Y0051270D01*
X0037668Y0051199D01*
X0037699Y0051129D01*
X0037733Y0051061D01*
X0037771Y0050995D01*
X0037812Y0050931D01*
X0037855Y0050868D01*
X0037902Y0050808D01*
X0037952Y0050751D01*
X0038005Y0050696D01*
X0039449Y0050097D02*
X0043207Y0050097D01*
X0046147Y0052650D02*
X0046582Y0053085D01*
X0046582Y0053450D01*
X0052650Y0053450D01*
X0052650Y0059518D01*
X0053015Y0059518D01*
X0053050Y0059553D01*
X0053085Y0059518D01*
X0053450Y0059518D01*
X0053450Y0053450D01*
X0059953Y0053450D01*
X0059518Y0053015D01*
X0059518Y0052650D01*
X0053450Y0052650D01*
X0053450Y0053450D01*
X0052650Y0053450D01*
X0052650Y0052650D01*
X0052650Y0046582D01*
X0053015Y0046582D01*
X0053050Y0046547D01*
X0053085Y0046582D01*
X0053450Y0046582D01*
X0053450Y0052650D01*
X0052650Y0052650D01*
X0046147Y0052650D01*
X0046582Y0053356D02*
X0052650Y0053356D01*
X0052650Y0052558D02*
X0053450Y0052558D01*
X0053450Y0053356D02*
X0059859Y0053356D01*
X0053450Y0054155D02*
X0052650Y0054155D01*
X0052650Y0054953D02*
X0053450Y0054953D01*
X0053450Y0055752D02*
X0052650Y0055752D01*
X0052650Y0056550D02*
X0053450Y0056550D01*
X0053450Y0057349D02*
X0052650Y0057349D01*
X0052650Y0058147D02*
X0053450Y0058147D01*
X0053450Y0058946D02*
X0052650Y0058946D01*
X0052650Y0051759D02*
X0053450Y0051759D01*
X0053450Y0050961D02*
X0052650Y0050961D01*
X0052650Y0050162D02*
X0053450Y0050162D01*
X0053450Y0049364D02*
X0052650Y0049364D01*
X0052650Y0048565D02*
X0053450Y0048565D01*
X0053450Y0047767D02*
X0052650Y0047767D01*
X0052650Y0046968D02*
X0053450Y0046968D01*
X0043868Y0043868D02*
X0043868Y0041175D01*
X0044004Y0041039D01*
X0043652Y0040187D01*
X0043350Y0039820D01*
X0042735Y0039205D01*
X0035454Y0031924D01*
X0034839Y0031309D01*
X0034395Y0030944D01*
X0033337Y0030506D01*
X0032765Y0030450D01*
X0027639Y0030450D01*
X0027441Y0030469D01*
X0027077Y0030620D01*
X0026924Y0030746D01*
X0026223Y0031447D01*
X0026016Y0031654D01*
X0025085Y0032584D01*
X0024993Y0032677D01*
X0024862Y0032677D01*
X0023943Y0033058D01*
X0023851Y0033150D01*
X0022728Y0033150D01*
X0022724Y0033150D01*
X0022717Y0033153D01*
X0022714Y0033156D01*
X0022666Y0033203D01*
X0022658Y0033212D01*
X0021436Y0034434D01*
X0021361Y0034434D01*
X0020149Y0034936D01*
X0020096Y0034989D01*
X0018454Y0034989D01*
X0018433Y0035041D01*
X0017364Y0036110D01*
X0015967Y0036689D01*
X0014455Y0036689D01*
X0013059Y0036110D01*
X0012218Y0035270D01*
X0009500Y0042223D01*
X0009500Y0043307D01*
X0010207Y0042600D01*
X0013893Y0042600D01*
X0016500Y0045207D01*
X0016500Y0048893D01*
X0014450Y0050943D01*
X0014450Y0055157D01*
X0016500Y0057207D01*
X0016500Y0060893D01*
X0014450Y0062943D01*
X0014450Y0064765D01*
X0014486Y0065133D01*
X0014768Y0065812D01*
X0015288Y0066332D01*
X0015967Y0066614D01*
X0016120Y0066629D01*
X0016420Y0066650D01*
X0016837Y0066650D01*
X0016923Y0066686D01*
X0017217Y0066706D01*
X0017102Y0066507D01*
X0017012Y0066172D01*
X0017012Y0065825D01*
X0017102Y0065490D01*
X0017275Y0065189D01*
X0017732Y0064732D01*
X0018189Y0064275D01*
X0018490Y0064102D01*
X0018825Y0064012D01*
X0019172Y0064012D01*
X0019507Y0064102D01*
X0019808Y0064275D01*
X0020264Y0064732D01*
X0020081Y0064915D01*
X0020081Y0064915D01*
X0020264Y0064732D01*
X0020448Y0064915D01*
X0021296Y0064915D01*
X0021458Y0065078D01*
X0021770Y0064766D01*
X0025393Y0064766D01*
X0025550Y0064923D01*
X0025707Y0064766D01*
X0029330Y0064766D01*
X0029914Y0065350D01*
X0033150Y0065350D01*
X0033150Y0056758D01*
X0033173Y0056736D01*
X0033800Y0055220D01*
X0033800Y0055188D01*
X0033823Y0055166D01*
X0034445Y0054544D01*
X0035089Y0053900D01*
X0035350Y0053639D01*
X0035350Y0051284D01*
X0031350Y0052773D01*
X0031350Y0054703D01*
X0030108Y0055944D01*
X0028913Y0055944D01*
X0028913Y0056406D01*
X0028247Y0057072D01*
X0028313Y0057317D01*
X0028313Y0058145D01*
X0026063Y0058145D01*
X0026063Y0058172D01*
X0026037Y0058172D01*
X0026037Y0060185D01*
X0024973Y0060185D01*
X0024625Y0060092D01*
X0024314Y0059913D01*
X0024060Y0059658D01*
X0023880Y0059347D01*
X0023787Y0059000D01*
X0023787Y0058172D01*
X0026037Y0058172D01*
X0026037Y0058145D01*
X0023787Y0058145D01*
X0023787Y0057317D01*
X0023853Y0057072D01*
X0023187Y0056406D01*
X0023187Y0055944D01*
X0021992Y0055944D01*
X0020750Y0054703D01*
X0020750Y0050386D01*
X0021992Y0049144D01*
X0029059Y0049144D01*
X0034430Y0047145D01*
X0029055Y0045144D01*
X0021992Y0045144D01*
X0020750Y0043903D01*
X0020750Y0039586D01*
X0021992Y0038344D01*
X0023187Y0038344D01*
X0023187Y0037883D01*
X0023853Y0037217D01*
X0023787Y0036971D01*
X0023787Y0036144D01*
X0026037Y0036144D01*
X0026037Y0036117D01*
X0026063Y0036117D01*
X0026063Y0034104D01*
X0027127Y0034104D01*
X0027475Y0034197D01*
X0027786Y0034376D01*
X0028040Y0034631D01*
X0028220Y0034942D01*
X0028313Y0035289D01*
X0028313Y0036117D01*
X0026063Y0036117D01*
X0026063Y0036144D01*
X0028313Y0036144D01*
X0028313Y0036971D01*
X0028247Y0037217D01*
X0028913Y0037883D01*
X0028913Y0038344D01*
X0030108Y0038344D01*
X0031350Y0039586D01*
X0031350Y0041517D01*
X0037278Y0043724D01*
X0038319Y0043975D01*
X0039400Y0044060D01*
X0040983Y0044060D01*
X0041175Y0043868D01*
X0043868Y0043868D01*
X0043868Y0043774D02*
X0037486Y0043774D01*
X0035268Y0042976D02*
X0043868Y0042976D01*
X0043868Y0042177D02*
X0033123Y0042177D01*
X0031350Y0041379D02*
X0043868Y0041379D01*
X0043814Y0040580D02*
X0031350Y0040580D01*
X0031350Y0039782D02*
X0043312Y0039782D01*
X0042735Y0039205D02*
X0042735Y0039205D01*
X0042513Y0038983D02*
X0030747Y0038983D01*
X0028913Y0038184D02*
X0041715Y0038184D01*
X0040916Y0037386D02*
X0028416Y0037386D01*
X0028313Y0036587D02*
X0040118Y0036587D01*
X0039319Y0035789D02*
X0028313Y0035789D01*
X0028233Y0034990D02*
X0038521Y0034990D01*
X0037722Y0034192D02*
X0027457Y0034192D01*
X0026063Y0034192D02*
X0026037Y0034192D01*
X0026037Y0034104D02*
X0026037Y0036117D01*
X0023787Y0036117D01*
X0023787Y0035289D01*
X0023880Y0034942D01*
X0024060Y0034631D01*
X0024314Y0034376D01*
X0024625Y0034197D01*
X0024973Y0034104D01*
X0026037Y0034104D01*
X0026037Y0034990D02*
X0026063Y0034990D01*
X0026037Y0035789D02*
X0026063Y0035789D01*
X0024643Y0034192D02*
X0021678Y0034192D01*
X0022476Y0033393D02*
X0036924Y0033393D01*
X0036125Y0032595D02*
X0025075Y0032595D01*
X0025873Y0031796D02*
X0035327Y0031796D01*
X0035454Y0031924D02*
X0035454Y0031924D01*
X0034460Y0030998D02*
X0026672Y0030998D01*
X0023867Y0034990D02*
X0018454Y0034990D01*
X0017685Y0035789D02*
X0023787Y0035789D01*
X0023787Y0036587D02*
X0016212Y0036587D01*
X0014211Y0036587D02*
X0011703Y0036587D01*
X0012015Y0035789D02*
X0012737Y0035789D01*
X0011391Y0037386D02*
X0023684Y0037386D01*
X0023187Y0038184D02*
X0011079Y0038184D01*
X0010767Y0038983D02*
X0021353Y0038983D01*
X0020750Y0039782D02*
X0010455Y0039782D01*
X0010142Y0040580D02*
X0020750Y0040580D01*
X0020750Y0041379D02*
X0009830Y0041379D01*
X0009518Y0042177D02*
X0020750Y0042177D01*
X0020750Y0042976D02*
X0014269Y0042976D01*
X0015067Y0043774D02*
X0020750Y0043774D01*
X0021420Y0044573D02*
X0015866Y0044573D01*
X0016500Y0045371D02*
X0029664Y0045371D01*
X0031809Y0046170D02*
X0016500Y0046170D01*
X0016500Y0046968D02*
X0033954Y0046968D01*
X0032760Y0047767D02*
X0016500Y0047767D01*
X0016500Y0048565D02*
X0030615Y0048565D01*
X0031928Y0052558D02*
X0035350Y0052558D01*
X0035350Y0053356D02*
X0031350Y0053356D01*
X0031350Y0054155D02*
X0034834Y0054155D01*
X0037022Y0055078D02*
X0037079Y0055018D01*
X0037134Y0054955D01*
X0037186Y0054890D01*
X0037234Y0054822D01*
X0037280Y0054752D01*
X0037322Y0054680D01*
X0037361Y0054607D01*
X0037396Y0054531D01*
X0037428Y0054454D01*
X0037457Y0054376D01*
X0037481Y0054296D01*
X0037502Y0054216D01*
X0037519Y0054134D01*
X0037533Y0054052D01*
X0037542Y0053969D01*
X0037548Y0053886D01*
X0037550Y0053803D01*
X0039550Y0054134D02*
X0039550Y0054313D01*
X0039550Y0052187D02*
X0039550Y0052066D01*
X0039449Y0050097D02*
X0039360Y0050099D01*
X0039271Y0050105D01*
X0039182Y0050114D01*
X0039094Y0050128D01*
X0039007Y0050145D01*
X0038920Y0050167D01*
X0038835Y0050192D01*
X0038751Y0050220D01*
X0038668Y0050252D01*
X0038586Y0050288D01*
X0038506Y0050328D01*
X0038428Y0050371D01*
X0038352Y0050417D01*
X0038278Y0050466D01*
X0038206Y0050519D01*
X0038136Y0050575D01*
X0038069Y0050633D01*
X0038005Y0050695D01*
X0035350Y0051759D02*
X0034074Y0051759D01*
X0034035Y0054953D02*
X0031099Y0054953D01*
X0030301Y0055752D02*
X0033580Y0055752D01*
X0033249Y0056550D02*
X0028769Y0056550D01*
X0028313Y0057349D02*
X0033150Y0057349D01*
X0033150Y0058147D02*
X0026063Y0058147D01*
X0026063Y0058172D02*
X0028313Y0058172D01*
X0028313Y0059000D01*
X0028220Y0059347D01*
X0028040Y0059658D01*
X0027786Y0059913D01*
X0027475Y0060092D01*
X0027127Y0060185D01*
X0026063Y0060185D01*
X0026063Y0058172D01*
X0026037Y0058147D02*
X0016500Y0058147D01*
X0016500Y0057349D02*
X0023787Y0057349D01*
X0023331Y0056550D02*
X0015843Y0056550D01*
X0015045Y0055752D02*
X0021799Y0055752D01*
X0021001Y0054953D02*
X0014450Y0054953D01*
X0014450Y0054155D02*
X0020750Y0054155D01*
X0020750Y0053356D02*
X0014450Y0053356D01*
X0014450Y0052558D02*
X0020750Y0052558D01*
X0020750Y0051759D02*
X0014450Y0051759D01*
X0014450Y0050961D02*
X0020750Y0050961D01*
X0020974Y0050162D02*
X0015231Y0050162D01*
X0016030Y0049364D02*
X0021773Y0049364D01*
X0026050Y0052544D02*
X0026050Y0054930D01*
X0026037Y0058946D02*
X0026063Y0058946D01*
X0026037Y0059744D02*
X0026063Y0059744D01*
X0027954Y0059744D02*
X0033150Y0059744D01*
X0033150Y0058946D02*
X0028313Y0058946D01*
X0024146Y0059744D02*
X0016500Y0059744D01*
X0016500Y0058946D02*
X0023787Y0058946D01*
X0020068Y0064535D02*
X0033150Y0064535D01*
X0033150Y0063737D02*
X0014450Y0063737D01*
X0014450Y0064535D02*
X0017929Y0064535D01*
X0017732Y0064732D02*
X0018811Y0065811D01*
X0018811Y0065811D01*
X0017732Y0064732D01*
X0018050Y0065050D02*
X0018998Y0065998D01*
X0018334Y0065334D02*
X0018334Y0065334D01*
X0018050Y0065050D02*
X0018050Y0063050D01*
X0017192Y0065334D02*
X0014569Y0065334D01*
X0015088Y0066132D02*
X0017012Y0066132D01*
X0020502Y0067502D02*
X0020775Y0067550D01*
X0023581Y0067550D01*
X0027450Y0067619D02*
X0027519Y0067550D01*
X0033963Y0067550D01*
X0034965Y0067135D02*
X0035012Y0067085D01*
X0035057Y0067033D01*
X0035099Y0066978D01*
X0035138Y0066921D01*
X0035174Y0066862D01*
X0035207Y0066802D01*
X0035236Y0066740D01*
X0035263Y0066676D01*
X0035286Y0066611D01*
X0035305Y0066545D01*
X0035321Y0066478D01*
X0035334Y0066411D01*
X0035343Y0066342D01*
X0035348Y0066274D01*
X0035350Y0066205D01*
X0034964Y0067135D02*
X0034910Y0067186D01*
X0034854Y0067234D01*
X0034795Y0067280D01*
X0034734Y0067322D01*
X0034671Y0067360D01*
X0034606Y0067396D01*
X0034539Y0067428D01*
X0034470Y0067456D01*
X0034401Y0067481D01*
X0034329Y0067502D01*
X0034257Y0067519D01*
X0034185Y0067533D01*
X0034111Y0067542D01*
X0034037Y0067548D01*
X0033963Y0067550D01*
X0033150Y0065334D02*
X0029898Y0065334D01*
X0027450Y0067619D02*
X0027450Y0071542D01*
X0027162Y0072238D02*
X0026597Y0072803D01*
X0027162Y0072238D02*
X0027202Y0072195D01*
X0027240Y0072149D01*
X0027276Y0072102D01*
X0027308Y0072052D01*
X0027337Y0072000D01*
X0027363Y0071946D01*
X0027386Y0071891D01*
X0027405Y0071835D01*
X0027421Y0071778D01*
X0027434Y0071720D01*
X0027443Y0071661D01*
X0027448Y0071601D01*
X0027450Y0071542D01*
X0026597Y0072803D02*
X0026538Y0072859D01*
X0026477Y0072913D01*
X0026413Y0072964D01*
X0026347Y0073012D01*
X0026280Y0073057D01*
X0026210Y0073100D01*
X0026139Y0073139D01*
X0026065Y0073175D01*
X0025991Y0073208D01*
X0025915Y0073237D01*
X0025838Y0073264D01*
X0025759Y0073286D01*
X0025680Y0073306D01*
X0025600Y0073322D01*
X0025520Y0073334D01*
X0025439Y0073343D01*
X0025357Y0073348D01*
X0025276Y0073350D01*
X0015350Y0073350D01*
X0015211Y0073211D01*
X0014455Y0062938D02*
X0033150Y0062938D01*
X0033150Y0062140D02*
X0015253Y0062140D01*
X0016052Y0061341D02*
X0033150Y0061341D01*
X0033150Y0060543D02*
X0016500Y0060543D01*
X0009831Y0042976D02*
X0009500Y0042976D01*
X0026050Y0041744D02*
X0026050Y0039359D01*
X0036000Y0056100D02*
X0035937Y0056166D01*
X0035876Y0056235D01*
X0035818Y0056306D01*
X0035763Y0056380D01*
X0035711Y0056456D01*
X0035663Y0056534D01*
X0035618Y0056613D01*
X0035576Y0056695D01*
X0035537Y0056778D01*
X0035502Y0056863D01*
X0035470Y0056949D01*
X0035442Y0057037D01*
X0035418Y0057125D01*
X0035397Y0057214D01*
X0035380Y0057305D01*
X0035367Y0057395D01*
X0035358Y0057487D01*
X0035352Y0057578D01*
X0035350Y0057670D01*
X0057261Y0036587D02*
X0057443Y0036587D01*
X0057328Y0036702D02*
X0062938Y0031093D01*
X0062938Y0031092D01*
X0063041Y0030989D01*
X0058666Y0026614D01*
X0058666Y0025123D01*
X0060475Y0023314D01*
X0060475Y0023314D01*
X0062285Y0021504D01*
X0064314Y0019475D01*
X0065162Y0019475D01*
X0065533Y0019104D01*
X0066132Y0018506D01*
X0066405Y0018348D01*
X0066711Y0018266D01*
X0067027Y0018266D01*
X0067332Y0018348D01*
X0067605Y0018506D01*
X0069735Y0020635D01*
X0068400Y0021971D01*
X0068400Y0021971D01*
X0069736Y0020636D01*
X0071866Y0022766D01*
X0072023Y0023039D01*
X0072105Y0023344D01*
X0072105Y0023660D01*
X0072023Y0023966D01*
X0071866Y0024239D01*
X0071267Y0024838D01*
X0068400Y0021971D01*
X0065533Y0019104D01*
X0068400Y0021971D01*
X0068400Y0021971D01*
X0068400Y0021971D01*
X0071267Y0024838D01*
X0070896Y0025209D01*
X0070896Y0026057D01*
X0070803Y0026150D01*
X0071493Y0026150D01*
X0073186Y0027844D01*
X0073747Y0027283D01*
X0073747Y0025007D01*
X0074647Y0024107D01*
X0074647Y0021990D01*
X0074594Y0021968D01*
X0073525Y0020899D01*
X0072947Y0019503D01*
X0072947Y0019011D01*
X0072455Y0019011D01*
X0071059Y0018433D01*
X0069990Y0017364D01*
X0069411Y0015967D01*
X0069411Y0014455D01*
X0069990Y0013059D01*
X0070772Y0012276D01*
X0062190Y0009100D01*
X0043910Y0009100D01*
X0035328Y0012276D01*
X0036110Y0013059D01*
X0036689Y0014455D01*
X0036689Y0015967D01*
X0036110Y0017364D01*
X0035041Y0018433D01*
X0034989Y0018454D01*
X0034989Y0018685D01*
X0035004Y0018842D01*
X0035125Y0019133D01*
X0035225Y0019255D01*
X0035225Y0019255D01*
X0035585Y0019550D01*
X0036440Y0019904D01*
X0036902Y0019950D01*
X0038402Y0019950D01*
X0041298Y0020726D01*
X0041298Y0020726D01*
X0043895Y0022226D01*
X0044956Y0023286D01*
X0045571Y0023901D01*
X0055490Y0033820D01*
X0055490Y0033821D01*
X0055901Y0034231D01*
X0055901Y0034231D01*
X0057328Y0036702D01*
X0056800Y0035789D02*
X0058241Y0035789D01*
X0059040Y0034990D02*
X0056339Y0034990D01*
X0055862Y0034192D02*
X0059838Y0034192D01*
X0060637Y0033393D02*
X0055063Y0033393D01*
X0054265Y0032595D02*
X0061435Y0032595D01*
X0062234Y0031796D02*
X0053466Y0031796D01*
X0052668Y0030998D02*
X0063032Y0030998D01*
X0062251Y0030199D02*
X0051869Y0030199D01*
X0051071Y0029401D02*
X0061452Y0029401D01*
X0060654Y0028602D02*
X0050272Y0028602D01*
X0049474Y0027804D02*
X0059855Y0027804D01*
X0059057Y0027005D02*
X0048675Y0027005D01*
X0047877Y0026207D02*
X0058666Y0026207D01*
X0058666Y0025408D02*
X0047078Y0025408D01*
X0046280Y0024610D02*
X0059179Y0024610D01*
X0059978Y0023811D02*
X0045481Y0023811D01*
X0045571Y0023901D02*
X0045571Y0023901D01*
X0044956Y0023286D02*
X0044956Y0023286D01*
X0044683Y0023013D02*
X0060776Y0023013D01*
X0061575Y0022214D02*
X0043876Y0022214D01*
X0043895Y0022226D02*
X0043895Y0022226D01*
X0042493Y0021416D02*
X0062373Y0021416D01*
X0063172Y0020617D02*
X0040892Y0020617D01*
X0036233Y0019819D02*
X0063970Y0019819D01*
X0065617Y0019020D02*
X0035078Y0019020D01*
X0035252Y0018222D02*
X0070848Y0018222D01*
X0070049Y0017423D02*
X0036051Y0017423D01*
X0036416Y0016625D02*
X0069684Y0016625D01*
X0069411Y0015826D02*
X0036689Y0015826D01*
X0036689Y0015028D02*
X0069411Y0015028D01*
X0069505Y0014229D02*
X0036595Y0014229D01*
X0036264Y0013431D02*
X0069836Y0013431D01*
X0070416Y0012632D02*
X0035684Y0012632D01*
X0036523Y0011834D02*
X0069577Y0011834D01*
X0067419Y0011035D02*
X0038681Y0011035D01*
X0040838Y0010237D02*
X0065262Y0010237D01*
X0063104Y0009438D02*
X0042996Y0009438D01*
X0066247Y0019819D02*
X0066247Y0019819D01*
X0067046Y0020617D02*
X0067046Y0020617D01*
X0067844Y0021416D02*
X0067844Y0021416D01*
X0068955Y0021416D02*
X0068955Y0021416D01*
X0068643Y0022214D02*
X0068643Y0022214D01*
X0069441Y0023013D02*
X0069441Y0023013D01*
X0070240Y0023811D02*
X0070240Y0023811D01*
X0071038Y0024610D02*
X0071038Y0024610D01*
X0071495Y0024610D02*
X0074144Y0024610D01*
X0073747Y0025408D02*
X0070896Y0025408D01*
X0071549Y0026207D02*
X0073747Y0026207D01*
X0073747Y0027005D02*
X0072348Y0027005D01*
X0073146Y0027804D02*
X0073226Y0027804D01*
X0072065Y0023811D02*
X0074647Y0023811D01*
X0074647Y0023013D02*
X0072008Y0023013D01*
X0071314Y0022214D02*
X0074647Y0022214D01*
X0074042Y0021416D02*
X0070516Y0021416D01*
X0069717Y0020617D02*
X0073408Y0020617D01*
X0073078Y0019819D02*
X0068919Y0019819D01*
X0068120Y0019020D02*
X0072947Y0019020D01*
X0083014Y0029598D02*
X0082179Y0030436D01*
X0083450Y0031707D01*
X0083450Y0033501D01*
X0088434Y0038486D01*
X0088434Y0039977D01*
X0086625Y0041786D01*
X0084815Y0043596D01*
X0084152Y0044259D01*
X0084759Y0044259D01*
X0085094Y0044349D01*
X0085395Y0044523D01*
X0085640Y0044768D01*
X0085814Y0045069D01*
X0085904Y0045404D01*
X0085904Y0045829D01*
X0089600Y0045829D01*
X0089600Y0045207D01*
X0091750Y0043057D01*
X0091750Y0042313D01*
X0091710Y0041530D01*
X0091395Y0039997D01*
X0091123Y0039262D01*
X0090747Y0038387D01*
X0090747Y0038387D01*
X0089993Y0036631D01*
X0088736Y0036110D01*
X0087667Y0035041D01*
X0087089Y0033645D01*
X0087089Y0032553D01*
X0087038Y0032553D01*
X0086420Y0032430D01*
X0085838Y0032189D01*
X0085313Y0031839D01*
X0085161Y0031687D01*
X0087353Y0029495D01*
X0087212Y0029353D01*
X0085020Y0031545D01*
X0084868Y0031393D01*
X0084517Y0030869D01*
X0084276Y0030287D01*
X0084153Y0029668D01*
X0084153Y0029618D01*
X0083062Y0029618D01*
X0083014Y0029598D01*
X0082415Y0030199D02*
X0084259Y0030199D01*
X0084604Y0030998D02*
X0082741Y0030998D01*
X0083450Y0031796D02*
X0085271Y0031796D01*
X0085567Y0030998D02*
X0085850Y0030998D01*
X0086366Y0030199D02*
X0086649Y0030199D01*
X0087164Y0029401D02*
X0087259Y0029401D01*
X0087089Y0032595D02*
X0083450Y0032595D01*
X0083450Y0033393D02*
X0087089Y0033393D01*
X0087316Y0034192D02*
X0084140Y0034192D01*
X0084939Y0034990D02*
X0087646Y0034990D01*
X0088415Y0035789D02*
X0085737Y0035789D01*
X0086536Y0036587D02*
X0089888Y0036587D01*
X0090317Y0037386D02*
X0087334Y0037386D01*
X0088133Y0038184D02*
X0090660Y0038184D01*
X0091003Y0038983D02*
X0088434Y0038983D01*
X0088434Y0039782D02*
X0091315Y0039782D01*
X0091515Y0040580D02*
X0087831Y0040580D01*
X0087033Y0041379D02*
X0091679Y0041379D01*
X0091743Y0042177D02*
X0086234Y0042177D01*
X0085436Y0042976D02*
X0091750Y0042976D01*
X0091033Y0043774D02*
X0084637Y0043774D01*
X0085445Y0044573D02*
X0090234Y0044573D01*
X0089600Y0045371D02*
X0085895Y0045371D01*
X0084113Y0046050D02*
X0084050Y0046050D01*
X0081987Y0046050D02*
X0081050Y0046050D01*
X0081050Y0048129D01*
X0081050Y0046050D02*
X0081050Y0045479D01*
X0078700Y0043129D01*
X0076624Y0044573D02*
X0076193Y0044573D01*
X0076241Y0044620D02*
X0076241Y0045829D01*
X0077880Y0045829D01*
X0074395Y0042343D01*
X0074395Y0040852D01*
X0076423Y0038823D01*
X0077543Y0037704D01*
X0076134Y0036295D01*
X0074311Y0037050D01*
X0074050Y0037050D01*
X0074050Y0038693D01*
X0073150Y0039593D01*
X0073150Y0043307D01*
X0073339Y0043496D01*
X0075117Y0043496D01*
X0076241Y0044620D01*
X0076241Y0045371D02*
X0077423Y0045371D01*
X0075826Y0043774D02*
X0075395Y0043774D01*
X0075027Y0042976D02*
X0073150Y0042976D01*
X0073150Y0042177D02*
X0074395Y0042177D01*
X0074395Y0041379D02*
X0073150Y0041379D01*
X0073150Y0040580D02*
X0074667Y0040580D01*
X0075465Y0039782D02*
X0073150Y0039782D01*
X0073760Y0038983D02*
X0076264Y0038983D01*
X0077062Y0038184D02*
X0074050Y0038184D01*
X0074050Y0037386D02*
X0077226Y0037386D01*
X0076427Y0036587D02*
X0075428Y0036587D01*
X0068950Y0039593D02*
X0068050Y0038693D01*
X0068050Y0037620D01*
X0065509Y0040161D01*
X0065290Y0040428D01*
X0065026Y0041064D01*
X0064993Y0041407D01*
X0064993Y0043936D01*
X0065592Y0044536D01*
X0065768Y0044360D01*
X0066069Y0044186D01*
X0066404Y0044096D01*
X0067050Y0044096D01*
X0067696Y0044096D01*
X0068031Y0044186D01*
X0068056Y0044201D01*
X0068950Y0043307D01*
X0068950Y0039593D01*
X0068950Y0039782D02*
X0065888Y0039782D01*
X0065227Y0040580D02*
X0068950Y0040580D01*
X0068950Y0041379D02*
X0064995Y0041379D01*
X0064993Y0042177D02*
X0068950Y0042177D01*
X0068950Y0042976D02*
X0064993Y0042976D01*
X0064993Y0043774D02*
X0068483Y0043774D01*
X0067050Y0044096D02*
X0067050Y0045622D01*
X0067050Y0045622D01*
X0067050Y0044096D01*
X0067050Y0044573D02*
X0067050Y0044573D01*
X0067050Y0045371D02*
X0067050Y0045371D01*
X0067050Y0045887D02*
X0067050Y0042050D01*
X0066687Y0038983D02*
X0068340Y0038983D01*
X0068050Y0038184D02*
X0067485Y0038184D01*
X0067050Y0048013D02*
X0067050Y0048129D01*
X0066550Y0051987D02*
X0066550Y0052066D01*
X0066550Y0054034D02*
X0066550Y0054113D01*
X0073850Y0048013D02*
X0073850Y0047929D01*
X0074050Y0048129D01*
X0083832Y0050429D02*
X0085425Y0052022D01*
X0086750Y0055219D01*
X0086750Y0065472D01*
X0086794Y0066050D01*
X0087140Y0067153D01*
X0087799Y0068102D01*
X0088229Y0068490D01*
X0089666Y0069605D01*
X0090133Y0069411D01*
X0091645Y0069411D01*
X0093041Y0069990D01*
X0093882Y0070830D01*
X0096600Y0063877D01*
X0096600Y0062793D01*
X0095893Y0063500D01*
X0092207Y0063500D01*
X0089600Y0060893D01*
X0089600Y0057207D01*
X0091650Y0055157D01*
X0091650Y0050943D01*
X0091136Y0050429D01*
X0083832Y0050429D01*
X0084364Y0050961D02*
X0091650Y0050961D01*
X0091650Y0051759D02*
X0085163Y0051759D01*
X0085425Y0052022D02*
X0085425Y0052022D01*
X0085425Y0052022D01*
X0085647Y0052558D02*
X0091650Y0052558D01*
X0091650Y0053356D02*
X0085978Y0053356D01*
X0086309Y0054155D02*
X0091650Y0054155D01*
X0091650Y0054953D02*
X0086640Y0054953D01*
X0086750Y0055752D02*
X0091055Y0055752D01*
X0090256Y0056550D02*
X0086750Y0056550D01*
X0086750Y0057349D02*
X0089600Y0057349D01*
X0089600Y0058147D02*
X0086750Y0058147D01*
X0086750Y0058946D02*
X0089600Y0058946D01*
X0089600Y0059744D02*
X0086750Y0059744D01*
X0086750Y0060543D02*
X0089600Y0060543D01*
X0090048Y0061341D02*
X0086750Y0061341D01*
X0086750Y0062140D02*
X0090847Y0062140D01*
X0091645Y0062938D02*
X0086750Y0062938D01*
X0086750Y0063737D02*
X0096600Y0063737D01*
X0096600Y0062938D02*
X0096455Y0062938D01*
X0096342Y0064535D02*
X0086750Y0064535D01*
X0086750Y0065334D02*
X0096030Y0065334D01*
X0095718Y0066132D02*
X0086820Y0066132D01*
X0087070Y0066931D02*
X0095406Y0066931D01*
X0095094Y0067729D02*
X0087540Y0067729D01*
X0088277Y0068528D02*
X0094782Y0068528D01*
X0094470Y0069326D02*
X0089307Y0069326D01*
X0093177Y0070125D02*
X0094157Y0070125D01*
X0072661Y0069530D02*
X0071149Y0068019D01*
X0071147Y0068034D01*
X0070942Y0068662D01*
X0070642Y0069251D01*
X0070295Y0069729D01*
X0067616Y0067050D01*
X0067050Y0067616D01*
X0069729Y0070295D01*
X0069251Y0070642D01*
X0068662Y0070942D01*
X0068034Y0071147D01*
X0067381Y0071250D01*
X0066719Y0071250D01*
X0066066Y0071147D01*
X0065438Y0070942D01*
X0064849Y0070642D01*
X0064371Y0070295D01*
X0067050Y0067616D01*
X0066484Y0067050D01*
X0063805Y0069729D01*
X0063458Y0069251D01*
X0063158Y0068662D01*
X0062953Y0068034D01*
X0062867Y0067489D01*
X0061755Y0067950D01*
X0058592Y0067950D01*
X0058480Y0067838D01*
X0058103Y0067682D01*
X0058103Y0069703D01*
X0059024Y0069321D01*
X0060934Y0069321D01*
X0062698Y0070052D01*
X0064048Y0071402D01*
X0064755Y0073109D01*
X0064826Y0073150D01*
X0066593Y0073150D01*
X0067050Y0073607D01*
X0067507Y0073150D01*
X0069328Y0073150D01*
X0070052Y0071402D01*
X0071402Y0070052D01*
X0072661Y0069530D01*
X0072457Y0069326D02*
X0070588Y0069326D01*
X0069892Y0069326D02*
X0068761Y0069326D01*
X0069094Y0068528D02*
X0067962Y0068528D01*
X0068295Y0067729D02*
X0067164Y0067729D01*
X0066936Y0067729D02*
X0065805Y0067729D01*
X0066138Y0068528D02*
X0065006Y0068528D01*
X0065339Y0069326D02*
X0064208Y0069326D01*
X0063512Y0069326D02*
X0060947Y0069326D01*
X0059011Y0069326D02*
X0058103Y0069326D01*
X0058103Y0068528D02*
X0063114Y0068528D01*
X0062905Y0067729D02*
X0062288Y0067729D01*
X0062771Y0070125D02*
X0064541Y0070125D01*
X0065401Y0070923D02*
X0063570Y0070923D01*
X0064181Y0071722D02*
X0069919Y0071722D01*
X0069589Y0072520D02*
X0064511Y0072520D01*
X0066762Y0073319D02*
X0067338Y0073319D01*
X0068699Y0070923D02*
X0070530Y0070923D01*
X0071329Y0070125D02*
X0069559Y0070125D01*
X0070986Y0068528D02*
X0071658Y0068528D01*
X0058218Y0067729D02*
X0058103Y0067729D01*
X0038150Y0086050D02*
X0038050Y0086050D01*
X0038098Y0086102D02*
X0038100Y0086089D01*
X0038105Y0086076D01*
X0038113Y0086065D01*
X0038124Y0086057D01*
X0038137Y0086052D01*
X0038150Y0086050D01*
X0036550Y0084550D02*
X0036550Y0084450D01*
X0036548Y0084463D01*
X0036543Y0084476D01*
X0036535Y0084487D01*
X0036524Y0084495D01*
X0036511Y0084500D01*
X0036498Y0084502D01*
X0035050Y0083050D02*
X0035050Y0082775D01*
X0035029Y0082774D01*
X0035007Y0082778D01*
X0034986Y0082784D01*
X0034966Y0082794D01*
X0034948Y0082807D01*
X0034933Y0082822D01*
X0034919Y0082840D01*
X0034909Y0082859D01*
X0034902Y0082880D01*
X0034899Y0082902D01*
X0033912Y0085296D02*
X0033912Y0085296D01*
D25*
X0031850Y0078650D03*
X0030050Y0070750D03*
X0024850Y0070750D03*
X0041350Y0079950D03*
X0041450Y0083350D03*
X0050750Y0074950D03*
X0054250Y0074950D03*
X0051350Y0067850D03*
X0053050Y0053050D03*
X0071050Y0045450D03*
X0071050Y0037450D03*
X0070250Y0029150D03*
X0076747Y0026250D03*
X0080450Y0032950D03*
X0077850Y0065450D03*
X0068750Y0076150D03*
X0065350Y0076150D03*
X0066950Y0082350D03*
X0063550Y0082350D03*
D26*
X0052050Y0062908D02*
X0052066Y0062893D01*
X0054034Y0054034D02*
X0053050Y0053050D01*
X0051034Y0053050D01*
X0050050Y0052066D01*
X0054034Y0054034D02*
X0062893Y0054034D01*
X0067050Y0048129D02*
X0074050Y0048129D01*
X0081050Y0048129D01*
X0094050Y0048129D01*
X0094050Y0047050D01*
X0094050Y0042313D01*
X0093236Y0038354D02*
X0090889Y0032889D01*
X0093236Y0038354D02*
X0093328Y0038576D01*
X0093414Y0038799D01*
X0093495Y0039024D01*
X0093571Y0039251D01*
X0093642Y0039480D01*
X0093706Y0039710D01*
X0093766Y0039942D01*
X0093820Y0040175D01*
X0093868Y0040410D01*
X0093910Y0040645D01*
X0093947Y0040882D01*
X0093979Y0041119D01*
X0094004Y0041357D01*
X0094024Y0041596D01*
X0094039Y0041834D01*
X0094047Y0042074D01*
X0094050Y0042313D01*
X0087550Y0043550D02*
X0085050Y0046050D01*
X0084050Y0046050D01*
X0068050Y0021650D02*
X0065050Y0018650D01*
X0039550Y0055250D02*
X0038180Y0056620D01*
X0037250Y0058866D02*
X0037250Y0067233D01*
X0036672Y0068628D02*
X0034731Y0070569D01*
X0032604Y0071450D02*
X0030750Y0071450D01*
X0030050Y0070750D01*
X0032604Y0071450D02*
X0032711Y0071448D01*
X0032819Y0071442D01*
X0032926Y0071433D01*
X0033032Y0071419D01*
X0033138Y0071402D01*
X0033243Y0071381D01*
X0033348Y0071357D01*
X0033451Y0071328D01*
X0033554Y0071296D01*
X0033655Y0071260D01*
X0033755Y0071221D01*
X0033854Y0071178D01*
X0033950Y0071132D01*
X0034046Y0071082D01*
X0034139Y0071029D01*
X0034230Y0070972D01*
X0034320Y0070913D01*
X0034407Y0070850D01*
X0034491Y0070784D01*
X0034574Y0070715D01*
X0034654Y0070644D01*
X0034731Y0070569D01*
X0036672Y0068627D02*
X0036732Y0068565D01*
X0036789Y0068501D01*
X0036842Y0068433D01*
X0036893Y0068364D01*
X0036941Y0068293D01*
X0036986Y0068219D01*
X0037027Y0068144D01*
X0037065Y0068066D01*
X0037100Y0067988D01*
X0037131Y0067907D01*
X0037159Y0067826D01*
X0037183Y0067743D01*
X0037203Y0067660D01*
X0037220Y0067575D01*
X0037233Y0067490D01*
X0037242Y0067405D01*
X0037248Y0067319D01*
X0037250Y0067233D01*
X0037250Y0058866D02*
X0037252Y0058758D01*
X0037257Y0058649D01*
X0037267Y0058541D01*
X0037280Y0058434D01*
X0037296Y0058326D01*
X0037316Y0058220D01*
X0037340Y0058114D01*
X0037368Y0058009D01*
X0037399Y0057905D01*
X0037433Y0057802D01*
X0037471Y0057701D01*
X0037513Y0057601D01*
X0037558Y0057502D01*
X0037606Y0057405D01*
X0037658Y0057309D01*
X0037712Y0057216D01*
X0037770Y0057124D01*
X0037831Y0057034D01*
X0037895Y0056947D01*
X0037962Y0056862D01*
X0038032Y0056779D01*
X0038105Y0056698D01*
X0038180Y0056620D01*
X0031850Y0078650D02*
X0031850Y0079850D01*
X0035050Y0083050D01*
X0036550Y0084550D01*
X0038050Y0086050D01*
X0039784Y0087784D01*
X0040750Y0090116D02*
X0040750Y0093214D01*
X0040300Y0094955D02*
X0040357Y0095009D01*
X0040416Y0095061D01*
X0040478Y0095110D01*
X0040542Y0095156D01*
X0040608Y0095199D01*
X0040676Y0095239D01*
X0040746Y0095276D01*
X0040818Y0095310D01*
X0040890Y0095340D01*
X0040965Y0095367D01*
X0041040Y0095390D01*
X0041116Y0095410D01*
X0041193Y0095426D01*
X0041271Y0095439D01*
X0041350Y0095448D01*
X0041428Y0095453D01*
X0041507Y0095455D01*
X0041507Y0095456D02*
X0043211Y0095456D01*
X0040300Y0094956D02*
X0040300Y0094550D01*
X0040300Y0094300D01*
X0040352Y0094246D01*
X0040401Y0094188D01*
X0040448Y0094129D01*
X0040491Y0094067D01*
X0040531Y0094004D01*
X0040569Y0093938D01*
X0040603Y0093871D01*
X0040633Y0093802D01*
X0040660Y0093731D01*
X0040684Y0093660D01*
X0040704Y0093587D01*
X0040720Y0093514D01*
X0040733Y0093439D01*
X0040743Y0093365D01*
X0040748Y0093289D01*
X0040750Y0093214D01*
X0040750Y0090116D02*
X0040748Y0090003D01*
X0040742Y0089891D01*
X0040733Y0089779D01*
X0040719Y0089667D01*
X0040702Y0089556D01*
X0040681Y0089445D01*
X0040656Y0089335D01*
X0040628Y0089226D01*
X0040595Y0089118D01*
X0040560Y0089012D01*
X0040520Y0088906D01*
X0040477Y0088802D01*
X0040430Y0088700D01*
X0040380Y0088599D01*
X0040327Y0088500D01*
X0040270Y0088402D01*
X0040210Y0088307D01*
X0040146Y0088214D01*
X0040080Y0088123D01*
X0040010Y0088035D01*
X0039938Y0087949D01*
X0039862Y0087865D01*
X0039784Y0087784D01*
D27*
X0039550Y0055250D02*
X0039550Y0054313D01*
X0039613Y0054250D01*
X0040750Y0054250D01*
X0040966Y0054034D01*
X0043207Y0054034D01*
X0043207Y0052066D02*
X0039550Y0052066D01*
X0043207Y0052066D02*
X0050050Y0052066D01*
X0062893Y0052066D02*
X0066550Y0052066D01*
X0066550Y0054034D02*
X0062893Y0054034D01*
X0062893Y0048129D02*
X0067050Y0048129D01*
D28*
X0094050Y0047050D02*
X0094050Y0059050D01*
X0050889Y0083644D02*
X0050889Y0089050D01*
X0050050Y0089550D01*
X0050889Y0089550D01*
X0050889Y0095456D01*
X0048330Y0095456D02*
X0048330Y0091050D01*
X0047050Y0091050D01*
X0045770Y0092050D02*
X0044050Y0089550D01*
X0045770Y0092050D02*
X0045770Y0095456D01*
X0024250Y0071350D02*
X0024850Y0070750D01*
X0024250Y0071350D02*
X0021388Y0071350D01*
X0021267Y0071348D01*
X0021145Y0071342D01*
X0021024Y0071332D01*
X0020903Y0071318D01*
X0020783Y0071300D01*
X0020664Y0071279D01*
X0020545Y0071253D01*
X0020427Y0071224D01*
X0020310Y0071190D01*
X0020195Y0071153D01*
X0020080Y0071112D01*
X0019967Y0071067D01*
X0019856Y0071019D01*
X0019746Y0070967D01*
X0019638Y0070912D01*
X0019532Y0070853D01*
X0019428Y0070790D01*
X0019326Y0070724D01*
X0019226Y0070655D01*
X0019128Y0070583D01*
X0019033Y0070507D01*
X0018941Y0070429D01*
X0018851Y0070347D01*
X0018763Y0070263D01*
X0016360Y0069050D02*
X0016335Y0069050D01*
X0016451Y0069060D01*
X0016566Y0069074D01*
X0016681Y0069091D01*
X0016795Y0069113D01*
X0016908Y0069138D01*
X0017020Y0069167D01*
X0017132Y0069199D01*
X0017242Y0069235D01*
X0017351Y0069275D01*
X0017459Y0069318D01*
X0017565Y0069365D01*
X0017670Y0069415D01*
X0017773Y0069468D01*
X0017874Y0069525D01*
X0017973Y0069585D01*
X0018070Y0069649D01*
X0018165Y0069715D01*
X0018258Y0069785D01*
X0018349Y0069857D01*
X0018437Y0069933D01*
X0018522Y0070011D01*
X0018605Y0070092D01*
X0018685Y0070176D01*
X0018763Y0070263D01*
X0016335Y0069050D02*
X0016206Y0069048D01*
X0016076Y0069042D01*
X0015947Y0069032D01*
X0015819Y0069019D01*
X0015690Y0069001D01*
X0015563Y0068980D01*
X0015436Y0068955D01*
X0015310Y0068925D01*
X0015184Y0068893D01*
X0015060Y0068856D01*
X0014937Y0068816D01*
X0014816Y0068772D01*
X0014695Y0068724D01*
X0014576Y0068672D01*
X0014459Y0068618D01*
X0014344Y0068559D01*
X0014230Y0068497D01*
X0014118Y0068432D01*
X0014008Y0068363D01*
X0013901Y0068291D01*
X0013795Y0068216D01*
X0013692Y0068138D01*
X0013592Y0068057D01*
X0013494Y0067972D01*
X0013398Y0067885D01*
X0013305Y0067795D01*
X0013215Y0067702D01*
X0013128Y0067606D01*
X0013043Y0067508D01*
X0012962Y0067408D01*
X0012884Y0067305D01*
X0012809Y0067199D01*
X0012737Y0067092D01*
X0012668Y0066982D01*
X0012603Y0066870D01*
X0012541Y0066756D01*
X0012482Y0066641D01*
X0012428Y0066524D01*
X0012376Y0066405D01*
X0012328Y0066284D01*
X0012284Y0066163D01*
X0012244Y0066040D01*
X0012207Y0065916D01*
X0012175Y0065790D01*
X0012145Y0065664D01*
X0012120Y0065537D01*
X0012099Y0065410D01*
X0012081Y0065281D01*
X0012068Y0065153D01*
X0012058Y0065024D01*
X0012052Y0064894D01*
X0012050Y0064765D01*
X0012050Y0059050D01*
X0012050Y0047050D01*
D29*
X0019050Y0047144D03*
X0019050Y0037144D03*
X0033450Y0053550D03*
X0029950Y0062850D03*
X0019050Y0057144D03*
X0035050Y0038644D03*
X0057850Y0022350D03*
X0065950Y0011850D03*
X0075150Y0038450D03*
X0067050Y0042050D03*
X0089850Y0040850D03*
X0092950Y0067350D03*
X0069050Y0087150D03*
X0056050Y0086150D03*
X0050050Y0089550D03*
X0047050Y0088050D03*
X0047050Y0091050D03*
X0044050Y0089550D03*
X0037550Y0092050D03*
X0041950Y0074350D03*
X0067050Y0072250D03*
M02*
