G75*
%MOIN*%
%OFA0B0*%
%FSLAX25Y25*%
%IPPOS*%
%LPD*%
%AMOC8*
5,1,8,0,0,1.08239X$1,22.5*
%
%ADD10C,0.00100*%
%ADD11R,0.02170X0.00084*%
%ADD12R,0.03670X0.00083*%
%ADD13R,0.04330X0.00083*%
%ADD14R,0.05170X0.00084*%
%ADD15R,0.05670X0.00083*%
%ADD16R,0.06250X0.00083*%
%ADD17R,0.06670X0.00084*%
%ADD18R,0.07170X0.00083*%
%ADD19R,0.07670X0.00083*%
%ADD20R,0.08020X0.00084*%
%ADD21R,0.08420X0.00083*%
%ADD22R,0.08763X0.00083*%
%ADD23R,0.09133X0.00084*%
%ADD24R,0.09503X0.00083*%
%ADD25R,0.09773X0.00083*%
%ADD26R,0.09883X0.00084*%
%ADD27R,0.09763X0.00083*%
%ADD28R,0.09783X0.00083*%
%ADD29R,0.09713X0.00084*%
%ADD30R,0.09700X0.00083*%
%ADD31R,0.09720X0.00083*%
%ADD32R,0.09670X0.00084*%
%ADD33R,0.09580X0.00083*%
%ADD34R,0.09670X0.00083*%
%ADD35R,0.09580X0.00084*%
%ADD36R,0.09500X0.00084*%
%ADD37R,0.01420X0.00083*%
%ADD38R,0.09500X0.00083*%
%ADD39R,0.01840X0.00083*%
%ADD40R,0.09410X0.00083*%
%ADD41R,0.02090X0.00084*%
%ADD42R,0.09420X0.00084*%
%ADD43R,0.02340X0.00083*%
%ADD44R,0.09330X0.00083*%
%ADD45R,0.02420X0.00083*%
%ADD46R,0.09340X0.00083*%
%ADD47R,0.02590X0.00084*%
%ADD48R,0.09250X0.00084*%
%ADD49R,0.02760X0.00083*%
%ADD50R,0.09160X0.00083*%
%ADD51R,0.02750X0.00083*%
%ADD52R,0.09090X0.00083*%
%ADD53R,0.02830X0.00084*%
%ADD54R,0.09000X0.00084*%
%ADD55R,0.02920X0.00083*%
%ADD56R,0.08910X0.00083*%
%ADD57R,0.02920X0.00083*%
%ADD58R,0.08840X0.00083*%
%ADD59R,0.03000X0.00084*%
%ADD60R,0.08750X0.00084*%
%ADD61R,0.03000X0.00083*%
%ADD62R,0.08660X0.00083*%
%ADD63R,0.08590X0.00083*%
%ADD64R,0.08500X0.00084*%
%ADD65R,0.08250X0.00083*%
%ADD66R,0.02910X0.00084*%
%ADD67R,0.08000X0.00084*%
%ADD68R,0.00500X0.00083*%
%ADD69R,0.06420X0.00083*%
%ADD70R,0.06080X0.00083*%
%ADD71R,0.02840X0.00084*%
%ADD72R,0.05920X0.00084*%
%ADD73R,0.02830X0.00083*%
%ADD74R,0.05750X0.00083*%
%ADD75R,0.05580X0.00083*%
%ADD76R,0.02750X0.00084*%
%ADD77R,0.00500X0.00084*%
%ADD78R,0.05580X0.00084*%
%ADD79R,0.02670X0.00083*%
%ADD80R,0.01250X0.00083*%
%ADD81R,0.05510X0.00083*%
%ADD82R,0.02580X0.00083*%
%ADD83R,0.01750X0.00083*%
%ADD84R,0.05420X0.00083*%
%ADD85R,0.02500X0.00084*%
%ADD86R,0.02170X0.00084*%
%ADD87R,0.01000X0.00084*%
%ADD88R,0.05420X0.00084*%
%ADD89R,0.02420X0.00083*%
%ADD90R,0.02500X0.00083*%
%ADD91R,0.01410X0.00083*%
%ADD92R,0.04660X0.00083*%
%ADD93R,0.00330X0.00084*%
%ADD94R,0.02580X0.00084*%
%ADD95R,0.04420X0.00084*%
%ADD96R,0.00920X0.00083*%
%ADD97R,0.00750X0.00083*%
%ADD98R,0.01580X0.00083*%
%ADD99R,0.06000X0.00083*%
%ADD100R,0.04250X0.00083*%
%ADD101R,0.01160X0.00083*%
%ADD102R,0.00410X0.00083*%
%ADD103R,0.02080X0.00083*%
%ADD104R,0.04080X0.00083*%
%ADD105R,0.01250X0.00084*%
%ADD106R,0.00250X0.00084*%
%ADD107R,0.08920X0.00084*%
%ADD108R,0.04000X0.00084*%
%ADD109R,0.09170X0.00083*%
%ADD110R,0.03910X0.00083*%
%ADD111R,0.01420X0.00083*%
%ADD112R,0.03840X0.00083*%
%ADD113R,0.01500X0.00084*%
%ADD114R,0.09660X0.00084*%
%ADD115R,0.03800X0.00084*%
%ADD116R,0.10750X0.00083*%
%ADD117R,0.03687X0.00083*%
%ADD118R,0.11170X0.00083*%
%ADD119R,0.03397X0.00083*%
%ADD120R,0.01010X0.00084*%
%ADD121R,0.11500X0.00084*%
%ADD122R,0.03117X0.00084*%
%ADD123R,0.00830X0.00083*%
%ADD124R,0.11750X0.00083*%
%ADD125R,0.02917X0.00083*%
%ADD126R,0.00660X0.00083*%
%ADD127R,0.11910X0.00083*%
%ADD128R,0.02627X0.00083*%
%ADD129R,0.12170X0.00084*%
%ADD130R,0.02417X0.00084*%
%ADD131R,0.00340X0.00083*%
%ADD132R,0.12410X0.00083*%
%ADD133R,0.02207X0.00083*%
%ADD134R,0.00160X0.00083*%
%ADD135R,0.12590X0.00083*%
%ADD136R,0.01970X0.00083*%
%ADD137R,0.12750X0.00084*%
%ADD138R,0.01680X0.00084*%
%ADD139R,0.12910X0.00083*%
%ADD140R,0.01470X0.00083*%
%ADD141R,0.13090X0.00083*%
%ADD142R,0.01277X0.00083*%
%ADD143R,0.13170X0.00084*%
%ADD144R,0.01057X0.00084*%
%ADD145R,0.13250X0.00083*%
%ADD146R,0.00937X0.00083*%
%ADD147R,0.13330X0.00083*%
%ADD148R,0.00727X0.00083*%
%ADD149R,0.13250X0.00084*%
%ADD150R,0.00487X0.00084*%
%ADD151R,0.13170X0.00083*%
%ADD152R,0.13000X0.00083*%
%ADD153R,0.12920X0.00084*%
%ADD154R,0.12750X0.00083*%
%ADD155R,0.12580X0.00084*%
%ADD156R,0.12420X0.00083*%
%ADD157R,0.12340X0.00084*%
%ADD158R,0.12250X0.00083*%
%ADD159R,0.12080X0.00083*%
%ADD160R,0.11920X0.00084*%
%ADD161R,0.11580X0.00084*%
%ADD162R,0.11410X0.00083*%
%ADD163R,0.00170X0.00083*%
%ADD164R,0.11330X0.00083*%
%ADD165R,0.00250X0.00083*%
%ADD166R,0.11160X0.00084*%
%ADD167R,0.00340X0.00084*%
%ADD168R,0.11000X0.00083*%
%ADD169R,0.10830X0.00083*%
%ADD170R,0.00670X0.00083*%
%ADD171R,0.10670X0.00084*%
%ADD172R,0.00920X0.00084*%
%ADD173R,0.10500X0.00083*%
%ADD174R,0.01170X0.00083*%
%ADD175R,0.10330X0.00083*%
%ADD176R,0.01760X0.00083*%
%ADD177R,0.10160X0.00084*%
%ADD178R,0.10000X0.00083*%
%ADD179R,0.09830X0.00083*%
%ADD180R,0.02590X0.00083*%
%ADD181R,0.09250X0.00083*%
%ADD182R,0.09160X0.00084*%
%ADD183R,0.03090X0.00084*%
%ADD184R,0.03170X0.00083*%
%ADD185R,0.08750X0.00083*%
%ADD186R,0.03250X0.00083*%
%ADD187R,0.05250X0.00084*%
%ADD188R,0.03080X0.00084*%
%ADD189R,0.03420X0.00084*%
%ADD190R,0.05000X0.00083*%
%ADD191R,0.03080X0.00083*%
%ADD192R,0.03500X0.00083*%
%ADD193R,0.04670X0.00083*%
%ADD194R,0.03580X0.00083*%
%ADD195R,0.04250X0.00084*%
%ADD196R,0.03750X0.00084*%
%ADD197R,0.04000X0.00083*%
%ADD198R,0.03090X0.00083*%
%ADD199R,0.03830X0.00083*%
%ADD200R,0.03160X0.00084*%
%ADD201R,0.04090X0.00084*%
%ADD202R,0.04340X0.00083*%
%ADD203R,0.02170X0.00083*%
%ADD204R,0.03160X0.00083*%
%ADD205R,0.04750X0.00083*%
%ADD206R,0.01410X0.00084*%
%ADD207R,0.04920X0.00084*%
%ADD208R,0.04920X0.00083*%
%ADD209R,0.04910X0.00083*%
%ADD210R,0.03170X0.00084*%
%ADD211R,0.05000X0.00084*%
%ADD212R,0.04920X0.00083*%
%ADD213R,0.03170X0.00084*%
%ADD214R,0.03170X0.00083*%
%ADD215R,0.00080X0.00083*%
%ADD216R,0.00170X0.00084*%
%ADD217R,0.03420X0.00084*%
%ADD218R,0.01170X0.00084*%
%ADD219R,0.00253X0.00083*%
%ADD220R,0.01080X0.00083*%
%ADD221R,0.00328X0.00084*%
%ADD222R,0.01170X0.00084*%
%ADD223R,0.03670X0.00084*%
%ADD224R,0.00403X0.00083*%
%ADD225R,0.00420X0.00083*%
%ADD226R,0.00565X0.00083*%
%ADD227R,0.01330X0.00083*%
%ADD228R,0.00639X0.00084*%
%ADD229R,0.03250X0.00084*%
%ADD230R,0.00804X0.00083*%
%ADD231R,0.00590X0.00083*%
%ADD232R,0.01500X0.00083*%
%ADD233R,0.00873X0.00083*%
%ADD234R,0.01033X0.00084*%
%ADD235R,0.00750X0.00084*%
%ADD236R,0.01660X0.00084*%
%ADD237R,0.02160X0.00084*%
%ADD238R,0.01103X0.00083*%
%ADD239R,0.01660X0.00083*%
%ADD240R,0.01273X0.00083*%
%ADD241R,0.00910X0.00083*%
%ADD242R,0.02000X0.00083*%
%ADD243R,0.01443X0.00084*%
%ADD244R,0.01523X0.00083*%
%ADD245R,0.01000X0.00083*%
%ADD246R,0.01683X0.00083*%
%ADD247R,0.02250X0.00083*%
%ADD248R,0.01853X0.00084*%
%ADD249R,0.01090X0.00084*%
%ADD250R,0.02420X0.00084*%
%ADD251R,0.02023X0.00083*%
%ADD252R,0.02193X0.00083*%
%ADD253R,0.02330X0.00084*%
%ADD254R,0.01340X0.00084*%
%ADD255R,0.02500X0.00083*%
%ADD256R,0.02670X0.00083*%
%ADD257R,0.02330X0.00083*%
%ADD258R,0.01580X0.00084*%
%ADD259R,0.02660X0.00084*%
%ADD260R,0.03340X0.00084*%
%ADD261R,0.01830X0.00084*%
%ADD262R,0.02000X0.00084*%
%ADD263R,0.01910X0.00083*%
%ADD264R,0.01670X0.00083*%
%ADD265R,0.03830X0.00084*%
%ADD266R,0.02250X0.00084*%
%ADD267R,0.04000X0.00083*%
%ADD268R,0.02170X0.00083*%
%ADD269R,0.04250X0.00083*%
%ADD270R,0.02160X0.00083*%
%ADD271R,0.02240X0.00083*%
%ADD272R,0.02240X0.00084*%
%ADD273R,0.05340X0.00083*%
%ADD274R,0.05500X0.00083*%
%ADD275R,0.05750X0.00084*%
%ADD276R,0.06500X0.00084*%
%ADD277R,0.06750X0.00083*%
%ADD278R,0.07000X0.00083*%
%ADD279R,0.07170X0.00084*%
%ADD280R,0.07500X0.00083*%
%ADD281R,0.07660X0.00083*%
%ADD282R,0.02090X0.00083*%
%ADD283R,0.02920X0.00084*%
%ADD284R,0.08500X0.00083*%
%ADD285R,0.01920X0.00084*%
%ADD286R,0.08920X0.00083*%
%ADD287R,0.09170X0.00083*%
%ADD288R,0.01920X0.00083*%
%ADD289R,0.09420X0.00084*%
%ADD290R,0.00830X0.00084*%
%ADD291R,0.01840X0.00084*%
%ADD292R,0.01830X0.00083*%
%ADD293R,0.10090X0.00084*%
%ADD294R,0.01760X0.00084*%
%ADD295R,0.10340X0.00083*%
%ADD296R,0.01670X0.00083*%
%ADD297R,0.10750X0.00084*%
%ADD298R,0.11170X0.00084*%
%ADD299R,0.11250X0.00083*%
%ADD300R,0.00840X0.00083*%
%ADD301R,0.11170X0.00084*%
%ADD302R,0.00510X0.00084*%
%ADD303R,0.00840X0.00084*%
%ADD304R,0.11170X0.00083*%
%ADD305R,0.00580X0.00084*%
%ADD306R,0.00420X0.00083*%
%ADD307R,0.11330X0.00084*%
%ADD308R,0.00330X0.00083*%
%ADD309R,0.12500X0.00083*%
%ADD310R,0.12590X0.00084*%
%ADD311R,0.12830X0.00084*%
%ADD312R,0.12920X0.00083*%
%ADD313R,0.13000X0.00084*%
%ADD314R,0.13080X0.00083*%
%ADD315R,0.13170X0.00084*%
%ADD316R,0.13170X0.00083*%
%ADD317R,0.13330X0.00084*%
%ADD318R,0.13340X0.00083*%
%ADD319R,0.13360X0.00083*%
%ADD320R,0.13320X0.00084*%
%ADD321R,0.13200X0.00083*%
%ADD322R,0.12930X0.00083*%
%ADD323R,0.12710X0.00084*%
%ADD324R,0.12490X0.00083*%
%ADD325R,0.12220X0.00083*%
%ADD326R,0.12030X0.00084*%
%ADD327R,0.11830X0.00083*%
%ADD328R,0.11500X0.00083*%
%ADD329R,0.11250X0.00084*%
%ADD330R,0.10670X0.00083*%
%ADD331R,0.10500X0.00084*%
%ADD332R,0.10170X0.00083*%
%ADD333R,0.09590X0.00084*%
%ADD334R,0.09000X0.00083*%
%ADD335R,0.08170X0.00083*%
%ADD336R,0.07750X0.00083*%
%ADD337R,0.07330X0.00084*%
%ADD338R,0.06830X0.00083*%
%ADD339R,0.06330X0.00083*%
%ADD340R,0.05830X0.00084*%
%ADD341R,0.05170X0.00083*%
%ADD342R,0.04670X0.00083*%
%ADD343C,0.00600*%
%ADD344C,0.00500*%
%ADD345C,0.01000*%
%ADD346C,0.01200*%
D10*
X0012350Y0030950D02*
X0008050Y0041950D01*
X0008050Y0064150D01*
X0012350Y0075150D01*
X0030950Y0093750D01*
X0043650Y0098450D01*
X0062450Y0098450D01*
X0075150Y0093750D01*
X0093750Y0075150D01*
X0098050Y0064150D01*
X0098050Y0041950D01*
X0093750Y0030950D01*
X0075150Y0012350D01*
X0062450Y0007650D01*
X0043650Y0007650D01*
X0030950Y0012350D01*
X0012350Y0030950D01*
D11*
X0042098Y0032037D03*
X0051098Y0032787D03*
X0053348Y0027537D03*
X0046098Y0019037D03*
D12*
X0046098Y0019120D03*
D13*
X0046098Y0019203D03*
D14*
X0046098Y0019287D03*
D15*
X0046098Y0019370D03*
D16*
X0046058Y0019453D03*
X0045638Y0023953D03*
X0039478Y0032953D03*
D17*
X0046098Y0019537D03*
D18*
X0046098Y0019620D03*
D19*
X0046098Y0019703D03*
D20*
X0046093Y0019787D03*
D21*
X0046143Y0019870D03*
D22*
X0046131Y0019953D03*
D23*
X0046116Y0020037D03*
D24*
X0046101Y0020120D03*
D25*
X0046126Y0020203D03*
D26*
X0046241Y0020287D03*
D27*
X0046381Y0020370D03*
D28*
X0046541Y0020453D03*
D29*
X0046656Y0020537D03*
D30*
X0046833Y0020620D03*
D31*
X0046993Y0020703D03*
D32*
X0047098Y0020787D03*
D33*
X0047223Y0020870D03*
X0047723Y0021203D03*
X0041723Y0034120D03*
D34*
X0047598Y0021120D03*
X0047348Y0020953D03*
D35*
X0047473Y0021037D03*
D36*
X0047853Y0021287D03*
D37*
X0038393Y0021370D03*
X0037893Y0024120D03*
X0038143Y0024370D03*
D38*
X0047263Y0027870D03*
X0047933Y0021370D03*
D39*
X0051683Y0030620D03*
X0038513Y0021453D03*
D40*
X0044308Y0024203D03*
X0048058Y0021453D03*
D41*
X0038638Y0021537D03*
X0050808Y0033537D03*
X0051558Y0030787D03*
D42*
X0048223Y0021537D03*
D43*
X0047183Y0023703D03*
X0038763Y0021620D03*
D44*
X0048348Y0021620D03*
D45*
X0038803Y0021703D03*
X0051393Y0031120D03*
X0051393Y0031203D03*
X0051393Y0031370D03*
D46*
X0048433Y0021703D03*
D47*
X0038888Y0021787D03*
X0043808Y0032537D03*
D48*
X0048558Y0021787D03*
D49*
X0038973Y0021870D03*
D50*
X0048683Y0021870D03*
D51*
X0039808Y0023203D03*
X0039058Y0021953D03*
X0044058Y0032620D03*
X0044388Y0032703D03*
X0054388Y0030370D03*
D52*
X0048808Y0021953D03*
D53*
X0039098Y0022037D03*
X0037348Y0031537D03*
X0046518Y0033287D03*
D54*
X0048933Y0022037D03*
D55*
X0039643Y0022870D03*
X0039643Y0022953D03*
X0039143Y0022120D03*
X0045893Y0033120D03*
D56*
X0047558Y0028120D03*
X0049058Y0022120D03*
D57*
X0053723Y0027870D03*
X0047973Y0031370D03*
X0039473Y0022620D03*
X0039223Y0022203D03*
X0037473Y0031620D03*
D58*
X0049183Y0022203D03*
D59*
X0044263Y0023787D03*
X0039433Y0022537D03*
X0039263Y0022287D03*
X0048103Y0031287D03*
X0045603Y0033037D03*
D60*
X0041138Y0033787D03*
X0049308Y0022287D03*
D61*
X0053763Y0027953D03*
X0046853Y0033370D03*
X0045263Y0032953D03*
X0039513Y0022703D03*
X0039353Y0022453D03*
X0039353Y0022370D03*
D62*
X0049433Y0022370D03*
D63*
X0049558Y0022453D03*
D64*
X0049683Y0022537D03*
X0046103Y0038787D03*
D65*
X0040808Y0033620D03*
X0049808Y0022620D03*
X0049978Y0022703D03*
D66*
X0039558Y0022787D03*
D67*
X0050103Y0022787D03*
X0040603Y0033537D03*
D68*
X0037603Y0030203D03*
X0046513Y0022870D03*
X0052513Y0027120D03*
X0048433Y0034120D03*
X0052263Y0035370D03*
X0046103Y0039703D03*
D69*
X0050973Y0022870D03*
D70*
X0051223Y0022953D03*
D71*
X0044683Y0032787D03*
X0039683Y0023037D03*
D72*
X0051393Y0023037D03*
D73*
X0044268Y0023703D03*
X0039768Y0023120D03*
X0047928Y0031453D03*
X0047098Y0033453D03*
X0045018Y0032870D03*
X0046098Y0039620D03*
D74*
X0051478Y0023120D03*
D75*
X0051643Y0023203D03*
D76*
X0053638Y0027787D03*
X0039808Y0023287D03*
D77*
X0038183Y0024787D03*
X0037763Y0030287D03*
X0044353Y0023287D03*
X0051513Y0034787D03*
D78*
X0051723Y0023287D03*
D79*
X0039848Y0023370D03*
D80*
X0038138Y0024453D03*
X0044308Y0023370D03*
X0039728Y0031203D03*
X0049888Y0034703D03*
X0051808Y0030120D03*
X0054478Y0030703D03*
D81*
X0051848Y0023370D03*
D82*
X0046473Y0028870D03*
X0043473Y0032453D03*
X0047643Y0033620D03*
X0039893Y0023453D03*
D83*
X0044308Y0023453D03*
X0047228Y0023620D03*
X0041058Y0031703D03*
X0040808Y0031620D03*
X0050308Y0034203D03*
D84*
X0052053Y0023620D03*
X0051893Y0023453D03*
D85*
X0039933Y0023537D03*
D86*
X0044268Y0023537D03*
X0051018Y0033037D03*
D87*
X0047263Y0023537D03*
X0039433Y0023787D03*
D88*
X0051973Y0023537D03*
D89*
X0053473Y0027620D03*
X0039973Y0023620D03*
D90*
X0044263Y0023620D03*
X0047683Y0031620D03*
X0043183Y0032370D03*
X0054433Y0030453D03*
D91*
X0039558Y0023703D03*
D92*
X0052433Y0023703D03*
D93*
X0037518Y0023787D03*
X0037348Y0030037D03*
D94*
X0047143Y0023787D03*
D95*
X0052643Y0023787D03*
X0038393Y0032287D03*
D96*
X0037643Y0023870D03*
D97*
X0039388Y0023870D03*
X0038388Y0030620D03*
D98*
X0041223Y0023870D03*
X0051723Y0030453D03*
D99*
X0045603Y0023870D03*
X0039353Y0032870D03*
D100*
X0052808Y0023870D03*
D101*
X0048183Y0033953D03*
X0037683Y0023953D03*
D102*
X0039308Y0023953D03*
D103*
X0041223Y0023953D03*
X0050893Y0033370D03*
X0050973Y0033120D03*
X0050723Y0033620D03*
D104*
X0052893Y0023953D03*
D105*
X0037808Y0024037D03*
D106*
X0039308Y0024037D03*
X0049978Y0035537D03*
X0052808Y0035787D03*
D107*
X0044393Y0024037D03*
D108*
X0053013Y0024037D03*
D109*
X0044348Y0024120D03*
X0046098Y0038620D03*
D110*
X0054058Y0028703D03*
X0053058Y0024120D03*
D111*
X0049973Y0034620D03*
X0037973Y0024203D03*
D112*
X0053183Y0024203D03*
D113*
X0050013Y0034537D03*
X0038103Y0024287D03*
D114*
X0044263Y0024287D03*
X0047183Y0027787D03*
D115*
X0053253Y0024287D03*
D116*
X0044638Y0024370D03*
D117*
X0053356Y0024370D03*
D118*
X0044768Y0024453D03*
X0043018Y0034953D03*
X0043268Y0035370D03*
D119*
X0053551Y0024453D03*
D120*
X0038098Y0024537D03*
D121*
X0044763Y0024537D03*
D122*
X0053741Y0024537D03*
D123*
X0051518Y0034870D03*
X0051848Y0035120D03*
X0038098Y0024620D03*
D124*
X0044808Y0024620D03*
X0046138Y0026703D03*
D125*
X0053891Y0024620D03*
D126*
X0052013Y0035203D03*
X0038183Y0024703D03*
D127*
X0044808Y0024703D03*
X0046058Y0026620D03*
D128*
X0054076Y0024703D03*
D129*
X0044848Y0024787D03*
D130*
X0054221Y0024787D03*
D131*
X0038183Y0024870D03*
X0037183Y0029953D03*
D132*
X0044058Y0035620D03*
X0044808Y0024870D03*
D133*
X0054366Y0024870D03*
D134*
X0038183Y0024953D03*
D135*
X0044808Y0024953D03*
X0045558Y0026120D03*
D136*
X0054498Y0024953D03*
D137*
X0044808Y0025037D03*
D138*
X0054693Y0025037D03*
D139*
X0045308Y0025870D03*
X0044808Y0025120D03*
D140*
X0054838Y0025120D03*
D141*
X0044808Y0025203D03*
X0045058Y0036370D03*
D142*
X0054991Y0025203D03*
D143*
X0044848Y0025287D03*
D144*
X0055131Y0025287D03*
D145*
X0044808Y0025370D03*
X0045388Y0036703D03*
X0045638Y0036870D03*
D146*
X0055231Y0025370D03*
D147*
X0044848Y0025453D03*
X0045768Y0036953D03*
D148*
X0055376Y0025453D03*
D149*
X0044978Y0025537D03*
D150*
X0055506Y0025537D03*
D151*
X0045018Y0025620D03*
D152*
X0045103Y0025703D03*
X0044853Y0036203D03*
D153*
X0045223Y0025787D03*
D154*
X0045388Y0025953D03*
X0044388Y0035870D03*
X0044478Y0035953D03*
D155*
X0045473Y0026037D03*
D156*
X0045643Y0026203D03*
D157*
X0045683Y0026287D03*
D158*
X0045808Y0026370D03*
D159*
X0045893Y0026453D03*
D160*
X0045973Y0026537D03*
D161*
X0046223Y0026787D03*
D162*
X0046308Y0026870D03*
D163*
X0052348Y0026870D03*
X0053098Y0036120D03*
D164*
X0046348Y0026953D03*
D165*
X0052388Y0026953D03*
X0051478Y0034703D03*
X0052728Y0035703D03*
X0052888Y0035870D03*
X0037058Y0029870D03*
D166*
X0046433Y0027037D03*
D167*
X0052433Y0027037D03*
X0052513Y0035537D03*
D168*
X0046103Y0038120D03*
X0042763Y0034703D03*
X0046513Y0027120D03*
D169*
X0046598Y0027203D03*
X0042598Y0034620D03*
D170*
X0052598Y0027203D03*
D171*
X0046678Y0027287D03*
D172*
X0052723Y0027287D03*
X0038723Y0030787D03*
D173*
X0042353Y0034453D03*
X0046763Y0027370D03*
D174*
X0052928Y0027370D03*
X0055768Y0029870D03*
X0039518Y0031120D03*
D175*
X0046848Y0027453D03*
D176*
X0053223Y0027453D03*
D177*
X0046933Y0027537D03*
D178*
X0047013Y0027620D03*
D179*
X0047098Y0027703D03*
X0041848Y0034203D03*
X0046098Y0038453D03*
D180*
X0053558Y0027703D03*
D181*
X0047388Y0027953D03*
D182*
X0047433Y0028037D03*
D183*
X0050308Y0028537D03*
X0053808Y0028037D03*
D184*
X0053848Y0028120D03*
X0050098Y0029120D03*
X0049598Y0029870D03*
X0048598Y0030870D03*
X0048348Y0031120D03*
X0037598Y0031703D03*
D185*
X0047638Y0028203D03*
D186*
X0049388Y0030120D03*
X0049308Y0030203D03*
X0049138Y0030370D03*
X0049058Y0030453D03*
X0048888Y0030620D03*
X0048808Y0030703D03*
X0053888Y0028203D03*
X0054388Y0030203D03*
D187*
X0046138Y0028287D03*
D188*
X0050143Y0029037D03*
X0050223Y0028787D03*
X0050393Y0028287D03*
X0054393Y0030287D03*
D189*
X0053893Y0028287D03*
D190*
X0046183Y0028370D03*
D191*
X0048223Y0031203D03*
X0049893Y0029453D03*
X0050223Y0028870D03*
X0050393Y0028453D03*
X0050393Y0028370D03*
X0046223Y0033203D03*
D192*
X0046433Y0028703D03*
X0053183Y0029870D03*
X0054353Y0030120D03*
X0053933Y0028370D03*
X0037763Y0031870D03*
D193*
X0038518Y0032370D03*
X0046268Y0028453D03*
D194*
X0053143Y0029953D03*
X0053973Y0028453D03*
X0037893Y0031953D03*
D195*
X0046308Y0028537D03*
D196*
X0053978Y0028537D03*
D197*
X0046353Y0028620D03*
D198*
X0050058Y0029203D03*
X0050308Y0028703D03*
X0050308Y0028620D03*
D199*
X0054018Y0028620D03*
D200*
X0049683Y0029787D03*
X0049433Y0030037D03*
X0048683Y0030787D03*
X0048433Y0031037D03*
X0046433Y0028787D03*
D201*
X0054058Y0028787D03*
D202*
X0054183Y0028870D03*
D203*
X0051518Y0030870D03*
X0046518Y0028953D03*
D204*
X0049683Y0029703D03*
X0049933Y0029370D03*
X0050183Y0028953D03*
D205*
X0054308Y0028953D03*
D206*
X0051808Y0030287D03*
X0046558Y0029037D03*
D207*
X0054143Y0029537D03*
X0054393Y0029037D03*
D208*
X0054393Y0029120D03*
X0054143Y0029453D03*
X0038643Y0032453D03*
D209*
X0054058Y0029620D03*
X0054308Y0029203D03*
D210*
X0050018Y0029287D03*
D211*
X0054263Y0029287D03*
X0038763Y0032537D03*
D212*
X0053973Y0029703D03*
X0054223Y0029370D03*
D213*
X0049848Y0029537D03*
D214*
X0049768Y0029620D03*
X0049518Y0029953D03*
X0048518Y0030953D03*
D215*
X0048643Y0034203D03*
X0052973Y0035953D03*
X0036803Y0029703D03*
D216*
X0036928Y0029787D03*
X0053018Y0036037D03*
D217*
X0053223Y0029787D03*
D218*
X0055768Y0029787D03*
D219*
X0035976Y0029953D03*
D220*
X0047223Y0031953D03*
X0055723Y0029953D03*
D221*
X0036019Y0030037D03*
D222*
X0049848Y0034787D03*
X0051848Y0030037D03*
D223*
X0054348Y0030037D03*
X0046098Y0039537D03*
D224*
X0036061Y0030120D03*
D225*
X0037473Y0030120D03*
D226*
X0036150Y0030203D03*
D227*
X0040098Y0031370D03*
X0051848Y0030203D03*
D228*
X0036193Y0030287D03*
D229*
X0048978Y0030537D03*
X0049228Y0030287D03*
D230*
X0036281Y0030370D03*
D231*
X0037888Y0030370D03*
X0038058Y0030453D03*
D232*
X0040353Y0031453D03*
X0048103Y0033870D03*
X0051763Y0030370D03*
D233*
X0036326Y0030453D03*
D234*
X0036416Y0030537D03*
D235*
X0038228Y0030537D03*
D236*
X0051683Y0030537D03*
D237*
X0051263Y0032287D03*
X0050933Y0033287D03*
X0054433Y0030537D03*
D238*
X0036461Y0030620D03*
D239*
X0054433Y0030620D03*
D240*
X0036546Y0030703D03*
D241*
X0038558Y0030703D03*
X0051558Y0034953D03*
D242*
X0050683Y0033703D03*
X0051603Y0030703D03*
D243*
X0036631Y0030787D03*
D244*
X0036671Y0030870D03*
D245*
X0038933Y0030870D03*
X0039103Y0030953D03*
X0049763Y0034870D03*
D246*
X0036751Y0030953D03*
D247*
X0047558Y0031703D03*
X0051138Y0032703D03*
X0051308Y0032203D03*
X0051308Y0032120D03*
X0051308Y0031953D03*
X0051478Y0030953D03*
D248*
X0036836Y0031037D03*
D249*
X0039308Y0031037D03*
D250*
X0042893Y0032287D03*
X0051393Y0031287D03*
X0051393Y0031037D03*
D251*
X0036921Y0031120D03*
D252*
X0037006Y0031203D03*
D253*
X0037098Y0031287D03*
X0051348Y0031537D03*
X0051348Y0031787D03*
D254*
X0039933Y0031287D03*
D255*
X0037183Y0031370D03*
D256*
X0037268Y0031453D03*
D257*
X0042598Y0032203D03*
X0047768Y0033703D03*
X0051348Y0031870D03*
X0051348Y0031703D03*
X0051348Y0031620D03*
X0051348Y0031453D03*
D258*
X0040553Y0031537D03*
D259*
X0047763Y0031537D03*
D260*
X0037683Y0031787D03*
D261*
X0041268Y0031787D03*
D262*
X0047433Y0031787D03*
X0050603Y0033787D03*
D263*
X0050558Y0033870D03*
X0041808Y0031953D03*
X0041558Y0031870D03*
D264*
X0047348Y0031870D03*
X0050098Y0034453D03*
D265*
X0038018Y0032037D03*
D266*
X0051308Y0032037D03*
D267*
X0038103Y0032120D03*
D268*
X0042348Y0032120D03*
X0051098Y0032870D03*
X0051098Y0032953D03*
D269*
X0038228Y0032203D03*
D270*
X0050933Y0033203D03*
X0051183Y0032620D03*
X0051263Y0032370D03*
D271*
X0051223Y0032453D03*
D272*
X0051223Y0032537D03*
D273*
X0038933Y0032620D03*
D274*
X0039013Y0032703D03*
D275*
X0039228Y0032787D03*
D276*
X0039683Y0033037D03*
D277*
X0039808Y0033120D03*
D278*
X0040013Y0033203D03*
D279*
X0040098Y0033287D03*
D280*
X0040263Y0033370D03*
D281*
X0040433Y0033453D03*
D282*
X0050808Y0033453D03*
D283*
X0047393Y0033537D03*
D284*
X0040933Y0033703D03*
D285*
X0047893Y0033787D03*
D286*
X0041223Y0033870D03*
D287*
X0041428Y0033953D03*
D288*
X0050473Y0033953D03*
D289*
X0041553Y0034037D03*
D290*
X0048348Y0034037D03*
D291*
X0050433Y0034037D03*
D292*
X0050348Y0034120D03*
D293*
X0042058Y0034287D03*
D294*
X0050223Y0034287D03*
D295*
X0042183Y0034370D03*
D296*
X0050178Y0034370D03*
D297*
X0042478Y0034537D03*
D298*
X0042848Y0034787D03*
D299*
X0042978Y0034870D03*
X0043308Y0035453D03*
D300*
X0049683Y0034953D03*
D301*
X0043178Y0035287D03*
X0043018Y0035037D03*
D302*
X0049598Y0035037D03*
D303*
X0051683Y0035037D03*
D304*
X0043098Y0035120D03*
X0043098Y0035203D03*
D305*
X0052143Y0035287D03*
D306*
X0052393Y0035453D03*
D307*
X0043428Y0035537D03*
D308*
X0052598Y0035620D03*
D309*
X0044183Y0035703D03*
D310*
X0044308Y0035787D03*
D311*
X0044598Y0036037D03*
D312*
X0044723Y0036120D03*
D313*
X0044933Y0036287D03*
D314*
X0045143Y0036453D03*
D315*
X0045268Y0036537D03*
D316*
X0045348Y0036620D03*
D317*
X0045518Y0036787D03*
X0045848Y0037037D03*
D318*
X0045933Y0037120D03*
D319*
X0046033Y0037203D03*
D320*
X0046093Y0037287D03*
D321*
X0046113Y0037370D03*
D322*
X0046148Y0037453D03*
D323*
X0046118Y0037537D03*
D324*
X0046098Y0037620D03*
D325*
X0046123Y0037703D03*
D326*
X0046118Y0037787D03*
D327*
X0046098Y0037870D03*
D328*
X0046103Y0037953D03*
D329*
X0046058Y0038037D03*
D330*
X0046098Y0038203D03*
D331*
X0046103Y0038287D03*
D332*
X0046098Y0038370D03*
D333*
X0046058Y0038537D03*
D334*
X0046103Y0038703D03*
D335*
X0046098Y0038870D03*
D336*
X0046058Y0038953D03*
D337*
X0046098Y0039037D03*
D338*
X0046098Y0039120D03*
D339*
X0046098Y0039203D03*
D340*
X0046098Y0039287D03*
D341*
X0046098Y0039370D03*
D342*
X0046098Y0039453D03*
D343*
X0051201Y0019353D02*
X0052903Y0019353D01*
X0053470Y0018786D01*
X0053470Y0017651D01*
X0052903Y0017084D01*
X0051201Y0017084D01*
X0051201Y0015950D02*
X0051201Y0019353D01*
X0049880Y0018219D02*
X0048746Y0018219D01*
X0049313Y0018786D02*
X0049313Y0016517D01*
X0049880Y0015950D01*
X0050094Y0014153D02*
X0047825Y0014153D01*
X0048960Y0014153D02*
X0048960Y0010750D01*
X0051508Y0010750D02*
X0053777Y0010750D01*
X0055192Y0010750D02*
X0057460Y0010750D01*
X0056326Y0010750D02*
X0056326Y0014153D01*
X0055192Y0013019D01*
X0054885Y0015950D02*
X0054885Y0018219D01*
X0056019Y0018219D02*
X0054885Y0017084D01*
X0056019Y0018219D02*
X0056586Y0018219D01*
X0057954Y0017651D02*
X0057954Y0016517D01*
X0058521Y0015950D01*
X0059655Y0015950D01*
X0060223Y0016517D01*
X0060223Y0017651D01*
X0059655Y0018219D01*
X0058521Y0018219D01*
X0057954Y0017651D01*
X0061637Y0018219D02*
X0063339Y0018219D01*
X0063906Y0017651D01*
X0063906Y0016517D01*
X0063339Y0015950D01*
X0061637Y0015950D01*
X0061637Y0019353D01*
X0065320Y0017651D02*
X0065320Y0016517D01*
X0065887Y0015950D01*
X0067022Y0015950D01*
X0067589Y0017084D02*
X0065320Y0017084D01*
X0065320Y0017651D02*
X0065887Y0018219D01*
X0067022Y0018219D01*
X0067589Y0017651D01*
X0067589Y0017084D01*
X0051508Y0014153D02*
X0051508Y0010750D01*
X0046764Y0015950D02*
X0047332Y0016517D01*
X0046764Y0017084D01*
X0045630Y0017084D01*
X0045063Y0017651D01*
X0045630Y0018219D01*
X0047332Y0018219D01*
X0046764Y0015950D02*
X0045063Y0015950D01*
X0043648Y0017084D02*
X0041380Y0017084D01*
X0041380Y0016517D02*
X0041380Y0017651D01*
X0041947Y0018219D01*
X0043081Y0018219D01*
X0043648Y0017651D01*
X0043648Y0017084D01*
X0043081Y0015950D02*
X0041947Y0015950D01*
X0041380Y0016517D01*
X0039965Y0015950D02*
X0039965Y0019353D01*
X0037697Y0019353D02*
X0039965Y0015950D01*
X0037697Y0015950D02*
X0037697Y0019353D01*
D344*
X0039270Y0062893D02*
X0043207Y0062893D01*
X0043207Y0066830D01*
X0039270Y0062893D01*
X0041144Y0081676D02*
X0039176Y0083644D01*
X0041144Y0083644D01*
X0041144Y0081676D01*
D345*
X0056074Y0074121D02*
X0056076Y0074246D01*
X0056082Y0074370D01*
X0056092Y0074494D01*
X0056106Y0074618D01*
X0056124Y0074741D01*
X0056145Y0074864D01*
X0056171Y0074986D01*
X0056200Y0075107D01*
X0056234Y0075227D01*
X0056271Y0075345D01*
X0056312Y0075463D01*
X0056357Y0075579D01*
X0056405Y0075694D01*
X0056457Y0075807D01*
X0056512Y0075919D01*
X0056572Y0076028D01*
X0056634Y0076136D01*
X0056700Y0076242D01*
X0056769Y0076345D01*
X0056842Y0076446D01*
X0056918Y0076545D01*
X0056997Y0076642D01*
X0057078Y0076735D01*
X0057163Y0076827D01*
X0057251Y0076915D01*
X0057341Y0077001D01*
X0057435Y0077083D01*
X0057530Y0077163D01*
X0057629Y0077239D01*
X0057729Y0077313D01*
X0057832Y0077383D01*
X0057937Y0077450D01*
X0058045Y0077513D01*
X0058154Y0077573D01*
X0058265Y0077630D01*
X0058377Y0077682D01*
X0058492Y0077732D01*
X0058608Y0077777D01*
X0058725Y0077819D01*
X0058844Y0077857D01*
X0058963Y0077892D01*
X0059084Y0077922D01*
X0059206Y0077949D01*
X0059328Y0077971D01*
X0059451Y0077990D01*
X0059575Y0078005D01*
X0059699Y0078016D01*
X0059823Y0078023D01*
X0059948Y0078026D01*
X0060072Y0078025D01*
X0060197Y0078020D01*
X0060321Y0078011D01*
X0060445Y0077998D01*
X0060568Y0077981D01*
X0060691Y0077961D01*
X0060813Y0077936D01*
X0060934Y0077907D01*
X0061055Y0077875D01*
X0061174Y0077839D01*
X0061292Y0077799D01*
X0061408Y0077755D01*
X0061524Y0077708D01*
X0061637Y0077656D01*
X0061749Y0077602D01*
X0061859Y0077544D01*
X0061967Y0077482D01*
X0062074Y0077417D01*
X0062178Y0077348D01*
X0062279Y0077277D01*
X0062379Y0077202D01*
X0062476Y0077123D01*
X0062570Y0077042D01*
X0062662Y0076958D01*
X0062751Y0076871D01*
X0062838Y0076781D01*
X0062921Y0076689D01*
X0063001Y0076594D01*
X0063079Y0076496D01*
X0063153Y0076396D01*
X0063224Y0076294D01*
X0063291Y0076189D01*
X0063356Y0076082D01*
X0063416Y0075974D01*
X0063474Y0075863D01*
X0063528Y0075751D01*
X0063578Y0075637D01*
X0063624Y0075521D01*
X0063667Y0075404D01*
X0063706Y0075286D01*
X0063741Y0075167D01*
X0063773Y0075046D01*
X0063800Y0074925D01*
X0063824Y0074803D01*
X0063844Y0074680D01*
X0063860Y0074556D01*
X0063872Y0074432D01*
X0063880Y0074308D01*
X0063884Y0074183D01*
X0063884Y0074059D01*
X0063880Y0073934D01*
X0063872Y0073810D01*
X0063860Y0073686D01*
X0063844Y0073562D01*
X0063824Y0073439D01*
X0063800Y0073317D01*
X0063773Y0073196D01*
X0063741Y0073075D01*
X0063706Y0072956D01*
X0063667Y0072838D01*
X0063624Y0072721D01*
X0063578Y0072605D01*
X0063528Y0072491D01*
X0063474Y0072379D01*
X0063416Y0072268D01*
X0063356Y0072160D01*
X0063291Y0072053D01*
X0063224Y0071948D01*
X0063153Y0071846D01*
X0063079Y0071746D01*
X0063001Y0071648D01*
X0062921Y0071553D01*
X0062838Y0071461D01*
X0062751Y0071371D01*
X0062662Y0071284D01*
X0062570Y0071200D01*
X0062476Y0071119D01*
X0062379Y0071040D01*
X0062279Y0070965D01*
X0062178Y0070894D01*
X0062074Y0070825D01*
X0061967Y0070760D01*
X0061859Y0070698D01*
X0061749Y0070640D01*
X0061637Y0070586D01*
X0061524Y0070534D01*
X0061408Y0070487D01*
X0061292Y0070443D01*
X0061174Y0070403D01*
X0061055Y0070367D01*
X0060934Y0070335D01*
X0060813Y0070306D01*
X0060691Y0070281D01*
X0060568Y0070261D01*
X0060445Y0070244D01*
X0060321Y0070231D01*
X0060197Y0070222D01*
X0060072Y0070217D01*
X0059948Y0070216D01*
X0059823Y0070219D01*
X0059699Y0070226D01*
X0059575Y0070237D01*
X0059451Y0070252D01*
X0059328Y0070271D01*
X0059206Y0070293D01*
X0059084Y0070320D01*
X0058963Y0070350D01*
X0058844Y0070385D01*
X0058725Y0070423D01*
X0058608Y0070465D01*
X0058492Y0070510D01*
X0058377Y0070560D01*
X0058265Y0070612D01*
X0058154Y0070669D01*
X0058045Y0070729D01*
X0057937Y0070792D01*
X0057832Y0070859D01*
X0057729Y0070929D01*
X0057629Y0071003D01*
X0057530Y0071079D01*
X0057435Y0071159D01*
X0057341Y0071241D01*
X0057251Y0071327D01*
X0057163Y0071415D01*
X0057078Y0071507D01*
X0056997Y0071600D01*
X0056918Y0071697D01*
X0056842Y0071796D01*
X0056769Y0071897D01*
X0056700Y0072000D01*
X0056634Y0072106D01*
X0056572Y0072214D01*
X0056512Y0072323D01*
X0056457Y0072435D01*
X0056405Y0072548D01*
X0056357Y0072663D01*
X0056312Y0072779D01*
X0056271Y0072897D01*
X0056234Y0073015D01*
X0056200Y0073135D01*
X0056171Y0073256D01*
X0056145Y0073378D01*
X0056124Y0073501D01*
X0056106Y0073624D01*
X0056092Y0073748D01*
X0056082Y0073872D01*
X0056076Y0073996D01*
X0056074Y0074121D01*
X0063145Y0067050D02*
X0063147Y0067175D01*
X0063153Y0067299D01*
X0063163Y0067423D01*
X0063177Y0067547D01*
X0063195Y0067670D01*
X0063216Y0067793D01*
X0063242Y0067915D01*
X0063271Y0068036D01*
X0063305Y0068156D01*
X0063342Y0068274D01*
X0063383Y0068392D01*
X0063428Y0068508D01*
X0063476Y0068623D01*
X0063528Y0068736D01*
X0063583Y0068848D01*
X0063643Y0068957D01*
X0063705Y0069065D01*
X0063771Y0069171D01*
X0063840Y0069274D01*
X0063913Y0069375D01*
X0063989Y0069474D01*
X0064068Y0069571D01*
X0064149Y0069664D01*
X0064234Y0069756D01*
X0064322Y0069844D01*
X0064412Y0069930D01*
X0064506Y0070012D01*
X0064601Y0070092D01*
X0064700Y0070168D01*
X0064800Y0070242D01*
X0064903Y0070312D01*
X0065008Y0070379D01*
X0065116Y0070442D01*
X0065225Y0070502D01*
X0065336Y0070559D01*
X0065448Y0070611D01*
X0065563Y0070661D01*
X0065679Y0070706D01*
X0065796Y0070748D01*
X0065915Y0070786D01*
X0066034Y0070821D01*
X0066155Y0070851D01*
X0066277Y0070878D01*
X0066399Y0070900D01*
X0066522Y0070919D01*
X0066646Y0070934D01*
X0066770Y0070945D01*
X0066894Y0070952D01*
X0067019Y0070955D01*
X0067143Y0070954D01*
X0067268Y0070949D01*
X0067392Y0070940D01*
X0067516Y0070927D01*
X0067639Y0070910D01*
X0067762Y0070890D01*
X0067884Y0070865D01*
X0068005Y0070836D01*
X0068126Y0070804D01*
X0068245Y0070768D01*
X0068363Y0070728D01*
X0068479Y0070684D01*
X0068595Y0070637D01*
X0068708Y0070585D01*
X0068820Y0070531D01*
X0068930Y0070473D01*
X0069038Y0070411D01*
X0069145Y0070346D01*
X0069249Y0070277D01*
X0069350Y0070206D01*
X0069450Y0070131D01*
X0069547Y0070052D01*
X0069641Y0069971D01*
X0069733Y0069887D01*
X0069822Y0069800D01*
X0069909Y0069710D01*
X0069992Y0069618D01*
X0070072Y0069523D01*
X0070150Y0069425D01*
X0070224Y0069325D01*
X0070295Y0069223D01*
X0070362Y0069118D01*
X0070427Y0069011D01*
X0070487Y0068903D01*
X0070545Y0068792D01*
X0070599Y0068680D01*
X0070649Y0068566D01*
X0070695Y0068450D01*
X0070738Y0068333D01*
X0070777Y0068215D01*
X0070812Y0068096D01*
X0070844Y0067975D01*
X0070871Y0067854D01*
X0070895Y0067732D01*
X0070915Y0067609D01*
X0070931Y0067485D01*
X0070943Y0067361D01*
X0070951Y0067237D01*
X0070955Y0067112D01*
X0070955Y0066988D01*
X0070951Y0066863D01*
X0070943Y0066739D01*
X0070931Y0066615D01*
X0070915Y0066491D01*
X0070895Y0066368D01*
X0070871Y0066246D01*
X0070844Y0066125D01*
X0070812Y0066004D01*
X0070777Y0065885D01*
X0070738Y0065767D01*
X0070695Y0065650D01*
X0070649Y0065534D01*
X0070599Y0065420D01*
X0070545Y0065308D01*
X0070487Y0065197D01*
X0070427Y0065089D01*
X0070362Y0064982D01*
X0070295Y0064877D01*
X0070224Y0064775D01*
X0070150Y0064675D01*
X0070072Y0064577D01*
X0069992Y0064482D01*
X0069909Y0064390D01*
X0069822Y0064300D01*
X0069733Y0064213D01*
X0069641Y0064129D01*
X0069547Y0064048D01*
X0069450Y0063969D01*
X0069350Y0063894D01*
X0069249Y0063823D01*
X0069145Y0063754D01*
X0069038Y0063689D01*
X0068930Y0063627D01*
X0068820Y0063569D01*
X0068708Y0063515D01*
X0068595Y0063463D01*
X0068479Y0063416D01*
X0068363Y0063372D01*
X0068245Y0063332D01*
X0068126Y0063296D01*
X0068005Y0063264D01*
X0067884Y0063235D01*
X0067762Y0063210D01*
X0067639Y0063190D01*
X0067516Y0063173D01*
X0067392Y0063160D01*
X0067268Y0063151D01*
X0067143Y0063146D01*
X0067019Y0063145D01*
X0066894Y0063148D01*
X0066770Y0063155D01*
X0066646Y0063166D01*
X0066522Y0063181D01*
X0066399Y0063200D01*
X0066277Y0063222D01*
X0066155Y0063249D01*
X0066034Y0063279D01*
X0065915Y0063314D01*
X0065796Y0063352D01*
X0065679Y0063394D01*
X0065563Y0063439D01*
X0065448Y0063489D01*
X0065336Y0063541D01*
X0065225Y0063598D01*
X0065116Y0063658D01*
X0065008Y0063721D01*
X0064903Y0063788D01*
X0064800Y0063858D01*
X0064700Y0063932D01*
X0064601Y0064008D01*
X0064506Y0064088D01*
X0064412Y0064170D01*
X0064322Y0064256D01*
X0064234Y0064344D01*
X0064149Y0064436D01*
X0064068Y0064529D01*
X0063989Y0064626D01*
X0063913Y0064725D01*
X0063840Y0064826D01*
X0063771Y0064929D01*
X0063705Y0065035D01*
X0063643Y0065143D01*
X0063583Y0065252D01*
X0063528Y0065364D01*
X0063476Y0065477D01*
X0063428Y0065592D01*
X0063383Y0065708D01*
X0063342Y0065826D01*
X0063305Y0065944D01*
X0063271Y0066064D01*
X0063242Y0066185D01*
X0063216Y0066307D01*
X0063195Y0066430D01*
X0063177Y0066553D01*
X0063163Y0066677D01*
X0063153Y0066801D01*
X0063147Y0066925D01*
X0063145Y0067050D01*
X0070216Y0059979D02*
X0070218Y0060104D01*
X0070224Y0060228D01*
X0070234Y0060352D01*
X0070248Y0060476D01*
X0070266Y0060599D01*
X0070287Y0060722D01*
X0070313Y0060844D01*
X0070342Y0060965D01*
X0070376Y0061085D01*
X0070413Y0061203D01*
X0070454Y0061321D01*
X0070499Y0061437D01*
X0070547Y0061552D01*
X0070599Y0061665D01*
X0070654Y0061777D01*
X0070714Y0061886D01*
X0070776Y0061994D01*
X0070842Y0062100D01*
X0070911Y0062203D01*
X0070984Y0062304D01*
X0071060Y0062403D01*
X0071139Y0062500D01*
X0071220Y0062593D01*
X0071305Y0062685D01*
X0071393Y0062773D01*
X0071483Y0062859D01*
X0071577Y0062941D01*
X0071672Y0063021D01*
X0071771Y0063097D01*
X0071871Y0063171D01*
X0071974Y0063241D01*
X0072079Y0063308D01*
X0072187Y0063371D01*
X0072296Y0063431D01*
X0072407Y0063488D01*
X0072519Y0063540D01*
X0072634Y0063590D01*
X0072750Y0063635D01*
X0072867Y0063677D01*
X0072986Y0063715D01*
X0073105Y0063750D01*
X0073226Y0063780D01*
X0073348Y0063807D01*
X0073470Y0063829D01*
X0073593Y0063848D01*
X0073717Y0063863D01*
X0073841Y0063874D01*
X0073965Y0063881D01*
X0074090Y0063884D01*
X0074214Y0063883D01*
X0074339Y0063878D01*
X0074463Y0063869D01*
X0074587Y0063856D01*
X0074710Y0063839D01*
X0074833Y0063819D01*
X0074955Y0063794D01*
X0075076Y0063765D01*
X0075197Y0063733D01*
X0075316Y0063697D01*
X0075434Y0063657D01*
X0075550Y0063613D01*
X0075666Y0063566D01*
X0075779Y0063514D01*
X0075891Y0063460D01*
X0076001Y0063402D01*
X0076109Y0063340D01*
X0076216Y0063275D01*
X0076320Y0063206D01*
X0076421Y0063135D01*
X0076521Y0063060D01*
X0076618Y0062981D01*
X0076712Y0062900D01*
X0076804Y0062816D01*
X0076893Y0062729D01*
X0076980Y0062639D01*
X0077063Y0062547D01*
X0077143Y0062452D01*
X0077221Y0062354D01*
X0077295Y0062254D01*
X0077366Y0062152D01*
X0077433Y0062047D01*
X0077498Y0061940D01*
X0077558Y0061832D01*
X0077616Y0061721D01*
X0077670Y0061609D01*
X0077720Y0061495D01*
X0077766Y0061379D01*
X0077809Y0061262D01*
X0077848Y0061144D01*
X0077883Y0061025D01*
X0077915Y0060904D01*
X0077942Y0060783D01*
X0077966Y0060661D01*
X0077986Y0060538D01*
X0078002Y0060414D01*
X0078014Y0060290D01*
X0078022Y0060166D01*
X0078026Y0060041D01*
X0078026Y0059917D01*
X0078022Y0059792D01*
X0078014Y0059668D01*
X0078002Y0059544D01*
X0077986Y0059420D01*
X0077966Y0059297D01*
X0077942Y0059175D01*
X0077915Y0059054D01*
X0077883Y0058933D01*
X0077848Y0058814D01*
X0077809Y0058696D01*
X0077766Y0058579D01*
X0077720Y0058463D01*
X0077670Y0058349D01*
X0077616Y0058237D01*
X0077558Y0058126D01*
X0077498Y0058018D01*
X0077433Y0057911D01*
X0077366Y0057806D01*
X0077295Y0057704D01*
X0077221Y0057604D01*
X0077143Y0057506D01*
X0077063Y0057411D01*
X0076980Y0057319D01*
X0076893Y0057229D01*
X0076804Y0057142D01*
X0076712Y0057058D01*
X0076618Y0056977D01*
X0076521Y0056898D01*
X0076421Y0056823D01*
X0076320Y0056752D01*
X0076216Y0056683D01*
X0076109Y0056618D01*
X0076001Y0056556D01*
X0075891Y0056498D01*
X0075779Y0056444D01*
X0075666Y0056392D01*
X0075550Y0056345D01*
X0075434Y0056301D01*
X0075316Y0056261D01*
X0075197Y0056225D01*
X0075076Y0056193D01*
X0074955Y0056164D01*
X0074833Y0056139D01*
X0074710Y0056119D01*
X0074587Y0056102D01*
X0074463Y0056089D01*
X0074339Y0056080D01*
X0074214Y0056075D01*
X0074090Y0056074D01*
X0073965Y0056077D01*
X0073841Y0056084D01*
X0073717Y0056095D01*
X0073593Y0056110D01*
X0073470Y0056129D01*
X0073348Y0056151D01*
X0073226Y0056178D01*
X0073105Y0056208D01*
X0072986Y0056243D01*
X0072867Y0056281D01*
X0072750Y0056323D01*
X0072634Y0056368D01*
X0072519Y0056418D01*
X0072407Y0056470D01*
X0072296Y0056527D01*
X0072187Y0056587D01*
X0072079Y0056650D01*
X0071974Y0056717D01*
X0071871Y0056787D01*
X0071771Y0056861D01*
X0071672Y0056937D01*
X0071577Y0057017D01*
X0071483Y0057099D01*
X0071393Y0057185D01*
X0071305Y0057273D01*
X0071220Y0057365D01*
X0071139Y0057458D01*
X0071060Y0057555D01*
X0070984Y0057654D01*
X0070911Y0057755D01*
X0070842Y0057858D01*
X0070776Y0057964D01*
X0070714Y0058072D01*
X0070654Y0058181D01*
X0070599Y0058293D01*
X0070547Y0058406D01*
X0070499Y0058521D01*
X0070454Y0058637D01*
X0070413Y0058755D01*
X0070376Y0058873D01*
X0070342Y0058993D01*
X0070313Y0059114D01*
X0070287Y0059236D01*
X0070266Y0059359D01*
X0070248Y0059482D01*
X0070234Y0059606D01*
X0070224Y0059730D01*
X0070218Y0059854D01*
X0070216Y0059979D01*
X0070216Y0074121D02*
X0070218Y0074246D01*
X0070224Y0074370D01*
X0070234Y0074494D01*
X0070248Y0074618D01*
X0070266Y0074741D01*
X0070287Y0074864D01*
X0070313Y0074986D01*
X0070342Y0075107D01*
X0070376Y0075227D01*
X0070413Y0075345D01*
X0070454Y0075463D01*
X0070499Y0075579D01*
X0070547Y0075694D01*
X0070599Y0075807D01*
X0070654Y0075919D01*
X0070714Y0076028D01*
X0070776Y0076136D01*
X0070842Y0076242D01*
X0070911Y0076345D01*
X0070984Y0076446D01*
X0071060Y0076545D01*
X0071139Y0076642D01*
X0071220Y0076735D01*
X0071305Y0076827D01*
X0071393Y0076915D01*
X0071483Y0077001D01*
X0071577Y0077083D01*
X0071672Y0077163D01*
X0071771Y0077239D01*
X0071871Y0077313D01*
X0071974Y0077383D01*
X0072079Y0077450D01*
X0072187Y0077513D01*
X0072296Y0077573D01*
X0072407Y0077630D01*
X0072519Y0077682D01*
X0072634Y0077732D01*
X0072750Y0077777D01*
X0072867Y0077819D01*
X0072986Y0077857D01*
X0073105Y0077892D01*
X0073226Y0077922D01*
X0073348Y0077949D01*
X0073470Y0077971D01*
X0073593Y0077990D01*
X0073717Y0078005D01*
X0073841Y0078016D01*
X0073965Y0078023D01*
X0074090Y0078026D01*
X0074214Y0078025D01*
X0074339Y0078020D01*
X0074463Y0078011D01*
X0074587Y0077998D01*
X0074710Y0077981D01*
X0074833Y0077961D01*
X0074955Y0077936D01*
X0075076Y0077907D01*
X0075197Y0077875D01*
X0075316Y0077839D01*
X0075434Y0077799D01*
X0075550Y0077755D01*
X0075666Y0077708D01*
X0075779Y0077656D01*
X0075891Y0077602D01*
X0076001Y0077544D01*
X0076109Y0077482D01*
X0076216Y0077417D01*
X0076320Y0077348D01*
X0076421Y0077277D01*
X0076521Y0077202D01*
X0076618Y0077123D01*
X0076712Y0077042D01*
X0076804Y0076958D01*
X0076893Y0076871D01*
X0076980Y0076781D01*
X0077063Y0076689D01*
X0077143Y0076594D01*
X0077221Y0076496D01*
X0077295Y0076396D01*
X0077366Y0076294D01*
X0077433Y0076189D01*
X0077498Y0076082D01*
X0077558Y0075974D01*
X0077616Y0075863D01*
X0077670Y0075751D01*
X0077720Y0075637D01*
X0077766Y0075521D01*
X0077809Y0075404D01*
X0077848Y0075286D01*
X0077883Y0075167D01*
X0077915Y0075046D01*
X0077942Y0074925D01*
X0077966Y0074803D01*
X0077986Y0074680D01*
X0078002Y0074556D01*
X0078014Y0074432D01*
X0078022Y0074308D01*
X0078026Y0074183D01*
X0078026Y0074059D01*
X0078022Y0073934D01*
X0078014Y0073810D01*
X0078002Y0073686D01*
X0077986Y0073562D01*
X0077966Y0073439D01*
X0077942Y0073317D01*
X0077915Y0073196D01*
X0077883Y0073075D01*
X0077848Y0072956D01*
X0077809Y0072838D01*
X0077766Y0072721D01*
X0077720Y0072605D01*
X0077670Y0072491D01*
X0077616Y0072379D01*
X0077558Y0072268D01*
X0077498Y0072160D01*
X0077433Y0072053D01*
X0077366Y0071948D01*
X0077295Y0071846D01*
X0077221Y0071746D01*
X0077143Y0071648D01*
X0077063Y0071553D01*
X0076980Y0071461D01*
X0076893Y0071371D01*
X0076804Y0071284D01*
X0076712Y0071200D01*
X0076618Y0071119D01*
X0076521Y0071040D01*
X0076421Y0070965D01*
X0076320Y0070894D01*
X0076216Y0070825D01*
X0076109Y0070760D01*
X0076001Y0070698D01*
X0075891Y0070640D01*
X0075779Y0070586D01*
X0075666Y0070534D01*
X0075550Y0070487D01*
X0075434Y0070443D01*
X0075316Y0070403D01*
X0075197Y0070367D01*
X0075076Y0070335D01*
X0074955Y0070306D01*
X0074833Y0070281D01*
X0074710Y0070261D01*
X0074587Y0070244D01*
X0074463Y0070231D01*
X0074339Y0070222D01*
X0074214Y0070217D01*
X0074090Y0070216D01*
X0073965Y0070219D01*
X0073841Y0070226D01*
X0073717Y0070237D01*
X0073593Y0070252D01*
X0073470Y0070271D01*
X0073348Y0070293D01*
X0073226Y0070320D01*
X0073105Y0070350D01*
X0072986Y0070385D01*
X0072867Y0070423D01*
X0072750Y0070465D01*
X0072634Y0070510D01*
X0072519Y0070560D01*
X0072407Y0070612D01*
X0072296Y0070669D01*
X0072187Y0070729D01*
X0072079Y0070792D01*
X0071974Y0070859D01*
X0071871Y0070929D01*
X0071771Y0071003D01*
X0071672Y0071079D01*
X0071577Y0071159D01*
X0071483Y0071241D01*
X0071393Y0071327D01*
X0071305Y0071415D01*
X0071220Y0071507D01*
X0071139Y0071600D01*
X0071060Y0071697D01*
X0070984Y0071796D01*
X0070911Y0071897D01*
X0070842Y0072000D01*
X0070776Y0072106D01*
X0070714Y0072214D01*
X0070654Y0072323D01*
X0070599Y0072435D01*
X0070547Y0072548D01*
X0070499Y0072663D01*
X0070454Y0072779D01*
X0070413Y0072897D01*
X0070376Y0073015D01*
X0070342Y0073135D01*
X0070313Y0073256D01*
X0070287Y0073378D01*
X0070266Y0073501D01*
X0070248Y0073624D01*
X0070234Y0073748D01*
X0070224Y0073872D01*
X0070218Y0073996D01*
X0070216Y0074121D01*
D346*
X0071222Y0071222D02*
X0069949Y0069949D01*
X0069949Y0064151D02*
X0071222Y0062878D01*
X0064151Y0069949D02*
X0062878Y0071222D01*
M02*
