%
M48
M72
T01C0.01200
T02C0.02000
T03C0.03300
%
T01
X69050Y87150
X66950Y82350
X63550Y82350
X65350Y76150
X68750Y76150
X67050Y72250
X77850Y65450
X92950Y67350
X89850Y40850
X80450Y32950
X75150Y38450
X71050Y37450
X67050Y42050
X71050Y45450
X70250Y29150
X76747Y26250
X19050Y37144
X19050Y47144
X19050Y57144
X24850Y70750
X30050Y70750
X29950Y62850
X33450Y53550
X35050Y38644
X53050Y53050
X51350Y67850
X50750Y74950
X54250Y74950
X56050Y86150
X50050Y89550
X47050Y88050
X47050Y91050
X44050Y89550
X41450Y83350
X41350Y79950
X41950Y74350
X31850Y78650
X37550Y92050
X57850Y22350
X65950Y11850
T02
X22282Y25818
X25818Y22282
X29353Y18747
X32889Y15211
X73211Y15211
X90889Y32889
X87353Y29353
X83818Y25818
X80282Y22282
X76747Y18747
X90889Y73211
X73211Y90889
X76747Y87353
X80282Y83818
X83818Y80282
X87353Y76747
X66550Y94050
X61550Y94050
X56550Y94050
X32889Y90889
X15211Y73211
X18747Y76747
X22282Y80282
X25818Y83818
X29353Y87353
X15211Y32889
X18747Y29353
T03
X94050Y59050
X94050Y47050
X12050Y59050
X12050Y47050
M30
